thincompressed_ik.ufo
<glyph name="exclam" format="1">
  <advance width="209.0"/>
  <unicode hex="0021"/>
  <outline>
    <contour>
      <point x="120" y="19" type="curve"/>
      <point x="120" y="28"/>
      <point x="114" y="33"/>
      <point x="105" y="33" type="curve"/>
      <point x="96" y="33"/>
      <point x="91" y="27"/>
      <point x="91" y="19" type="curve"/>
      <point x="120" y="19"/>
      <point x="91" y="19"/>
      <point x="120" y="19" type="curve"/>
      <point x="120" y="10"/>
      <point x="114" y="5"/>
      <point x="105" y="5" type="curve"/>
      <point x="96" y="5"/>
      <point x="91" y="10"/>
      <point x="91" y="19" type="curve"/>
      <point x="120" y="19"/>
      <point x="91" y="19"/>
    </contour>
    <contour>
      <point x="117" y="229" type="curve"/>
      <point x="117" y="393"/>
      <point x="117" y="558"/>
      <point x="117" y="722" type="curve"/>
      <point x="92" y="722"/>
      <point x="117" y="722"/>
      <point x="92" y="722" type="curve"/>
      <point x="92" y="558"/>
      <point x="92" y="393"/>
      <point x="92" y="229" type="curve"/>
      <point x="117" y="229"/>
      <point x="92" y="229"/>
    </contour>
  </outline>
</glyph>
<glyph name="numbersign" format="1">
  <advance width="504.0"/>
  <unicode hex="0023"/>
  <outline>
    <contour>
      <point x="48" y="247" type="curve"/>
      <point x="161" y="247"/>
      <point x="284" y="247"/>
      <point x="399" y="247" type="curve"/>
      <point x="404" y="269"/>
      <point x="399" y="247"/>
      <point x="404" y="269" type="curve"/>
      <point x="291" y="269"/>
      <point x="168" y="269"/>
      <point x="53" y="269" type="curve"/>
      <point x="48" y="247"/>
      <point x="53" y="269"/>
    </contour>
    <contour>
      <point x="99" y="492" type="curve"/>
      <point x="212" y="492"/>
      <point x="335" y="492"/>
      <point x="450" y="492" type="curve"/>
      <point x="455" y="513"/>
      <point x="450" y="492"/>
      <point x="455" y="513" type="curve"/>
      <point x="342" y="513"/>
      <point x="219" y="513"/>
      <point x="104" y="513" type="curve"/>
      <point x="99" y="492"/>
      <point x="104" y="513"/>
    </contour>
    <contour>
      <point x="290" y="39" type="curve"/>
      <point x="290" y="39"/>
      <point x="442" y="722"/>
      <point x="442" y="722" type="curve"/>
      <point x="418" y="722"/>
      <point x="442" y="722"/>
      <point x="418" y="722" type="curve"/>
      <point x="418" y="722"/>
      <point x="266" y="39"/>
      <point x="266" y="39" type="curve"/>
      <point x="290" y="39"/>
      <point x="266" y="39"/>
    </contour>
    <contour>
      <point x="94" y="46" type="curve"/>
      <point x="94" y="46"/>
      <point x="243" y="722"/>
      <point x="243" y="722" type="curve"/>
      <point x="219" y="722"/>
      <point x="243" y="722"/>
      <point x="219" y="722" type="curve"/>
      <point x="219" y="722"/>
      <point x="71" y="46"/>
      <point x="71" y="46" type="curve"/>
      <point x="94" y="46"/>
      <point x="71" y="46"/>
    </contour>
  </outline>
</glyph>
<glyph name="dollar" format="1">
  <advance width="420.0"/>
  <unicode hex="0024"/>
  <outline>
    <contour>
      <point x="82.0" y="99.0" type="curve"/>
      <point x="82.0" y="219.0"/>
      <point x="82.0" y="99.0"/>
      <point x="82.0" y="219.0" type="curve"/>
      <point x="60.0" y="219.0"/>
      <point x="82.0" y="219.0"/>
      <point x="60.0" y="219.0" type="curve"/>
      <point x="60.0" y="99.0"/>
      <point x="60.0" y="219.0"/>
      <point x="60.0" y="99.0" type="curve"/>
      <point x="82.0" y="99.0"/>
      <point x="60.0" y="99.0"/>
    </contour>
    <contour>
      <point x="326.22" y="631.081888889" type="curve"/>
      <point x="326.22" y="511.081888889"/>
      <point x="326.22" y="631.081888889"/>
      <point x="326.22" y="511.081888889" type="curve"/>
      <point x="348.0" y="511.081888889"/>
      <point x="326.22" y="511.081888889"/>
      <point x="348.0" y="511.081888889" type="curve"/>
      <point x="348.0" y="631.081888889"/>
      <point x="348.0" y="511.081888889"/>
      <point x="348.0" y="631.081888889" type="curve"/>
      <point x="326.22" y="631.081888889"/>
      <point x="348.0" y="631.081888889"/>
    </contour>
    <contour>
      <point x="210.9" y="-43.1" type="curve"/>
      <point x="210.9" y="-9.1758948"/>
      <point x="210.9" y="24.7492281333"/>
      <point x="210.9" y="58.6733333333" type="curve"/>
      <point x="186.7" y="58.6733333333"/>
      <point x="210.9" y="58.6733333333"/>
      <point x="186.7" y="58.6733333333" type="curve"/>
      <point x="186.7" y="24.7492281333"/>
      <point x="186.7" y="-9.1758948"/>
      <point x="186.7" y="-43.1" type="curve"/>
      <point x="210.9" y="-43.1"/>
      <point x="186.7" y="-43.1"/>
    </contour>
    <contour>
      <point x="219.3" y="671.308888889" type="curve"/>
      <point x="219.3" y="705.232994089"/>
      <point x="219.0" y="739.0"/>
      <point x="219.0" y="773.0" type="curve"/>
      <point x="195.0" y="773.0"/>
      <point x="219.0" y="773.0"/>
      <point x="195.0" y="773.0" type="curve"/>
      <point x="195.0" y="739.0"/>
      <point x="195.1" y="705.232994089"/>
      <point x="195.1" y="671.308888889" type="curve"/>
      <point x="219.3" y="671.308888889"/>
      <point x="195.1" y="671.308888889"/>
    </contour>
    <contour>
      <point x="60.0" y="99.0" type="curve"/>
      <point x="96.0" y="73.0"/>
      <point x="142.0" y="48.0"/>
      <point x="198.0" y="48.0" type="curve"/>
      <point x="296.0" y="48.0"/>
      <point x="361.4" y="112.410661472"/>
      <point x="361.4" y="198.402333333" type="curve"/>
      <point x="361.4" y="281.422144567"/>
      <point x="296.136285461" y="335.928445547"/>
      <point x="216.1" y="384.670888889" type="curve"/>
      <point x="145.983220488" y="427.601316526"/>
      <point x="99.6" y="470.199675327"/>
      <point x="99.6" y="542.595555556" type="curve"/>
      <point x="99.6" y="608.505160178"/>
      <point x="140.246571753" y="661.526666667"/>
      <point x="210.5" y="661.526666667" type="curve"/>
      <point x="261.785386923" y="661.526666667"/>
      <point x="296.191207279" y="643.337586725"/>
      <point x="335.9" y="612.755888889" type="curve"/>
      <point x="348.0" y="631.081888889"/>
      <point x="335.9" y="612.755888889"/>
      <point x="348.0" y="631.081888889" type="curve"/>
      <point x="305.107237467" y="663.602059858"/>
      <point x="267.275931145" y="683.086666667"/>
      <point x="211.6" y="683.086666667" type="curve"/>
      <point x="126.212172473" y="683.086666667"/>
      <point x="75.4" y="621.508484099"/>
      <point x="75.4" y="542.595555556" type="curve"/>
      <point x="75.4" y="462.155564487"/>
      <point x="125.077831989" y="411.719982107"/>
      <point x="201.8" y="365.266888889" type="curve"/>
      <point x="275.557884696" y="321.577977299"/>
      <point x="337.2" y="273.345288496"/>
      <point x="337.2" y="197.324333333" type="curve"/>
      <point x="337.2" y="123.034755509"/>
      <point x="283.056237436" y="69.4533333333"/>
      <point x="199.9" y="69.4533333333" type="curve"/>
      <point x="148.681230163" y="69.4533333333"/>
      <point x="106.679174922" y="94.7638576488"/>
      <point x="73.1" y="118.264222222" type="curve"/>
      <point x="60.0" y="99.0"/>
      <point x="73.0" y="118.0"/>
    </contour>
  </outline>
</glyph>
<glyph name="ampersand" format="1">
  <advance width="501.0"/>
  <unicode hex="0026"/>
  <outline>
    <contour>
      <point x="475" y="0" type="curve"/>
      <point x="394" y="116"/>
      <point x="317" y="232"/>
      <point x="236" y="349" type="curve"/>
      <point x="189" y="423"/>
      <point x="135" y="487"/>
      <point x="135" y="577" type="curve"/>
      <point x="135" y="645"/>
      <point x="159" y="704"/>
      <point x="215" y="704" type="curve"/>
      <point x="274" y="704"/>
      <point x="300" y="648"/>
      <point x="300" y="579" type="curve"/>
      <point x="300" y="495"/>
      <point x="252" y="442"/>
      <point x="186" y="389" type="curve"/>
      <point x="114" y="328"/>
      <point x="63" y="270"/>
      <point x="63" y="177" type="curve"/>
      <point x="63" y="75"/>
      <point x="114" y="-5"/>
      <point x="209" y="-5" type="curve"/>
      <point x="367" y="-5"/>
      <point x="408" y="150"/>
      <point x="444" y="318" type="curve"/>
      <point x="423" y="323"/>
      <point x="444" y="318"/>
      <point x="423" y="323" type="curve"/>
      <point x="389" y="166"/>
      <point x="347" y="18"/>
      <point x="210" y="18" type="curve"/>
      <point x="130" y="18"/>
      <point x="88" y="88"/>
      <point x="88" y="177" type="curve"/>
      <point x="88" y="262"/>
      <point x="136" y="315"/>
      <point x="201" y="369" type="curve"/>
      <point x="272" y="429"/>
      <point x="325" y="488"/>
      <point x="325" y="580" type="curve"/>
      <point x="325" y="662"/>
      <point x="290" y="727"/>
      <point x="216" y="727" type="curve"/>
      <point x="142" y="727"/>
      <point x="110" y="659"/>
      <point x="110" y="577" type="curve"/>
      <point x="110" y="482"/>
      <point x="165" y="414"/>
      <point x="218" y="336" type="curve"/>
      <point x="294" y="224"/>
      <point x="369" y="111"/>
      <point x="446" y="0" type="curve"/>
      <point x="478" y="0"/>
      <point x="443" y="0"/>
    </contour>
  </outline>
</glyph>
<glyph name="quotesingle" format="1">
  <advance width="208.0"/>
  <unicode hex="0027"/>
  <outline>
    <contour>
      <point x="116" y="534" type="curve"/>
      <point x="116" y="597"/>
      <point x="116" y="659"/>
      <point x="116" y="722" type="curve"/>
      <point x="92" y="722"/>
      <point x="116" y="722"/>
      <point x="92" y="722" type="curve"/>
      <point x="92" y="659"/>
      <point x="92" y="597"/>
      <point x="92" y="534" type="curve"/>
      <point x="116" y="534"/>
      <point x="92" y="534"/>
    </contour>
  </outline>
</glyph>
<glyph name="parenright" format="1">
  <advance width="272.0"/>
  <unicode hex="0029"/>
  <outline>
    <contour>
      <point x="31" y="-267" type="curve"/>
      <point x="165.235302473" y="-71.6575822223"/>
      <point x="215.0" y="90.0"/>
      <point x="215" y="327" type="curve"/>
      <point x="215.0" y="557.0"/>
      <point x="172.274576315" y="717.631908564"/>
      <point x="34" y="903" type="curve"/>
      <point x="17" y="890"/>
      <point x="34" y="903"/>
      <point x="17" y="890" type="curve"/>
      <point x="150.267426154" y="705.630026975"/>
      <point x="189.0" y="549.0"/>
      <point x="189" y="326" type="curve"/>
      <point x="189.0" y="97.0"/>
      <point x="141.227131593" y="-60.6610770765"/>
      <point x="13" y="-252" type="curve"/>
      <point x="31" y="-267"/>
      <point x="13" y="-252"/>
    </contour>
  </outline>
</glyph>
<glyph name="asterisk" format="1">
  <advance width="384.0"/>
  <unicode hex="002A"/>
  <outline>
    <contour>
      <point x="180.1" y="669.313333333" type="curve"/>
      <point x="180.765191236" y="618.758799405"/>
      <point x="181.634808764" y="568.20564504"/>
      <point x="182.3" y="517.651111111" type="curve"/>
      <point x="202.1" y="517.651111111"/>
      <point x="182.3" y="517.651111111"/>
      <point x="202.1" y="517.651111111" type="curve"/>
      <point x="202.765191236" y="568.20564504"/>
      <point x="203.634808764" y="618.758799405"/>
      <point x="204.3" y="669.313333333" type="curve"/>
      <point x="180.1" y="669.313333333"/>
      <point x="204.3" y="669.313333333"/>
    </contour>
    <contour>
      <point x="287.2" y="583.349" type="curve"/>
      <point x="254.286825141" y="564.578591576"/>
      <point x="221.813174859" y="545.045519535"/>
      <point x="188.9" y="526.275111111" type="curve"/>
      <point x="195.5" y="509.027111111"/>
      <point x="188.9" y="526.275111111"/>
      <point x="195.5" y="509.027111111" type="curve"/>
      <point x="228.863029092" y="526.519306701"/>
      <point x="263.0" y="543.0"/>
      <point x="299.0" y="562.0" type="curve"/>
      <point x="287.0" y="583.0"/>
      <point x="299.0" y="562.0"/>
    </contour>
    <contour>
      <point x="273.8" y="415.481666667" type="curve"/>
      <point x="249.245296133" y="451.747043703"/>
      <point x="224.454703867" y="487.853734075"/>
      <point x="199.9" y="524.119111111" type="curve"/>
      <point x="184.5" y="511.183111111"/>
      <point x="199.9" y="524.119111111"/>
      <point x="184.5" y="511.183111111" type="curve"/>
      <point x="208.476993063" y="473.942558115"/>
      <point x="232.0" y="437.0"/>
      <point x="254.0" y="402.0" type="curve"/>
      <point x="274.0" y="415.0"/>
      <point x="254.0" y="402.0"/>
    </contour>
    <contour>
      <point x="86.0" y="562.0" type="curve"/>
      <point x="122.0" y="543.0"/>
      <point x="155.536970908" y="526.519306701"/>
      <point x="188.9" y="509.027111111" type="curve"/>
      <point x="195.5" y="526.275111111"/>
      <point x="188.9" y="509.027111111"/>
      <point x="195.5" y="526.275111111" type="curve"/>
      <point x="162.586825141" y="545.045519535"/>
      <point x="130.113174859" y="564.578591576"/>
      <point x="97.2" y="583.349" type="curve"/>
      <point x="86.0" y="562.0"/>
      <point x="97.0" y="583.0"/>
    </contour>
    <contour>
      <point x="130.0" y="401.0" type="curve"/>
      <point x="152.0" y="437.0"/>
      <point x="175.923006937" y="473.942558115"/>
      <point x="199.9" y="511.183111111" type="curve"/>
      <point x="184.5" y="524.119111111"/>
      <point x="199.9" y="511.183111111"/>
      <point x="184.5" y="524.119111111" type="curve"/>
      <point x="159.945296133" y="487.853734075"/>
      <point x="135.154703868" y="451.747043703"/>
      <point x="110.6" y="415.481666667" type="curve"/>
      <point x="130.0" y="401.0"/>
      <point x="111.0" y="415.0"/>
    </contour>
  </outline>
</glyph>
<glyph name="plus" format="1">
  <advance width="594.0"/>
  <unicode hex="002B"/>
  <outline>
    <contour>
      <point x="56.2" y="297.257555556" type="curve"/>
      <point x="56.2" y="297.257555556"/>
      <point x="538.0" y="297.0"/>
      <point x="538.0" y="297.0" type="curve"/>
      <point x="538.0" y="321.0"/>
      <point x="538.0" y="297.0"/>
      <point x="538.0" y="321.0" type="curve"/>
      <point x="538.0" y="321.0"/>
      <point x="56.2" y="320.973555556"/>
      <point x="56.2" y="320.973555556" type="curve"/>
      <point x="56.2" y="297.257555556"/>
      <point x="56.2" y="320.973555556"/>
    </contour>
    <contour>
      <point x="309.0" y="18.0" type="curve"/>
      <point x="309.0" y="18.0"/>
      <point x="309.0" y="588.0"/>
      <point x="309.0" y="588.0" type="curve"/>
      <point x="285.0" y="588.0"/>
      <point x="309.0" y="588.0"/>
      <point x="285.0" y="588.0" type="curve"/>
      <point x="285.0" y="588.0"/>
      <point x="285.0" y="18.0"/>
      <point x="285.0" y="18.0" type="curve"/>
      <point x="309.0" y="18.0"/>
      <point x="285.0" y="18.0"/>
    </contour>
  </outline>
</glyph>
<glyph name="comma" format="1">
  <advance width="216.0"/>
  <unicode hex="002C"/>
  <outline>
    <contour>
      <point x="55.0" y="-137.0" type="curve"/>
      <point x="81.0" y="-77.0"/>
      <point x="107.0" y="-16.0"/>
      <point x="128.0" y="29.0" type="curve"/>
      <point x="97.0" y="29.0"/>
      <point x="128.0" y="29.0"/>
      <point x="97.0" y="29.0" type="curve"/>
      <point x="78.0" y="-16.0"/>
      <point x="55.0" y="-77.0"/>
      <point x="31.0" y="-137.0" type="curve"/>
      <point x="55.0" y="-137.0"/>
      <point x="31.0" y="-137.0"/>
    </contour>
    <contour>
      <point x="86.0" y="119.0" type="move" name="_bottom"/>
    </contour>
  </outline>
</glyph>
<glyph name="period" format="1">
  <advance width="197.0"/>
  <unicode hex="002E"/>
  <outline>
    <contour>
      <point x="113.0" y="12.0" type="curve"/>
      <point x="113.0" y="21.0"/>
      <point x="107.0" y="26.0"/>
      <point x="98.0" y="26.0" type="curve"/>
      <point x="89.0" y="26.0"/>
      <point x="84.0" y="20.0"/>
      <point x="84.0" y="12.0" type="curve"/>
      <point x="113.0" y="12.0"/>
      <point x="84.0" y="12.0"/>
      <point x="113.0" y="12.0" type="curve"/>
      <point x="113.0" y="3.0"/>
      <point x="107.0" y="-2.0"/>
      <point x="98.0" y="-2.0" type="curve"/>
      <point x="89.0" y="-2.0"/>
      <point x="84.0" y="3.0"/>
      <point x="84.0" y="12.0" type="curve"/>
      <point x="113.0" y="12.0"/>
      <point x="84.0" y="12.0"/>
    </contour>
  </outline>
</glyph>
<glyph name="slash" format="1">
  <advance width="399.0"/>
  <unicode hex="002F"/>
  <outline>
    <contour>
      <point x="62.6" y="-67.0466666667" type="curve"/>
      <point x="161.999006" y="236.274744533"/>
      <point x="261.400994" y="539.605255467"/>
      <point x="360.8" y="842.926666667" type="curve"/>
      <point x="336.6" y="842.926666667"/>
      <point x="360.8" y="842.926666667"/>
      <point x="336.6" y="842.926666667" type="curve"/>
      <point x="237.200994" y="539.605255467"/>
      <point x="137.799006" y="236.274744533"/>
      <point x="38.4" y="-67.0466666667" type="curve"/>
      <point x="62.6" y="-67.0466666667"/>
      <point x="38.4" y="-67.0466666667"/>
    </contour>
  </outline>
</glyph>
<glyph name="one" format="1">
  <advance width="359.0"/>
  <unicode hex="0031"/>
  <outline>
    <contour>
      <point x="200.4" y="0.0" type="curve"/>
      <point x="244.432893" y="0.0"/>
      <point x="288.467107" y="0.0"/>
      <point x="332.5" y="0.0" type="curve"/>
      <point x="332.5" y="21.56"/>
      <point x="332.5" y="0.0"/>
      <point x="332.5" y="21.56" type="curve"/>
      <point x="200.4" y="21.56"/>
      <point x="332.5" y="21.56"/>
      <point x="200.4" y="21.56" type="curve"/>
      <point x="200.4" y="0.0"/>
      <point x="200.4" y="21.56"/>
    </contour>
    <contour>
      <point x="200.4" y="21.56" type="curve"/>
      <point x="68.3" y="21.56"/>
      <point x="200.4" y="21.56"/>
      <point x="68.3" y="21.56" type="curve"/>
      <point x="68.3" y="0.0"/>
      <point x="68.3" y="21.56"/>
      <point x="68.3" y="0.0" type="curve"/>
      <point x="112.332893" y="-5.3922960545e-15"/>
      <point x="156.367107" y="5.3922960545e-15"/>
      <point x="200.4" y="0.0" type="curve"/>
      <point x="200.4" y="21.56"/>
      <point x="200.4" y="0.0"/>
    </contour>
    <contour>
      <point x="63.0" y="541.0" type="curve"/>
      <point x="209.0" y="714.0"/>
      <point x="63.0" y="541.0"/>
      <point x="209.0" y="714.0" type="curve"/>
      <point x="187.0" y="722.0"/>
      <point x="209.0" y="714.0"/>
      <point x="187.0" y="722.0" type="curve"/>
      <point x="46.0" y="556.0"/>
      <point x="187.0" y="722.0"/>
      <point x="46.0" y="556.0" type="curve"/>
      <point x="63.0" y="541.0"/>
      <point x="46.0" y="556.0"/>
    </contour>
    <contour>
      <point x="211.1" y="0.0" type="curve"/>
      <point x="211.1" y="240.66426"/>
      <point x="211.1" y="481.33574"/>
      <point x="211.1" y="722.0" type="curve"/>
      <point x="187.0" y="722.0"/>
      <point x="211.0" y="722.0"/>
      <point x="187.0" y="722.0" type="curve"/>
      <point x="187.0" y="481.0"/>
      <point x="186.9" y="240.66426"/>
      <point x="186.9" y="1.45213821436e-15" type="curve"/>
      <point x="211.1" y="0.0"/>
      <point x="186.9" y="1.45213821436e-15"/>
    </contour>
  </outline>
</glyph>
<glyph name="two" format="1">
  <advance width="423.0"/>
  <unicode hex="0032"/>
  <outline>
    <contour>
      <point x="350" y="22" type="curve"/>
      <point x="350" y="142"/>
      <point x="350" y="22"/>
      <point x="350" y="142" type="curve"/>
      <point x="329" y="142"/>
      <point x="350" y="142"/>
      <point x="329" y="142" type="curve"/>
      <point x="329" y="22"/>
      <point x="329" y="142"/>
      <point x="329" y="22" type="curve"/>
      <point x="350" y="22"/>
      <point x="329" y="22"/>
    </contour>
    <contour>
      <point x="50.0" y="0.0" type="curve"/>
      <point x="164.0" y="0.0"/>
      <point x="247.0" y="0.0"/>
      <point x="350.0" y="0.0" type="curve"/>
      <point x="350.0" y="22.0"/>
      <point x="350.0" y="0.0"/>
      <point x="350.0" y="22.0" type="curve"/>
      <point x="243.0" y="22.0"/>
      <point x="157.0" y="22.0"/>
      <point x="50.0" y="22.0" type="curve"/>
      <point x="50.0" y="0.0"/>
      <point x="50.0" y="22.0"/>
    </contour>
    <contour>
      <point x="82.5" y="563.067555556" type="curve"/>
      <point x="111.040582478" y="636.868647239"/>
      <point x="137" y="704"/>
      <point x="212" y="704" type="curve"/>
      <point x="298" y="704"/>
      <point x="325" y="627"/>
      <point x="325" y="526" type="curve"/>
      <point x="325" y="406"/>
      <point x="247" y="291"/>
      <point x="209" y="237" type="curve"/>
      <point x="156" y="165"/>
      <point x="103.0" y="93.0"/>
      <point x="50.0" y="22.0" type="curve"/>
      <point x="61.0" y="0.0"/>
      <point x="50.0" y="22.0"/>
      <point x="61.0" y="0.0" type="curve"/>
      <point x="115.0" y="73.0"/>
      <point x="170" y="146"/>
      <point x="224" y="220" type="curve"/>
      <point x="267" y="279"/>
      <point x="350" y="399"/>
      <point x="350" y="527" type="curve"/>
      <point x="350" y="642"/>
      <point x="314" y="727"/>
      <point x="213" y="727" type="curve"/>
      <point x="129" y="727"/>
      <point x="90.0" y="657.0"/>
      <point x="61.0" y="573.0" type="curve"/>
      <point x="83.0" y="563.0"/>
      <point x="61.0" y="573.0"/>
    </contour>
  </outline>
</glyph>
<glyph name="three" format="1">
  <advance width="416.0"/>
  <unicode hex="0033"/>
  <outline>
    <contour>
      <point x="60.1" y="56.0761111111" type="curve"/>
      <point x="99.7270404673" y="19.789331597"/>
      <point x="134" y="-5"/>
      <point x="188" y="-5" type="curve"/>
      <point x="300" y="-5"/>
      <point x="352" y="73"/>
      <point x="352" y="195" type="curve"/>
      <point x="352" y="308"/>
      <point x="295.861001228" y="393.610777778"/>
      <point x="178.7" y="393.610777778" type="curve"/>
      <point x="178.7" y="375.284777778"/>
      <point x="178.7" y="393.610777778"/>
      <point x="178.7" y="375.284777778" type="curve"/>
      <point x="266.963972509" y="375.284777778"/>
      <point x="327" y="300"/>
      <point x="327" y="194" type="curve"/>
      <point x="327.0" y="87.5813953488"/>
      <point x="274" y="18"/>
      <point x="189" y="18" type="curve"/>
      <point x="141" y="18"/>
      <point x="110.58942456" y="39.8765613511"/>
      <point x="73.3" y="72.2461111111" type="curve"/>
      <point x="60.1" y="56.0761111111"/>
      <point x="73.3" y="72.2461111111"/>
    </contour>
    <contour>
      <point x="82" y="628" type="curve"/>
      <point x="100" y="661"/>
      <point x="137" y="704"/>
      <point x="188" y="704" type="curve"/>
      <point x="269" y="704"/>
      <point x="304" y="641"/>
      <point x="304" y="550" type="curve"/>
      <point x="304" y="461"/>
      <point x="256.151500549" y="393.610777778"/>
      <point x="178.7" y="393.610777778" type="curve"/>
      <point x="178.7" y="375.284777778"/>
      <point x="178.7" y="393.610777778"/>
      <point x="178.7" y="375.284777778" type="curve"/>
      <point x="275.717371922" y="375.284777778"/>
      <point x="329.0" y="449.0"/>
      <point x="329" y="551" type="curve"/>
      <point x="329.0" y="654.0"/>
      <point x="285.372262774" y="727.0"/>
      <point x="190" y="727" type="curve"/>
      <point x="130" y="727"/>
      <point x="86.0321062037" y="680.389543934"/>
      <point x="64.6" y="638.903666667" type="curve"/>
      <point x="82" y="628"/>
      <point x="65" y="639"/>
    </contour>
  </outline>
</glyph>
<glyph name="four" format="1">
  <advance width="458.0"/>
  <unicode hex="0034"/>
  <outline>
    <contour>
      <point x="270.5" y="21.56" type="curve"/>
      <point x="138.4" y="21.56"/>
      <point x="270.5" y="21.56"/>
      <point x="138.4" y="21.56" type="curve"/>
      <point x="138.4" y="0.0"/>
      <point x="138.4" y="21.56"/>
      <point x="138.4" y="0.0" type="curve"/>
      <point x="182.432893" y="-5.3922960545e-15"/>
      <point x="226.467107" y="5.3922960545e-15"/>
      <point x="270.5" y="0.0" type="curve"/>
      <point x="270.5" y="21.56"/>
      <point x="270.5" y="0.0"/>
    </contour>
    <contour>
      <point x="270.5" y="0.0" type="curve"/>
      <point x="314.532893" y="0.0"/>
      <point x="358.567107" y="0.0"/>
      <point x="402.6" y="0.0" type="curve"/>
      <point x="402.6" y="21.56"/>
      <point x="402.6" y="0.0"/>
      <point x="402.6" y="21.56" type="curve"/>
      <point x="270.5" y="21.56"/>
      <point x="402.6" y="21.56"/>
      <point x="270.5" y="21.56" type="curve"/>
      <point x="270.5" y="0.0"/>
      <point x="270.5" y="21.56"/>
    </contour>
    <contour>
      <point x="46.0" y="265.0" type="curve"/>
      <point x="283.0" y="722.0"/>
      <point x="46.0" y="265.0"/>
      <point x="283.0" y="722.0" type="curve"/>
      <point x="259.0" y="722.0"/>
      <point x="283.0" y="722.0"/>
      <point x="259.0" y="722.0" type="curve"/>
      <point x="33.0" y="288.0"/>
      <point x="259.0" y="722.0"/>
      <point x="32.0" y="287.0" type="curve"/>
      <point x="46.0" y="265.0"/>
      <point x="32.0" y="287.0"/>
    </contour>
    <contour>
      <point x="406" y="287" type="curve"/>
      <point x="41.6572769953" y="287.0"/>
      <point x="373.516431925" y="287.0"/>
      <point x="32.0" y="287.0" type="curve"/>
      <point x="46.0" y="265.0"/>
      <point x="32.0" y="287.0"/>
      <point x="46.0" y="265.0" type="curve"/>
      <point x="370.174757282" y="265.0"/>
      <point x="59.9805825243" y="265.0"/>
      <point x="406" y="265" type="curve"/>
      <point x="406" y="274"/>
      <point x="406" y="279"/>
    </contour>
    <contour>
      <point x="259.0" y="722.0" type="curve"/>
      <point x="259.0" y="722.0"/>
      <point x="259.1" y="0.802222222222"/>
      <point x="259.1" y="0.802222222222" type="curve"/>
      <point x="283.3" y="0.802222222222"/>
      <point x="259.1" y="0.802222222222"/>
      <point x="283.3" y="0.802222222222" type="curve"/>
      <point x="283.3" y="0.802222222222"/>
      <point x="283.0" y="722.0"/>
      <point x="283.0" y="722.0" type="curve"/>
      <point x="259.0" y="722.0"/>
      <point x="283.0" y="722.0"/>
    </contour>
  </outline>
</glyph>
<glyph name="six" format="1">
  <advance width="441.0"/>
  <unicode hex="0036"/>
  <outline>
    <contour>
      <point x="82" y="230" type="curve"/>
      <point x="94" y="301"/>
      <point x="141" y="386"/>
      <point x="225" y="386" type="curve"/>
      <point x="317" y="386"/>
      <point x="350" y="307"/>
      <point x="350" y="202" type="curve"/>
      <point x="350" y="111"/>
      <point x="317" y="18"/>
      <point x="229" y="18" type="curve"/>
      <point x="121" y="18"/>
      <point x="86" y="118"/>
      <point x="86" y="242" type="curve"/>
      <point x="86" y="464"/>
      <point x="186" y="634"/>
      <point x="381" y="714" type="curve"/>
      <point x="372" y="734"/>
      <point x="381" y="714"/>
      <point x="372" y="734" type="curve"/>
      <point x="169" y="654"/>
      <point x="61" y="480"/>
      <point x="61" y="241" type="curve"/>
      <point x="61" y="103"/>
      <point x="105" y="-5"/>
      <point x="228" y="-5" type="curve"/>
      <point x="333" y="-5"/>
      <point x="375" y="86"/>
      <point x="375" y="203" type="curve"/>
      <point x="375" y="320"/>
      <point x="332" y="409"/>
      <point x="227" y="409" type="curve"/>
      <point x="132" y="409"/>
      <point x="81" y="330"/>
      <point x="64" y="241" type="curve"/>
      <point x="80" y="230"/>
      <point x="66" y="241"/>
    </contour>
  </outline>
</glyph>
<glyph name="seven" format="1">
  <advance width="404.0"/>
  <unicode hex="0037"/>
  <outline>
    <contour>
      <point x="72" y="602" type="curve"/>
      <point x="72" y="722"/>
      <point x="72" y="602"/>
      <point x="72" y="722" type="curve"/>
      <point x="51" y="722"/>
      <point x="72" y="722"/>
      <point x="51" y="722" type="curve"/>
      <point x="51" y="602"/>
      <point x="51" y="722"/>
      <point x="51" y="602" type="curve"/>
      <point x="72" y="602"/>
      <point x="51" y="602"/>
    </contour>
    <contour>
      <point x="51" y="700" type="curve"/>
      <point x="162" y="700"/>
      <point x="274" y="700"/>
      <point x="385" y="700" type="curve"/>
      <point x="385" y="722"/>
      <point x="385" y="700"/>
      <point x="385" y="722" type="curve"/>
      <point x="265" y="722"/>
      <point x="158" y="722"/>
      <point x="51" y="722" type="curve"/>
      <point x="51" y="700"/>
      <point x="51" y="722"/>
    </contour>
    <contour>
      <point x="372" y="722" type="curve"/>
      <point x="75" y="0"/>
      <point x="372" y="722"/>
      <point x="75" y="0" type="curve"/>
      <point x="102" y="0"/>
      <point x="75" y="0"/>
      <point x="102" y="0" type="curve"/>
      <point x="385" y="700"/>
      <point x="102" y="0"/>
      <point x="385" y="700" type="curve"/>
      <point x="372" y="722"/>
      <point x="385" y="700"/>
    </contour>
  </outline>
</glyph>
<glyph name="eight" format="1">
  <advance width="426.0"/>
  <unicode hex="0038"/>
  <outline>
    <contour>
      <point x="80" y="565" type="curve"/>
      <point x="80" y="471"/>
      <point x="129.025591803" y="423.603233895"/>
      <point x="205.7" y="369.338222222" type="curve"/>
      <point x="284.988279429" y="312.74846916"/>
      <point x="335" y="260"/>
      <point x="335" y="168" type="curve"/>
      <point x="335" y="80"/>
      <point x="296" y="18"/>
      <point x="212" y="18" type="curve"/>
      <point x="128" y="18"/>
      <point x="91" y="80"/>
      <point x="91" y="168" type="curve"/>
      <point x="91" y="262"/>
      <point x="142.445400139" y="311.917943475"/>
      <point x="222.2" y="369.338222222" type="curve"/>
      <point x="296.408590518" y="424.185821994"/>
      <point x="346" y="471"/>
      <point x="346" y="563" type="curve"/>
      <point x="346" y="661"/>
      <point x="306" y="727"/>
      <point x="212" y="727" type="curve"/>
      <point x="121" y="727"/>
      <point x="80" y="660"/>
      <point x="80" y="565" type="curve"/>
      <point x="104" y="565"/>
      <point x="80" y="565"/>
      <point x="104" y="565" type="curve"/>
      <point x="104" y="644"/>
      <point x="136" y="704"/>
      <point x="211" y="704" type="curve"/>
      <point x="290" y="704"/>
      <point x="322" y="646"/>
      <point x="322" y="563" type="curve"/>
      <point x="322" y="482"/>
      <point x="275.632693546" y="435.591435596"/>
      <point x="205.7" y="386.586222222" type="curve"/>
      <point x="120.664069008" y="324.917812252"/>
      <point x="66" y="273"/>
      <point x="66" y="168" type="curve"/>
      <point x="66" y="65"/>
      <point x="112" y="-5"/>
      <point x="211" y="-5" type="curve"/>
      <point x="310" y="-5"/>
      <point x="360" y="63"/>
      <point x="360" y="168" type="curve"/>
      <point x="360" y="272"/>
      <point x="305.941830179" y="325.880094706"/>
      <point x="222.2" y="386.586222222" type="curve"/>
      <point x="151.805063199" y="438.21097556"/>
      <point x="104" y="482"/>
      <point x="104" y="565" type="curve"/>
      <point x="80" y="565"/>
      <point x="104" y="565"/>
    </contour>
  </outline>
</glyph>
<glyph name="nine" format="1">
  <advance width="439.0"/>
  <unicode hex="0039"/>
  <outline>
    <contour>
      <point x="357" y="489" type="curve"/>
      <point x="336" y="420"/>
      <point x="300" y="336"/>
      <point x="213" y="336" type="curve"/>
      <point x="121" y="336"/>
      <point x="89" y="416"/>
      <point x="89" y="520" type="curve"/>
      <point x="89" y="621"/>
      <point x="121" y="704"/>
      <point x="209" y="704" type="curve"/>
      <point x="317" y="704"/>
      <point x="352" y="602"/>
      <point x="352" y="480" type="curve"/>
      <point x="352" y="258"/>
      <point x="267" y="99"/>
      <point x="62" y="8" type="curve"/>
      <point x="72" y="-15"/>
      <point x="62" y="8"/>
      <point x="72" y="-15" type="curve"/>
      <point x="285.586599896" y="79.2588750713"/>
      <point x="377.0" y="242.0"/>
      <point x="377" y="481" type="curve"/>
      <point x="377.0" y="619.0"/>
      <point x="334.746987952" y="727.0"/>
      <point x="210" y="727" type="curve"/>
      <point x="104" y="727"/>
      <point x="64" y="636"/>
      <point x="64" y="519" type="curve"/>
      <point x="64" y="402"/>
      <point x="105" y="313"/>
      <point x="211" y="313" type="curve"/>
      <point x="306" y="313"/>
      <point x="344" y="385"/>
      <point x="372" y="481" type="curve"/>
      <point x="357" y="489"/>
      <point x="372" y="481"/>
    </contour>
  </outline>
</glyph>
<glyph name="colon" format="1">
  <advance width="203.0"/>
  <unicode hex="003A"/>
  <outline>
    <contour>
      <point x="116.0" y="428.0" type="curve"/>
      <point x="116.0" y="437.0"/>
      <point x="110.0" y="442.0"/>
      <point x="101.0" y="442.0" type="curve"/>
      <point x="92.0" y="442.0"/>
      <point x="87.0" y="436.0"/>
      <point x="87.0" y="428.0" type="curve"/>
      <point x="116.0" y="428.0"/>
      <point x="87.0" y="428.0"/>
      <point x="116.0" y="428.0" type="curve"/>
      <point x="116.0" y="419.0"/>
      <point x="110.0" y="414.0"/>
      <point x="101.0" y="414.0" type="curve"/>
      <point x="92.0" y="414.0"/>
      <point x="87.0" y="419.0"/>
      <point x="87.0" y="428.0" type="curve"/>
      <point x="116.0" y="428.0"/>
      <point x="87.0" y="428.0"/>
    </contour>
    <contour>
      <point x="116.0" y="12.0" type="curve"/>
      <point x="116.0" y="21.0"/>
      <point x="110.0" y="26.0"/>
      <point x="101.0" y="26.0" type="curve"/>
      <point x="92.0" y="26.0"/>
      <point x="87.0" y="20.0"/>
      <point x="87.0" y="12.0" type="curve"/>
      <point x="116.0" y="12.0"/>
      <point x="87.0" y="12.0"/>
      <point x="116.0" y="12.0" type="curve"/>
      <point x="116.0" y="3.0"/>
      <point x="110.0" y="-2.0"/>
      <point x="101.0" y="-2.0" type="curve"/>
      <point x="92.0" y="-2.0"/>
      <point x="87.0" y="3.0"/>
      <point x="87.0" y="12.0" type="curve"/>
      <point x="116.0" y="12.0"/>
      <point x="87.0" y="12.0"/>
    </contour>
  </outline>
</glyph>
<glyph name="semicolon" format="1">
  <advance width="294.0"/>
  <unicode hex="003B"/>
  <outline>
    <contour>
      <point x="102.0" y="-99.0" type="curve"/>
      <point x="128.0" y="-39.0"/>
      <point x="154.0" y="22.0"/>
      <point x="180.0" y="82.0" type="curve"/>
      <point x="149.0" y="82.0"/>
      <point x="180.0" y="82.0"/>
      <point x="149.0" y="82.0" type="curve"/>
      <point x="125.0" y="22.0"/>
      <point x="102.0" y="-39.0"/>
      <point x="78.0" y="-99.0" type="curve"/>
      <point x="102.0" y="-99.0"/>
      <point x="78.0" y="-99.0"/>
    </contour>
    <contour>
      <point x="188.0" y="428.0" type="curve"/>
      <point x="188.0" y="437.0"/>
      <point x="182.0" y="442.0"/>
      <point x="173.0" y="442.0" type="curve"/>
      <point x="164.0" y="442.0"/>
      <point x="159.0" y="436.0"/>
      <point x="159.0" y="428.0" type="curve"/>
      <point x="188.0" y="428.0"/>
      <point x="159.0" y="428.0"/>
      <point x="188.0" y="428.0" type="curve"/>
      <point x="188.0" y="419.0"/>
      <point x="182.0" y="414.0"/>
      <point x="173.0" y="414.0" type="curve"/>
      <point x="164.0" y="414.0"/>
      <point x="159.0" y="419.0"/>
      <point x="159.0" y="428.0" type="curve"/>
      <point x="188.0" y="428.0"/>
      <point x="159.0" y="428.0"/>
    </contour>
  </outline>
</glyph>
<glyph name="less" format="1">
  <advance width="532.0"/>
  <unicode hex="003C"/>
  <outline>
    <contour>
      <point x="466.9" y="581.858" type="curve"/>
      <point x="324.801421" y="491.8589"/>
      <point x="182.698579" y="401.8571"/>
      <point x="40.6" y="311.858" type="curve"/>
      <point x="40.6" y="288.142"/>
      <point x="40.6" y="311.858"/>
      <point x="40.6" y="288.142" type="curve"/>
      <point x="182.698579" y="378.1411"/>
      <point x="324.801421" y="468.1429"/>
      <point x="466.9" y="558.142" type="curve"/>
      <point x="466.9" y="581.858"/>
      <point x="466.9" y="558.142"/>
    </contour>
    <contour>
      <point x="473.9" y="47.858" type="curve"/>
      <point x="329.468111" y="135.85712"/>
      <point x="185.031889" y="223.85888"/>
      <point x="40.6" y="311.858" type="curve"/>
      <point x="40.6" y="288.142"/>
      <point x="40.6" y="311.858"/>
      <point x="40.6" y="288.142" type="curve"/>
      <point x="185.031889" y="200.14288"/>
      <point x="329.468111" y="112.14112"/>
      <point x="473.9" y="24.142" type="curve"/>
      <point x="473.9" y="47.858"/>
      <point x="473.9" y="24.142"/>
    </contour>
  </outline>
</glyph>
<glyph name="greater" format="1">
  <advance width="531.0"/>
  <unicode hex="003E"/>
  <outline>
    <contour>
      <point x="63.9" y="24.142" type="curve"/>
      <point x="205.998579" y="114.1411"/>
      <point x="348.101421" y="204.1429"/>
      <point x="490.2" y="294.142" type="curve"/>
      <point x="490.2" y="317.858"/>
      <point x="490.2" y="294.142"/>
      <point x="490.2" y="317.858" type="curve"/>
      <point x="348.101421" y="227.8589"/>
      <point x="205.998579" y="137.8571"/>
      <point x="63.9" y="47.858" type="curve"/>
      <point x="63.9" y="24.142"/>
      <point x="63.9" y="47.858"/>
    </contour>
    <contour>
      <point x="56.9" y="558.142" type="curve"/>
      <point x="201.331889" y="470.14288"/>
      <point x="345.768111" y="382.14112"/>
      <point x="490.2" y="294.142" type="curve"/>
      <point x="490.2" y="317.858"/>
      <point x="490.2" y="294.142"/>
      <point x="490.2" y="317.858" type="curve"/>
      <point x="345.768111" y="405.85712"/>
      <point x="201.331889" y="493.85888"/>
      <point x="56.9" y="581.858" type="curve"/>
      <point x="56.9" y="558.142"/>
      <point x="56.9" y="581.858"/>
    </contour>
  </outline>
</glyph>
<glyph name="question" format="1">
  <advance width="332.0"/>
  <unicode hex="003F"/>
  <outline>
    <contour>
      <point x="106" y="334" type="curve"/>
      <point x="106" y="297"/>
      <point x="106" y="258"/>
      <point x="106" y="221" type="curve"/>
      <point x="130" y="221"/>
      <point x="106" y="221"/>
      <point x="130" y="221" type="curve"/>
      <point x="130" y="258"/>
      <point x="130" y="297"/>
      <point x="130" y="334" type="curve"/>
      <point x="106" y="334"/>
      <point x="130" y="334"/>
    </contour>
    <contour>
      <point x="72" y="672" type="curve"/>
      <point x="89" y="682"/>
      <point x="107" y="687"/>
      <point x="124" y="687" type="curve"/>
      <point x="207" y="687"/>
      <point x="242" y="612"/>
      <point x="242" y="519" type="curve"/>
      <point x="242" y="418"/>
      <point x="203" y="334"/>
      <point x="111" y="334" type="curve"/>
      <point x="111" y="311"/>
      <point x="111" y="334"/>
      <point x="111" y="311" type="curve"/>
      <point x="217" y="311"/>
      <point x="267" y="404"/>
      <point x="267" y="519" type="curve"/>
      <point x="267" y="624"/>
      <point x="221" y="710"/>
      <point x="126" y="710" type="curve"/>
      <point x="102" y="710"/>
      <point x="85" y="704"/>
      <point x="64" y="694" type="curve"/>
      <point x="72" y="672"/>
      <point x="64" y="694"/>
    </contour>
    <contour>
      <point x="133" y="11" type="curve"/>
      <point x="133" y="20"/>
      <point x="127" y="25"/>
      <point x="118" y="25" type="curve"/>
      <point x="110" y="25"/>
      <point x="104" y="19"/>
      <point x="104" y="11" type="curve"/>
      <point x="133" y="11"/>
      <point x="104" y="11"/>
      <point x="133" y="11" type="curve"/>
      <point x="133" y="2"/>
      <point x="127" y="-2"/>
      <point x="118" y="-2" type="curve"/>
      <point x="110" y="-2"/>
      <point x="104" y="3"/>
      <point x="104" y="11" type="curve"/>
      <point x="133" y="11"/>
      <point x="104" y="11"/>
    </contour>
  </outline>
</glyph>
<glyph name="at" format="1">
  <advance width="610.0"/>
  <unicode hex="0040"/>
  <outline>
    <contour>
      <point x="421.0" y="-104.0" type="curve"/>
      <point x="386.0" y="-132.0"/>
      <point x="357" y="-141"/>
      <point x="312" y="-141" type="curve"/>
      <point x="143" y="-141"/>
      <point x="85" y="1"/>
      <point x="85" y="189" type="curve"/>
      <point x="85" y="373"/>
      <point x="145" y="515"/>
      <point x="310" y="515" type="curve"/>
      <point x="469" y="515"/>
      <point x="519" y="373"/>
      <point x="519" y="194" type="curve"/>
      <point x="519" y="115"/>
      <point x="519.0" y="43.0"/>
      <point x="467.0" y="43.0" type="curve"/>
      <point x="401.0" y="43.0"/>
      <point x="407.0" y="115.0"/>
      <point x="407.0" y="194.0" type="curve"/>
      <point x="407.0" y="290.0"/>
      <point x="385.0" y="367.0"/>
      <point x="301.0" y="367.0" type="curve"/>
      <point x="214.0" y="367.0"/>
      <point x="186.0" y="292.0"/>
      <point x="186.0" y="195.0" type="curve"/>
      <point x="186.0" y="92.0"/>
      <point x="208.0" y="11.0"/>
      <point x="298.0" y="11.0" type="curve"/>
      <point x="381.0" y="11.0"/>
      <point x="395.0" y="90.0"/>
      <point x="403.0" y="184.0" type="curve"/>
      <point x="389.0" y="186.0"/>
      <point x="403.0" y="184.0"/>
      <point x="389.0" y="186.0" type="curve"/>
      <point x="376.0" y="110.0"/>
      <point x="364.0" y="33.0"/>
      <point x="301.0" y="33.0" type="curve"/>
      <point x="222.0" y="33.0"/>
      <point x="209.0" y="106.0"/>
      <point x="209.0" y="196.0" type="curve"/>
      <point x="209.0" y="280.0"/>
      <point x="226.0" y="345.0"/>
      <point x="298.0" y="345.0" type="curve"/>
      <point x="371.0" y="345.0"/>
      <point x="385.0" y="277.0"/>
      <point x="385.0" y="193.0" type="curve"/>
      <point x="385.0" y="102.0"/>
      <point x="386.0" y="23.0"/>
      <point x="465.0" y="23.0" type="curve"/>
      <point x="547.077922078" y="23.0"/>
      <point x="544.0" y="102.0"/>
      <point x="544" y="195" type="curve"/>
      <point x="544.0" y="390.0"/>
      <point x="485.495652174" y="538.0"/>
      <point x="312" y="538" type="curve"/>
      <point x="128.544" y="538.0"/>
      <point x="60.0" y="389.0"/>
      <point x="60" y="188" type="curve"/>
      <point x="60.0" y="-13.0"/>
      <point x="128" y="-163"/>
      <point x="310" y="-163" type="curve"/>
      <point x="360" y="-163"/>
      <point x="393.0" y="-154.0"/>
      <point x="432.0" y="-124.0" type="curve"/>
      <point x="421.0" y="-104.0"/>
      <point x="432.0" y="-124.0"/>
    </contour>
  </outline>
</glyph>
<glyph name="B" format="1">
  <advance width="525.0"/>
  <unicode hex="0042"/>
  <outline>
    <contour>
      <point x="172.0" y="722.0" type="curve"/>
      <point x="128.0" y="722.0"/>
      <point x="84.0" y="722.0"/>
      <point x="40.0" y="722.0" type="curve"/>
      <point x="40.0" y="700.0"/>
      <point x="40.0" y="722.0"/>
      <point x="40.0" y="700.0" type="curve"/>
      <point x="172.0" y="700.0"/>
      <point x="40.0" y="700.0"/>
      <point x="172.0" y="700.0" type="curve"/>
      <point x="172.0" y="722.0"/>
      <point x="172.0" y="700.0"/>
    </contour>
    <contour>
      <point x="171.0" y="22.0" type="curve"/>
      <point x="39.0" y="22.0"/>
      <point x="171.0" y="22.0"/>
      <point x="39.0" y="22.0" type="curve"/>
      <point x="39.0" y="0.0"/>
      <point x="39.0" y="22.0"/>
      <point x="39.0" y="0.0" type="curve"/>
      <point x="83.0" y="0.0"/>
      <point x="127.0" y="0.0"/>
      <point x="171.0" y="0.0" type="curve"/>
      <point x="171.0" y="22.0"/>
      <point x="171.0" y="0.0"/>
    </contour>
    <contour>
      <point x="164.0" y="700.0" type="curve"/>
      <point x="208.0" y="700.0"/>
      <point x="237.0" y="700.0"/>
      <point x="281.0" y="700.0" type="curve"/>
      <point x="364.0" y="700.0"/>
      <point x="406.0" y="642.0"/>
      <point x="406.0" y="555.0" type="curve"/>
      <point x="406.0" y="474.0"/>
      <point x="365.0" y="421.0"/>
      <point x="288.0" y="421.0" type="curve"/>
      <point x="241.0" y="421.0"/>
      <point x="211.0" y="421.0"/>
      <point x="164.0" y="421.0" type="curve"/>
      <point x="164.0" y="413.0"/>
      <point x="164.0" y="407.0"/>
      <point x="164.0" y="399.0" type="curve"/>
      <point x="206.0" y="399.0"/>
      <point x="237.0" y="399.0"/>
      <point x="279.0" y="399.0" type="curve"/>
      <point x="376.0" y="399.0"/>
      <point x="430.0" y="458.0"/>
      <point x="430.0" y="555.0" type="curve"/>
      <point x="430.0" y="656.0"/>
      <point x="378.0" y="722.0"/>
      <point x="281.0" y="722.0" type="curve"/>
      <point x="237.0" y="722.0"/>
      <point x="208.0" y="722.0"/>
      <point x="164.0" y="722.0" type="curve"/>
      <point x="164.0" y="714.0"/>
      <point x="164.0" y="708.0"/>
    </contour>
    <contour>
      <point x="185.0" y="0.0" type="curve"/>
      <point x="185.0" y="241.0"/>
      <point x="185.0" y="481.0"/>
      <point x="185.0" y="722.0" type="curve"/>
      <point x="159.0" y="722.0"/>
      <point x="185.0" y="722.0"/>
      <point x="159.0" y="722.0" type="curve"/>
      <point x="159.0" y="481.0"/>
      <point x="160.0" y="241.0"/>
      <point x="159.0" y="0.0" type="curve"/>
      <point x="185.0" y="0.0"/>
      <point x="159.0" y="0.0"/>
    </contour>
    <contour>
      <point x="164.0" y="399.0" type="curve"/>
      <point x="211.0" y="399.0"/>
      <point x="241.0" y="399.0"/>
      <point x="288.0" y="399.0" type="curve"/>
      <point x="393.0" y="399.0"/>
      <point x="439.0" y="318.0"/>
      <point x="439.0" y="204.0" type="curve"/>
      <point x="439.0" y="95.0"/>
      <point x="386.0" y="22.0"/>
      <point x="282.0" y="22.0" type="curve"/>
      <point x="237.0" y="22.0"/>
      <point x="209.0" y="22.0"/>
      <point x="164.0" y="22.0" type="curve"/>
      <point x="164.0" y="14.0"/>
      <point x="164.0" y="8.0"/>
      <point x="164.0" y="0.0" type="curve"/>
      <point x="209.0" y="0.0"/>
      <point x="237.0" y="0.0"/>
      <point x="282.0" y="0.0" type="curve"/>
      <point x="400.0" y="0.0"/>
      <point x="463.0" y="81.0"/>
      <point x="463.0" y="204.0" type="curve"/>
      <point x="463.0" y="334.0"/>
      <point x="404.0" y="421.0"/>
      <point x="280.0" y="421.0" type="curve"/>
      <point x="238.0" y="421.0"/>
      <point x="206.0" y="421.0"/>
      <point x="164.0" y="421.0" type="curve"/>
      <point x="164.0" y="413.0"/>
      <point x="164.0" y="407.0"/>
    </contour>
  </outline>
</glyph>
<glyph name="D" format="1">
  <advance width="600.0"/>
  <unicode hex="0044"/>
  <outline>
    <contour>
      <point x="173.0" y="22.0" type="curve"/>
      <point x="41.0" y="22.0"/>
      <point x="173.0" y="22.0"/>
      <point x="41.0" y="22.0" type="curve"/>
      <point x="41.0" y="0.0"/>
      <point x="41.0" y="22.0"/>
      <point x="41.0" y="0.0" type="curve"/>
      <point x="85.0" y="0.0"/>
      <point x="129.0" y="0.0"/>
      <point x="173.0" y="0.0" type="curve"/>
      <point x="173.0" y="22.0"/>
      <point x="173.0" y="0.0"/>
    </contour>
    <contour>
      <point x="173.0" y="722.0" type="curve"/>
      <point x="129.0" y="722.0"/>
      <point x="85.0" y="722.0"/>
      <point x="41.0" y="722.0" type="curve"/>
      <point x="41.0" y="700.0"/>
      <point x="41.0" y="722.0"/>
      <point x="41.0" y="700.0" type="curve"/>
      <point x="173.0" y="700.0"/>
      <point x="41.0" y="700.0"/>
      <point x="173.0" y="700.0" type="curve"/>
      <point x="173.0" y="722.0"/>
      <point x="173.0" y="700.0"/>
    </contour>
    <contour>
      <point x="160.0" y="722.0" type="curve"/>
      <point x="160.0" y="481.0"/>
      <point x="160.0" y="241.0"/>
      <point x="160.0" y="0.0" type="curve"/>
      <point x="184.0" y="0.0"/>
      <point x="160.0" y="0.0"/>
      <point x="184.0" y="0.0" type="curve"/>
      <point x="184.0" y="241.0"/>
      <point x="184.0" y="481.0"/>
      <point x="184.0" y="722.0" type="curve"/>
      <point x="160.0" y="722.0"/>
      <point x="184.0" y="722.0"/>
    </contour>
    <contour>
      <point x="173.0" y="0.0" type="curve"/>
      <point x="218.0" y="0.0"/>
      <point x="246.0" y="0.0"/>
      <point x="291.0" y="0.0" type="curve"/>
      <point x="473.0" y="0.0"/>
      <point x="537.0" y="153.0"/>
      <point x="537.0" y="356.0" type="curve"/>
      <point x="537.0" y="565.0"/>
      <point x="469.0" y="722.0"/>
      <point x="282.0" y="722.0" type="curve"/>
      <point x="241.0" y="722.0"/>
      <point x="214.0" y="722.0"/>
      <point x="173.0" y="722.0" type="curve"/>
      <point x="173.0" y="714.0"/>
      <point x="173.0" y="708.0"/>
      <point x="173.0" y="700.0" type="curve"/>
      <point x="214.0" y="700.0"/>
      <point x="240.0" y="700.0"/>
      <point x="281.0" y="700.0" type="curve"/>
      <point x="455.0" y="700.0"/>
      <point x="513.0" y="551.0"/>
      <point x="513.0" y="355.0" type="curve"/>
      <point x="513.0" y="167.0"/>
      <point x="460.0" y="22.0"/>
      <point x="293.0" y="22.0" type="curve"/>
      <point x="248.0" y="22.0"/>
      <point x="218.0" y="22.0"/>
      <point x="173.0" y="22.0" type="curve"/>
      <point x="173.0" y="14.0"/>
      <point x="173.0" y="8.0"/>
    </contour>
  </outline>
</glyph>
<glyph name="E" format="1">
  <advance width="521.0"/>
  <unicode hex="0045"/>
  <outline>
    <contour>
      <point x="472.0" y="11.0" type="curve"/>
      <point x="472.0" y="131.0"/>
      <point x="472.0" y="11.0"/>
      <point x="472.0" y="131.0" type="curve"/>
      <point x="450.0" y="131.0"/>
      <point x="472.0" y="131.0"/>
      <point x="450.0" y="131.0" type="curve"/>
      <point x="450.0" y="11.0"/>
      <point x="450.0" y="131.0"/>
      <point x="450.0" y="11.0" type="curve"/>
      <point x="472.0" y="11.0"/>
      <point x="450.0" y="11.0"/>
    </contour>
    <contour>
      <point x="426.0" y="711.0" type="curve"/>
      <point x="426.0" y="591.0"/>
      <point x="426.0" y="711.0"/>
      <point x="426.0" y="591.0" type="curve"/>
      <point x="448.0" y="591.0"/>
      <point x="426.0" y="591.0"/>
      <point x="448.0" y="591.0" type="curve"/>
      <point x="448.0" y="711.0"/>
      <point x="448.0" y="591.0"/>
      <point x="448.0" y="711.0" type="curve"/>
      <point x="426.0" y="711.0"/>
      <point x="448.0" y="711.0"/>
    </contour>
    <contour>
      <point x="172.0" y="22.0" type="curve"/>
      <point x="40.0" y="22.0"/>
      <point x="172.0" y="22.0"/>
      <point x="40.0" y="22.0" type="curve"/>
      <point x="40.0" y="0.0"/>
      <point x="40.0" y="22.0"/>
      <point x="40.0" y="0.0" type="curve"/>
      <point x="84.0" y="0.0"/>
      <point x="128.0" y="0.0"/>
      <point x="172.0" y="0.0" type="curve"/>
      <point x="172.0" y="22.0"/>
      <point x="172.0" y="0.0"/>
    </contour>
    <contour>
      <point x="172.0" y="722.0" type="curve"/>
      <point x="128.0" y="722.0"/>
      <point x="84.0" y="722.0"/>
      <point x="40.0" y="722.0" type="curve"/>
      <point x="40.0" y="700.0"/>
      <point x="40.0" y="722.0"/>
      <point x="40.0" y="700.0" type="curve"/>
      <point x="172.0" y="700.0"/>
      <point x="40.0" y="700.0"/>
      <point x="172.0" y="700.0" type="curve"/>
      <point x="172.0" y="722.0"/>
      <point x="172.0" y="700.0"/>
    </contour>
    <contour>
      <point x="174.0" y="363.0" type="curve"/>
      <point x="251.0" y="363.0"/>
      <point x="327.0" y="363.0"/>
      <point x="404.0" y="363.0" type="curve"/>
      <point x="404.0" y="385.0"/>
      <point x="404.0" y="363.0"/>
      <point x="404.0" y="385.0" type="curve"/>
      <point x="327.0" y="385.0"/>
      <point x="251.0" y="385.0"/>
      <point x="174.0" y="385.0" type="curve"/>
      <point x="174.0" y="363.0"/>
      <point x="174.0" y="385.0"/>
    </contour>
    <contour>
      <point x="164.0" y="700.0" type="curve"/>
      <point x="259.0" y="700.0"/>
      <point x="353.0" y="700.0"/>
      <point x="448.0" y="700.0" type="curve"/>
      <point x="448.0" y="722.0"/>
      <point x="448.0" y="700.0"/>
      <point x="448.0" y="722.0" type="curve"/>
      <point x="353.0" y="722.0"/>
      <point x="259.0" y="722.0"/>
      <point x="164.0" y="722.0" type="curve"/>
      <point x="164.0" y="700.0"/>
      <point x="164.0" y="722.0"/>
    </contour>
    <contour>
      <point x="184.0" y="0.0" type="curve"/>
      <point x="184.0" y="0.0"/>
      <point x="184.0" y="722.0"/>
      <point x="184.0" y="722.0" type="curve"/>
      <point x="160.0" y="722.0"/>
      <point x="184.0" y="722.0"/>
      <point x="160.0" y="722.0" type="curve"/>
      <point x="160.0" y="481.0"/>
      <point x="160.0" y="241.0"/>
      <point x="160.0" y="0.0" type="curve"/>
      <point x="184.0" y="0.0"/>
      <point x="160.0" y="0.0"/>
    </contour>
    <contour>
      <point x="164.0" y="0.0" type="curve"/>
      <point x="267.0" y="0.0"/>
      <point x="369.0" y="0.0"/>
      <point x="472.0" y="0.0" type="curve"/>
      <point x="472.0" y="22.0"/>
      <point x="472.0" y="0.0"/>
      <point x="472.0" y="22.0" type="curve"/>
      <point x="369.0" y="22.0"/>
      <point x="267.0" y="22.0"/>
      <point x="164.0" y="22.0" type="curve"/>
      <point x="164.0" y="0.0"/>
      <point x="164.0" y="22.0"/>
    </contour>
    <contour>
      <point x="296.0" y="837.0" type="move" name="top"/>
    </contour>
    <contour>
      <point x="456.0" y="14.0" type="move" name="bottom"/>
    </contour>
  </outline>
</glyph>
<glyph name="F" format="1">
  <advance width="502.0"/>
  <unicode hex="0046"/>
  <outline>
    <contour>
      <point x="172.0" y="0.0" type="curve"/>
      <point x="216.0" y="0.0"/>
      <point x="172.0" y="0.0"/>
      <point x="304.0" y="0.0" type="curve"/>
      <point x="304.0" y="22.0"/>
      <point x="304.0" y="0.0"/>
      <point x="304.0" y="22.0" type="curve"/>
      <point x="172.0" y="22.0"/>
      <point x="304.0" y="22.0"/>
      <point x="172.0" y="22.0" type="curve"/>
      <point x="172.0" y="0.0"/>
      <point x="172.0" y="22.0"/>
    </contour>
    <contour>
      <point x="172.0" y="722.0" type="curve"/>
      <point x="128.0" y="722.0"/>
      <point x="84.0" y="722.0"/>
      <point x="40.0" y="722.0" type="curve"/>
      <point x="40.0" y="700.0"/>
      <point x="40.0" y="722.0"/>
      <point x="40.0" y="700.0" type="curve"/>
      <point x="172.0" y="700.0"/>
      <point x="40.0" y="700.0"/>
      <point x="172.0" y="700.0" type="curve"/>
      <point x="172.0" y="722.0"/>
      <point x="172.0" y="700.0"/>
    </contour>
    <contour>
      <point x="172.0" y="22.0" type="curve"/>
      <point x="40.0" y="22.0"/>
      <point x="172.0" y="22.0"/>
      <point x="40.0" y="22.0" type="curve"/>
      <point x="40.0" y="0.0"/>
      <point x="40.0" y="22.0"/>
      <point x="40.0" y="0.0" type="curve"/>
      <point x="84.0" y="0.0"/>
      <point x="128.0" y="0.0"/>
      <point x="172.0" y="0.0" type="curve"/>
      <point x="172.0" y="22.0"/>
      <point x="172.0" y="0.0"/>
    </contour>
    <contour>
      <point x="429.0" y="711.0" type="curve"/>
      <point x="429.0" y="591.0"/>
      <point x="429.0" y="711.0"/>
      <point x="429.0" y="591.0" type="curve"/>
      <point x="451.0" y="591.0"/>
      <point x="429.0" y="591.0"/>
      <point x="451.0" y="591.0" type="curve"/>
      <point x="451.0" y="711.0"/>
      <point x="451.0" y="591.0"/>
      <point x="451.0" y="711.0" type="curve"/>
      <point x="429.0" y="711.0"/>
      <point x="451.0" y="711.0"/>
    </contour>
    <contour>
      <point x="175.0" y="363.0" type="curve"/>
      <point x="250.0" y="363.0"/>
      <point x="325.0" y="363.0"/>
      <point x="400.0" y="363.0" type="curve"/>
      <point x="400.0" y="385.0"/>
      <point x="400.0" y="363.0"/>
      <point x="400.0" y="385.0" type="curve"/>
      <point x="325.0" y="385.0"/>
      <point x="250.0" y="385.0"/>
      <point x="175.0" y="385.0" type="curve"/>
      <point x="175.0" y="363.0"/>
      <point x="175.0" y="385.0"/>
    </contour>
    <contour>
      <point x="184.0" y="0.0" type="curve"/>
      <point x="184.0" y="0.0"/>
      <point x="184.0" y="722.0"/>
      <point x="184.0" y="722.0" type="curve"/>
      <point x="160.0" y="722.0"/>
      <point x="184.0" y="722.0"/>
      <point x="160.0" y="722.0" type="curve"/>
      <point x="160.0" y="481.0"/>
      <point x="160.0" y="241.0"/>
      <point x="160.0" y="0.0" type="curve"/>
      <point x="184.0" y="0.0"/>
      <point x="160.0" y="0.0"/>
    </contour>
    <contour>
      <point x="164.0" y="700.0" type="curve"/>
      <point x="260.0" y="700.0"/>
      <point x="355.0" y="700.0"/>
      <point x="451.0" y="700.0" type="curve"/>
      <point x="451.0" y="722.0"/>
      <point x="451.0" y="700.0"/>
      <point x="451.0" y="722.0" type="curve"/>
      <point x="355.0" y="722.0"/>
      <point x="260.0" y="722.0"/>
      <point x="164.0" y="722.0" type="curve"/>
      <point x="164.0" y="700.0"/>
      <point x="164.0" y="722.0"/>
    </contour>
  </outline>
</glyph>
<glyph name="G" format="1">
  <advance width="576.0"/>
  <unicode hex="0047"/>
  <outline>
    <contour>
      <point x="472.02" y="642.057444444" type="curve"/>
      <point x="472.02" y="522.057444444"/>
      <point x="472.02" y="642.057444444"/>
      <point x="472.02" y="522.057444444" type="curve"/>
      <point x="493.8" y="522.057444444"/>
      <point x="472.02" y="522.057444444"/>
      <point x="493.8" y="522.057444444" type="curve"/>
      <point x="493.8" y="642.057444444"/>
      <point x="493.8" y="522.057444444"/>
      <point x="493.8" y="642.057444444" type="curve"/>
      <point x="472.02" y="642.057444444"/>
      <point x="493.8" y="642.057444444"/>
    </contour>
    <contour>
      <point x="497.9" y="318.897777778" type="curve"/>
      <point x="446.56718" y="318.897777778"/>
      <point x="395.23282" y="318.897777778"/>
      <point x="343.9" y="318.897777778" type="curve"/>
      <point x="343.9" y="297.337777778"/>
      <point x="343.9" y="318.897777778"/>
      <point x="343.9" y="297.337777778" type="curve"/>
      <point x="395.23282" y="297.337777778"/>
      <point x="446.56718" y="297.337777778"/>
      <point x="497.9" y="297.337777778" type="curve"/>
      <point x="497.9" y="318.897777778"/>
      <point x="497.9" y="297.337777778"/>
    </contour>
    <contour>
      <point x="505.7" y="77.0294444444" type="curve"/>
      <point x="505.7" y="157.651415994"/>
      <point x="505.7" y="238.275806228"/>
      <point x="505.7" y="318.897777778" type="curve"/>
      <point x="483.7" y="318.897777778"/>
      <point x="505.7" y="318.897777778"/>
      <point x="483.7" y="318.897777778" type="curve"/>
      <point x="483.7" y="238.275806228"/>
      <point x="483.7" y="157.651415994"/>
      <point x="483.7" y="77.0294444444" type="curve"/>
      <point x="505.7" y="77.0294444444"/>
      <point x="483.7" y="77.0294444444"/>
    </contour>
    <contour>
      <point x="493.8" y="642.057444444" type="curve"/>
      <point x="435.956207866" y="696.360285156"/>
      <point x="377.364385145" y="727.0"/>
      <point x="298.4" y="727.0" type="curve"/>
      <point x="118.527438502" y="727.0"/>
      <point x="64.4" y="570.452071199"/>
      <point x="64.4" y="364.910888889" type="curve"/>
      <point x="64.4" y="154.160184248"/>
      <point x="121.769078737" y="-5.0"/>
      <point x="306.1" y="-5.0" type="curve"/>
      <point x="389.844649112" y="-5.0"/>
      <point x="440.990430612" y="23.7858373802"/>
      <point x="505.7" y="77.0294444444" type="curve"/>
      <point x="491" y="97"/>
      <point x="506" y="77"/>
      <point x="491" y="97" type="curve"/>
      <point x="447" y="55"/>
      <point x="383.0" y="19.0"/>
      <point x="306.0" y="19.0" type="curve"/>
      <point x="135.0" y="19.0"/>
      <point x="88.6" y="171.371084085"/>
      <point x="88.6" y="367.066888889" type="curve"/>
      <point x="88.6" y="554.386938005"/>
      <point x="135.0" y="703.0"/>
      <point x="298.0" y="703.0" type="curve"/>
      <point x="372.0" y="703.0"/>
      <point x="427.339024759" y="673.908813713"/>
      <point x="481.7" y="623.731444444" type="curve"/>
      <point x="493.8" y="642.057444444"/>
      <point x="481.7" y="623.731444444"/>
    </contour>
    <contour>
      <point x="291.0" y="837.0" type="move" name="top"/>
    </contour>
    <contour>
      <point x="313.0" y="15.0" type="move" name="bottom"/>
    </contour>
  </outline>
</glyph>
<glyph name="H" format="1">
  <advance width="697.0"/>
  <unicode hex="0048"/>
  <outline>
    <contour>
      <point x="526.0" y="700.0" type="curve"/>
      <point x="658.0" y="700.0"/>
      <point x="526.0" y="700.0"/>
      <point x="658.0" y="700.0" type="curve"/>
      <point x="658.0" y="722.0"/>
      <point x="658.0" y="700.0"/>
      <point x="658.0" y="722.0" type="curve"/>
      <point x="614.0" y="722.0"/>
      <point x="570.0" y="722.0"/>
      <point x="526.0" y="722.0" type="curve"/>
      <point x="526.0" y="700.0"/>
      <point x="526.0" y="722.0"/>
    </contour>
    <contour>
      <point x="526.0" y="0.0" type="curve"/>
      <point x="570.0" y="0.0"/>
      <point x="614.0" y="0.0"/>
      <point x="658.0" y="0.0" type="curve"/>
      <point x="658.0" y="22.0"/>
      <point x="658.0" y="0.0"/>
      <point x="658.0" y="22.0" type="curve"/>
      <point x="526.0" y="22.0"/>
      <point x="658.0" y="22.0"/>
      <point x="526.0" y="22.0" type="curve"/>
      <point x="526.0" y="0.0"/>
      <point x="526.0" y="22.0"/>
    </contour>
    <contour>
      <point x="526.0" y="22.0" type="curve"/>
      <point x="394.0" y="22.0"/>
      <point x="526.0" y="22.0"/>
      <point x="394.0" y="22.0" type="curve"/>
      <point x="394.0" y="0.0"/>
      <point x="394.0" y="22.0"/>
      <point x="394.0" y="0.0" type="curve"/>
      <point x="438.0" y="0.0"/>
      <point x="482.0" y="0.0"/>
      <point x="526.0" y="0.0" type="curve"/>
      <point x="526.0" y="22.0"/>
      <point x="526.0" y="0.0"/>
    </contour>
    <contour>
      <point x="526.0" y="722.0" type="curve"/>
      <point x="482.0" y="722.0"/>
      <point x="438.0" y="722.0"/>
      <point x="394.0" y="722.0" type="curve"/>
      <point x="394.0" y="700.0"/>
      <point x="394.0" y="722.0"/>
      <point x="394.0" y="700.0" type="curve"/>
      <point x="526.0" y="700.0"/>
      <point x="394.0" y="700.0"/>
      <point x="526.0" y="700.0" type="curve"/>
      <point x="526.0" y="722.0"/>
      <point x="526.0" y="700.0"/>
    </contour>
    <contour>
      <point x="172.0" y="700.0" type="curve"/>
      <point x="304.0" y="700.0"/>
      <point x="172.0" y="700.0"/>
      <point x="304.0" y="700.0" type="curve"/>
      <point x="304.0" y="722.0"/>
      <point x="304.0" y="700.0"/>
      <point x="304.0" y="722.0" type="curve"/>
      <point x="260.0" y="722.0"/>
      <point x="216.0" y="722.0"/>
      <point x="172.0" y="722.0" type="curve"/>
      <point x="172.0" y="700.0"/>
      <point x="172.0" y="722.0"/>
    </contour>
    <contour>
      <point x="172.0" y="722.0" type="curve"/>
      <point x="128.0" y="722.0"/>
      <point x="84.0" y="722.0"/>
      <point x="40.0" y="722.0" type="curve"/>
      <point x="40.0" y="700.0"/>
      <point x="40.0" y="722.0"/>
      <point x="40.0" y="700.0" type="curve"/>
      <point x="172.0" y="700.0"/>
      <point x="40.0" y="700.0"/>
      <point x="172.0" y="700.0" type="curve"/>
      <point x="172.0" y="722.0"/>
      <point x="172.0" y="700.0"/>
    </contour>
    <contour>
      <point x="172.0" y="0.0" type="curve"/>
      <point x="216.0" y="0.0"/>
      <point x="172.0" y="0.0"/>
      <point x="304.0" y="0.0" type="curve"/>
      <point x="304.0" y="22.0"/>
      <point x="304.0" y="0.0"/>
      <point x="304.0" y="22.0" type="curve"/>
      <point x="172.0" y="22.0"/>
      <point x="304.0" y="22.0"/>
      <point x="172.0" y="22.0" type="curve"/>
      <point x="172.0" y="0.0"/>
      <point x="172.0" y="22.0"/>
    </contour>
    <contour>
      <point x="172.0" y="22.0" type="curve"/>
      <point x="40.0" y="22.0"/>
      <point x="172.0" y="22.0"/>
      <point x="40.0" y="22.0" type="curve"/>
      <point x="40.0" y="0.0"/>
      <point x="40.0" y="22.0"/>
      <point x="40.0" y="0.0" type="curve"/>
      <point x="84.0" y="0.0"/>
      <point x="128.0" y="0.0"/>
      <point x="172.0" y="0.0" type="curve"/>
      <point x="172.0" y="22.0"/>
      <point x="172.0" y="0.0"/>
    </contour>
    <contour>
      <point x="184.0" y="0.0" type="curve"/>
      <point x="184.0" y="0.0"/>
      <point x="184.0" y="722.0"/>
      <point x="184.0" y="722.0" type="curve"/>
      <point x="160.0" y="722.0"/>
      <point x="184.0" y="722.0"/>
      <point x="160.0" y="722.0" type="curve"/>
      <point x="160.0" y="481.0"/>
      <point x="160.0" y="241.0"/>
      <point x="160.0" y="0.0" type="curve"/>
      <point x="184.0" y="0.0"/>
      <point x="160.0" y="0.0"/>
    </contour>
    <contour>
      <point x="524.0" y="374.0" type="curve"/>
      <point x="406.0" y="374.0"/>
      <point x="289.0" y="374.0"/>
      <point x="172.0" y="374.0" type="curve"/>
      <point x="172.0" y="352.0"/>
      <point x="172.0" y="374.0"/>
      <point x="172.0" y="352.0" type="curve"/>
      <point x="289.0" y="352.0"/>
      <point x="406.0" y="352.0"/>
      <point x="524.0" y="352.0" type="curve"/>
      <point x="524.0" y="374.0"/>
      <point x="524.0" y="352.0"/>
    </contour>
    <contour>
      <point x="537.0" y="1.0" type="curve"/>
      <point x="537.0" y="241.0"/>
      <point x="537.0" y="481.0"/>
      <point x="537.0" y="721.0" type="curve"/>
      <point x="513.0" y="721.0"/>
      <point x="537.0" y="721.0"/>
      <point x="513.0" y="721.0" type="curve"/>
      <point x="513.0" y="721.0"/>
      <point x="513.0" y="1.0"/>
      <point x="513.0" y="1.0" type="curve"/>
      <point x="537.0" y="1.0"/>
      <point x="513.0" y="1.0"/>
    </contour>
  </outline>
</glyph>
<glyph name="I" format="1">
  <advance width="344.0"/>
  <unicode hex="0049"/>
  <outline>
    <contour>
      <point x="172.0" y="722.0" type="curve"/>
      <point x="128.0" y="722.0"/>
      <point x="84.0" y="722.0"/>
      <point x="40.0" y="722.0" type="curve"/>
      <point x="40.0" y="700.0"/>
      <point x="40.0" y="722.0"/>
      <point x="40.0" y="700.0" type="curve"/>
      <point x="172.0" y="700.0"/>
      <point x="40.0" y="700.0"/>
      <point x="172.0" y="700.0" type="curve"/>
      <point x="172.0" y="722.0"/>
      <point x="172.0" y="700.0"/>
    </contour>
    <contour>
      <point x="172.0" y="700.0" type="curve"/>
      <point x="305.0" y="700.0"/>
      <point x="172.0" y="700.0"/>
      <point x="305.0" y="700.0" type="curve"/>
      <point x="305.0" y="722.0"/>
      <point x="305.0" y="700.0"/>
      <point x="305.0" y="722.0" type="curve"/>
      <point x="260.0" y="722.0"/>
      <point x="216.0" y="722.0"/>
      <point x="172.0" y="722.0" type="curve"/>
      <point x="172.0" y="700.0"/>
      <point x="172.0" y="722.0"/>
    </contour>
    <contour>
      <point x="172.0" y="0.0" type="curve"/>
      <point x="216.0" y="0.0"/>
      <point x="260.0" y="0.0"/>
      <point x="305.0" y="0.0" type="curve"/>
      <point x="305.0" y="22.0"/>
      <point x="305.0" y="0.0"/>
      <point x="305.0" y="22.0" type="curve"/>
      <point x="172.0" y="22.0"/>
      <point x="305.0" y="22.0"/>
      <point x="172.0" y="22.0" type="curve"/>
      <point x="172.0" y="0.0"/>
      <point x="172.0" y="22.0"/>
    </contour>
    <contour>
      <point x="172.0" y="22.0" type="curve"/>
      <point x="40.0" y="22.0"/>
      <point x="172.0" y="22.0"/>
      <point x="40.0" y="22.0" type="curve"/>
      <point x="40.0" y="0.0"/>
      <point x="40.0" y="22.0"/>
      <point x="40.0" y="0.0" type="curve"/>
      <point x="84.0" y="0.0"/>
      <point x="128.0" y="0.0"/>
      <point x="172.0" y="0.0" type="curve"/>
      <point x="172.0" y="22.0"/>
      <point x="172.0" y="0.0"/>
    </contour>
    <contour>
      <point x="184.0" y="0.0" type="curve"/>
      <point x="184.0" y="241.0"/>
      <point x="184.0" y="481.0"/>
      <point x="184.0" y="722.0" type="curve"/>
      <point x="160.0" y="722.0"/>
      <point x="184.0" y="722.0"/>
      <point x="160.0" y="722.0" type="curve"/>
      <point x="160.0" y="481.0"/>
      <point x="160.0" y="241.0"/>
      <point x="160.0" y="0.0" type="curve"/>
      <point x="184.0" y="0.0"/>
      <point x="160.0" y="0.0"/>
    </contour>
    <contour>
      <point x="173.0" y="839.0" type="move" name="top"/>
    </contour>
    <contour>
      <point x="178.0" y="10.0" type="move" name="bottom"/>
    </contour>
  </outline>
</glyph>
<glyph name="J" format="1">
  <advance width="396.0"/>
  <unicode hex="004A"/>
  <outline>
    <contour>
      <point x="238.7" y="722.0" type="curve"/>
      <point x="194.667107" y="722.0"/>
      <point x="150.632893" y="722.0"/>
      <point x="106.6" y="722.0" type="curve"/>
      <point x="106.6" y="700.44"/>
      <point x="106.6" y="722.0"/>
      <point x="106.6" y="700.44" type="curve"/>
      <point x="238.7" y="700.44"/>
      <point x="106.6" y="700.44"/>
      <point x="238.7" y="700.44" type="curve"/>
      <point x="238.7" y="722.0"/>
      <point x="238.7" y="700.44"/>
    </contour>
    <contour>
      <point x="239" y="700" type="curve"/>
      <point x="371" y="700"/>
      <point x="239" y="700"/>
      <point x="371" y="700" type="curve"/>
      <point x="371" y="722"/>
      <point x="371" y="700"/>
      <point x="371" y="722" type="curve"/>
      <point x="327" y="722"/>
      <point x="283" y="722"/>
      <point x="239" y="722" type="curve"/>
      <point x="239" y="700"/>
      <point x="239" y="722"/>
    </contour>
    <contour>
      <point x="31.0" y="38.0" type="curve"/>
      <point x="56" y="14"/>
      <point x="83.0" y="-5.0"/>
      <point x="122.0" y="-5.0" type="curve"/>
      <point x="228.0" y="-5.0"/>
      <point x="250.0" y="83.0"/>
      <point x="250.0" y="214.0" type="curve"/>
      <point x="250.0" y="406.0"/>
      <point x="250.0" y="530.0"/>
      <point x="250.0" y="722.0" type="curve"/>
      <point x="241.0" y="722.0"/>
      <point x="235.0" y="722.0"/>
      <point x="226.0" y="722.0" type="curve"/>
      <point x="226.0" y="530.0"/>
      <point x="226.0" y="406.0"/>
      <point x="226.0" y="214.0" type="curve"/>
      <point x="226.0" y="106.0"/>
      <point x="215.0" y="17.0"/>
      <point x="122.0" y="17.0" type="curve"/>
      <point x="88.0" y="17.0"/>
      <point x="65" y="36"/>
      <point x="44.0" y="55.0" type="curve"/>
      <point x="39.0" y="49.0"/>
      <point x="36.0" y="44.0"/>
    </contour>
  </outline>
</glyph>
<glyph name="K" format="1">
  <advance width="596.0"/>
  <unicode hex="004B"/>
  <outline>
    <contour>
      <point x="475.0" y="22.0" type="curve"/>
      <point x="342.0" y="22.0"/>
      <point x="475" y="22"/>
      <point x="342" y="22" type="curve"/>
      <point x="342" y="0"/>
      <point x="342" y="22"/>
      <point x="342" y="0" type="curve"/>
      <point x="386" y="0"/>
      <point x="430.0" y="0.0"/>
      <point x="473.0" y="0.0" type="curve"/>
      <point x="475.0" y="22.0"/>
      <point x="473.0" y="0.0"/>
    </contour>
    <contour>
      <point x="458.0" y="722.0" type="curve"/>
      <point x="414.0" y="722.0"/>
      <point x="370" y="722"/>
      <point x="326" y="722" type="curve"/>
      <point x="326" y="700"/>
      <point x="326" y="722"/>
      <point x="326" y="700" type="curve"/>
      <point x="458" y="700"/>
      <point x="326.0" y="700.0"/>
      <point x="458.0" y="700.0" type="curve"/>
      <point x="458.0" y="722.0"/>
      <point x="458.0" y="700.0"/>
    </contour>
    <contour>
      <point x="474" y="0" type="curve"/>
      <point x="518" y="0"/>
      <point x="552" y="0"/>
      <point x="596" y="0" type="curve"/>
      <point x="596" y="22"/>
      <point x="596" y="0"/>
      <point x="596" y="22" type="curve"/>
      <point x="464" y="22"/>
      <point x="606" y="22"/>
      <point x="474" y="22" type="curve"/>
      <point x="474" y="0"/>
      <point x="474" y="22"/>
    </contour>
    <contour>
      <point x="458.0" y="700.0" type="curve"/>
      <point x="590.0" y="700.0"/>
      <point x="448" y="700"/>
      <point x="580" y="700" type="curve"/>
      <point x="580" y="722"/>
      <point x="580" y="700"/>
      <point x="580" y="722" type="curve"/>
      <point x="536" y="722"/>
      <point x="502.0" y="722.0"/>
      <point x="458.0" y="722.0" type="curve"/>
      <point x="458.0" y="700.0"/>
      <point x="458.0" y="722.0"/>
    </contour>
    <contour>
      <point x="172.0" y="722.0" type="curve"/>
      <point x="128.0" y="722.0"/>
      <point x="84.0" y="722.0"/>
      <point x="40.0" y="722.0" type="curve"/>
      <point x="40.0" y="700.0"/>
      <point x="40.0" y="722.0"/>
      <point x="40.0" y="700.0" type="curve"/>
      <point x="172.0" y="700.0"/>
      <point x="40.0" y="700.0"/>
      <point x="172.0" y="700.0" type="curve"/>
      <point x="172.0" y="722.0"/>
      <point x="172.0" y="700.0"/>
    </contour>
    <contour>
      <point x="172.0" y="700.0" type="curve"/>
      <point x="304.0" y="700.0"/>
      <point x="152" y="700"/>
      <point x="284" y="700" type="curve"/>
      <point x="284" y="722"/>
      <point x="284" y="700"/>
      <point x="284" y="722" type="curve"/>
      <point x="240" y="722"/>
      <point x="216.0" y="722.0"/>
      <point x="172.0" y="722.0" type="curve"/>
      <point x="172.0" y="700.0"/>
      <point x="172.0" y="722.0"/>
    </contour>
    <contour>
      <point x="172.0" y="0.0" type="curve"/>
      <point x="216.0" y="0.0"/>
      <point x="152" y="0"/>
      <point x="284" y="0" type="curve"/>
      <point x="284" y="22"/>
      <point x="284" y="0"/>
      <point x="284" y="22" type="curve"/>
      <point x="152" y="22"/>
      <point x="304.0" y="22.0"/>
      <point x="172.0" y="22.0" type="curve"/>
      <point x="172.0" y="0.0"/>
      <point x="172.0" y="22.0"/>
    </contour>
    <contour>
      <point x="172.0" y="22.0" type="curve"/>
      <point x="40.0" y="22.0"/>
      <point x="172.0" y="22.0"/>
      <point x="40.0" y="22.0" type="curve"/>
      <point x="40.0" y="0.0"/>
      <point x="40.0" y="22.0"/>
      <point x="40.0" y="0.0" type="curve"/>
      <point x="84.0" y="0.0"/>
      <point x="128.0" y="0.0"/>
      <point x="172.0" y="0.0" type="curve"/>
      <point x="172.0" y="22.0"/>
      <point x="172.0" y="0.0"/>
    </contour>
    <contour>
      <point x="451.0" y="722.0" type="curve"/>
      <point x="357.0" y="608.0"/>
      <point x="263.0" y="494.0"/>
      <point x="169.0" y="380.0" type="curve"/>
      <point x="203.0" y="380.0"/>
      <point x="164.0" y="380.0"/>
      <point x="198.0" y="380.0" type="curve"/>
      <point x="293.0" y="494.0"/>
      <point x="390.0" y="608.0"/>
      <point x="486.0" y="722.0" type="curve"/>
      <point x="446.0" y="722.0"/>
      <point x="491.0" y="722.0"/>
    </contour>
    <contour>
      <point x="184.0" y="0.0" type="curve"/>
      <point x="184.0" y="0.0"/>
      <point x="184.0" y="722.0"/>
      <point x="184.0" y="722.0" type="curve"/>
      <point x="160.0" y="722.0"/>
      <point x="184.0" y="722.0"/>
      <point x="160.0" y="722.0" type="curve"/>
      <point x="160.0" y="481.0"/>
      <point x="160.0" y="241.0"/>
      <point x="160.0" y="0.0" type="curve"/>
      <point x="184.0" y="0.0"/>
      <point x="160.0" y="0.0"/>
    </contour>
    <contour>
      <point x="503.0" y="0.0" type="curve"/>
      <point x="401.0" y="127.0"/>
      <point x="299.0" y="253.0"/>
      <point x="198.0" y="380.0" type="curve"/>
      <point x="164.0" y="380.0"/>
      <point x="203.0" y="380.0"/>
      <point x="169.0" y="380.0" type="curve"/>
      <point x="268.0" y="254.0"/>
      <point x="367.0" y="126.0"/>
      <point x="467.0" y="0.0" type="curve"/>
      <point x="508.0" y="0.0"/>
      <point x="462.0" y="0.0"/>
    </contour>
    <contour>
      <point x="337.0" y="15.0" type="move" name="bottom"/>
    </contour>
  </outline>
</glyph>
<glyph name="L" format="1">
  <advance width="507.0"/>
  <unicode hex="004C"/>
  <outline>
    <contour>
      <point x="467.0" y="11.0" type="curve"/>
      <point x="467.0" y="131.0"/>
      <point x="467.0" y="11.0"/>
      <point x="467.0" y="131.0" type="curve"/>
      <point x="445.0" y="131.0"/>
      <point x="467.0" y="131.0"/>
      <point x="445.0" y="131.0" type="curve"/>
      <point x="445.0" y="11.0"/>
      <point x="445.0" y="131.0"/>
      <point x="445.0" y="11.0" type="curve"/>
      <point x="467.0" y="11.0"/>
      <point x="445.0" y="11.0"/>
    </contour>
    <contour>
      <point x="171.0" y="22.0" type="curve"/>
      <point x="39.0" y="22.0"/>
      <point x="171.0" y="22.0"/>
      <point x="39.0" y="22.0" type="curve"/>
      <point x="39.0" y="0.0"/>
      <point x="39.0" y="22.0"/>
      <point x="39.0" y="0.0" type="curve"/>
      <point x="83.0" y="0.0"/>
      <point x="127.0" y="0.0"/>
      <point x="171.0" y="0.0" type="curve"/>
      <point x="171.0" y="22.0"/>
      <point x="171.0" y="0.0"/>
    </contour>
    <contour>
      <point x="171.0" y="722.0" type="curve"/>
      <point x="127.0" y="722.0"/>
      <point x="83.0" y="722.0"/>
      <point x="39.0" y="722.0" type="curve"/>
      <point x="39.0" y="700.0"/>
      <point x="39.0" y="722.0"/>
      <point x="39.0" y="700.0" type="curve"/>
      <point x="171.0" y="700.0"/>
      <point x="39.0" y="700.0"/>
      <point x="171.0" y="700.0" type="curve"/>
      <point x="171.0" y="722.0"/>
      <point x="171.0" y="700.0"/>
    </contour>
    <contour>
      <point x="171.0" y="700.0" type="curve"/>
      <point x="303.0" y="700.0"/>
      <point x="171.0" y="700.0"/>
      <point x="303.0" y="700.0" type="curve"/>
      <point x="303.0" y="722.0"/>
      <point x="303.0" y="700.0"/>
      <point x="303.0" y="722.0" type="curve"/>
      <point x="259.0" y="722.0"/>
      <point x="215.0" y="722.0"/>
      <point x="171.0" y="722.0" type="curve"/>
      <point x="171.0" y="700.0"/>
      <point x="171.0" y="722.0"/>
    </contour>
    <contour>
      <point x="184.0" y="0.0" type="curve"/>
      <point x="184.0" y="241.0"/>
      <point x="184.0" y="481.0"/>
      <point x="184.0" y="722.0" type="curve"/>
      <point x="160.0" y="722.0"/>
      <point x="184.0" y="722.0"/>
      <point x="160.0" y="722.0" type="curve"/>
      <point x="160.0" y="481.0"/>
      <point x="160.0" y="241.0"/>
      <point x="160.0" y="0.0" type="curve"/>
      <point x="184.0" y="0.0"/>
      <point x="160.0" y="0.0"/>
    </contour>
    <contour>
      <point x="171.0" y="0.0" type="curve"/>
      <point x="270.0" y="0.0"/>
      <point x="368.0" y="0.0"/>
      <point x="467.0" y="0.0" type="curve"/>
      <point x="467.0" y="22.0"/>
      <point x="467.0" y="0.0"/>
      <point x="467.0" y="22.0" type="curve"/>
      <point x="368.0" y="22.0"/>
      <point x="270.0" y="22.0"/>
      <point x="171.0" y="22.0" type="curve"/>
      <point x="171.0" y="0.0"/>
      <point x="171.0" y="22.0"/>
    </contour>
    <contour>
      <point x="170.0" y="838.0" type="move" name="top"/>
    </contour>
    <contour>
      <point x="292.0" y="15.0" type="move" name="bottom"/>
    </contour>
  </outline>
</glyph>
<glyph name="M" format="1">
  <advance width="798.0"/>
  <unicode hex="004D"/>
  <outline>
    <contour>
      <point x="641.0" y="0.0" type="curve"/>
      <point x="685.0" y="0.0"/>
      <point x="729.0" y="0.0"/>
      <point x="773.0" y="0.0" type="curve"/>
      <point x="773.0" y="22.0"/>
      <point x="773.0" y="0.0"/>
      <point x="773.0" y="22.0" type="curve"/>
      <point x="641.0" y="22.0"/>
      <point x="773.0" y="22.0"/>
      <point x="641.0" y="22.0" type="curve"/>
      <point x="641.0" y="0.0"/>
      <point x="641.0" y="22.0"/>
    </contour>
    <contour>
      <point x="641.0" y="22.0" type="curve"/>
      <point x="508.0" y="22.0"/>
      <point x="641.0" y="22.0"/>
      <point x="508.0" y="22.0" type="curve"/>
      <point x="508.0" y="0.0"/>
      <point x="508.0" y="22.0"/>
      <point x="508.0" y="0.0" type="curve"/>
      <point x="552.0" y="0.0"/>
      <point x="596.0" y="0.0"/>
      <point x="641.0" y="0.0" type="curve"/>
      <point x="641.0" y="22.0"/>
      <point x="641.0" y="0.0"/>
    </contour>
    <contour>
      <point x="158.0" y="22.0" type="curve"/>
      <point x="26.0" y="22.0"/>
      <point x="158.0" y="22.0"/>
      <point x="26.0" y="22.0" type="curve"/>
      <point x="26.0" y="0.0"/>
      <point x="26.0" y="22.0"/>
      <point x="26.0" y="0.0" type="curve"/>
      <point x="70.0" y="0.0"/>
      <point x="114.0" y="0.0"/>
      <point x="158.0" y="0.0" type="curve"/>
      <point x="158.0" y="22.0"/>
      <point x="158.0" y="0.0"/>
    </contour>
    <contour>
      <point x="200.0" y="722.0" type="curve"/>
      <point x="155.0" y="722.0"/>
      <point x="111.0" y="722.0"/>
      <point x="67.0" y="722.0" type="curve"/>
      <point x="67.0" y="700.0"/>
      <point x="67.0" y="722.0"/>
      <point x="67.0" y="700.0" type="curve"/>
      <point x="200.0" y="700.0"/>
      <point x="67.0" y="700.0"/>
      <point x="200.0" y="700.0" type="curve"/>
      <point x="200.0" y="722.0"/>
      <point x="200.0" y="700.0"/>
    </contour>
    <contour>
      <point x="598.0" y="700.0" type="curve"/>
      <point x="730.0" y="700.0"/>
      <point x="598.0" y="700.0"/>
      <point x="730.0" y="700.0" type="curve"/>
      <point x="730.0" y="722.0"/>
      <point x="730.0" y="700.0"/>
      <point x="730.0" y="722.0" type="curve"/>
      <point x="686.0" y="722.0"/>
      <point x="642.0" y="722.0"/>
      <point x="598.0" y="722.0" type="curve"/>
      <point x="598.0" y="700.0"/>
      <point x="598.0" y="722.0"/>
    </contour>
    <contour>
      <point x="158.0" y="0.0" type="curve"/>
      <point x="202.0" y="0.0"/>
      <point x="158.0" y="0.0"/>
      <point x="290.0" y="0.0" type="curve"/>
      <point x="290.0" y="22.0"/>
      <point x="290.0" y="0.0"/>
      <point x="290.0" y="22.0" type="curve"/>
      <point x="158.0" y="22.0"/>
      <point x="290.0" y="22.0"/>
      <point x="158.0" y="22.0" type="curve"/>
      <point x="158.0" y="0.0"/>
      <point x="158.0" y="22.0"/>
    </contour>
    <contour>
      <point x="652.0" y="0.0" type="curve"/>
      <point x="637.0" y="241.0"/>
      <point x="623.0" y="481.0"/>
      <point x="608.0" y="722.0" type="curve"/>
      <point x="586.0" y="722.0"/>
      <point x="608.0" y="722.0"/>
      <point x="586.0" y="722.0" type="curve"/>
      <point x="600.0" y="481.0"/>
      <point x="614.0" y="241.0"/>
      <point x="628.0" y="0.0" type="curve"/>
      <point x="652.0" y="0.0"/>
      <point x="628.0" y="0.0"/>
    </contour>
    <contour>
      <point x="170.0" y="0.0" type="curve"/>
      <point x="183.0" y="241.0"/>
      <point x="196.0" y="481.0"/>
      <point x="209.0" y="722.0" type="curve"/>
      <point x="187.0" y="722.0"/>
      <point x="209.0" y="722.0"/>
      <point x="187.0" y="722.0" type="curve"/>
      <point x="173.0" y="481.0"/>
      <point x="159.0" y="241.0"/>
      <point x="145.0" y="0.0" type="curve"/>
      <point x="170.0" y="0.0"/>
      <point x="145.0" y="0.0"/>
    </contour>
    <contour>
      <point x="408.0" y="0.0" type="curve"/>
      <point x="342.0" y="241.0"/>
      <point x="276.0" y="481.0"/>
      <point x="211.0" y="722.0" type="curve"/>
      <point x="188.0" y="722.0"/>
      <point x="211.0" y="722.0"/>
      <point x="188.0" y="722.0" type="curve"/>
      <point x="254.0" y="481.0"/>
      <point x="319.0" y="241.0"/>
      <point x="384.0" y="0.0" type="curve"/>
      <point x="408.0" y="0.0"/>
      <point x="384.0" y="0.0"/>
    </contour>
    <contour>
      <point x="415.0" y="0.0" type="curve"/>
      <point x="479.0" y="241.0"/>
      <point x="543.0" y="481.0"/>
      <point x="607.0" y="722.0" type="curve"/>
      <point x="585.0" y="722.0"/>
      <point x="607.0" y="722.0"/>
      <point x="585.0" y="722.0" type="curve"/>
      <point x="520.0" y="481.0"/>
      <point x="455.0" y="241.0"/>
      <point x="390.0" y="0.0" type="curve"/>
      <point x="415.0" y="0.0"/>
      <point x="390.0" y="0.0"/>
    </contour>
  </outline>
</glyph>
<glyph name="N" format="1">
  <advance width="706.0"/>
  <unicode hex="004E"/>
  <outline>
    <contour>
      <point x="173.0" y="722.0" type="curve"/>
      <point x="129.0" y="722.0"/>
      <point x="85.0" y="722.0"/>
      <point x="41.0" y="722.0" type="curve"/>
      <point x="41.0" y="700.0"/>
      <point x="41.0" y="722.0"/>
      <point x="41.0" y="700.0" type="curve"/>
      <point x="173.0" y="700.0"/>
      <point x="41.0" y="700.0"/>
      <point x="173.0" y="700.0" type="curve"/>
      <point x="173.0" y="722.0"/>
      <point x="173.0" y="700.0"/>
    </contour>
    <contour>
      <point x="551.0" y="700.0" type="curve"/>
      <point x="683.0" y="700.0"/>
      <point x="551.0" y="700.0"/>
      <point x="683.0" y="700.0" type="curve"/>
      <point x="683.0" y="722.0"/>
      <point x="683.0" y="700.0"/>
      <point x="683.0" y="722.0" type="curve"/>
      <point x="639.0" y="722.0"/>
      <point x="595.0" y="722.0"/>
      <point x="551.0" y="722.0" type="curve"/>
      <point x="551.0" y="700.0"/>
      <point x="551.0" y="722.0"/>
    </contour>
    <contour>
      <point x="551.0" y="722.0" type="curve"/>
      <point x="507.0" y="722.0"/>
      <point x="463.0" y="722.0"/>
      <point x="419.0" y="722.0" type="curve"/>
      <point x="419.0" y="700.0"/>
      <point x="419.0" y="722.0"/>
      <point x="419.0" y="700.0" type="curve"/>
      <point x="551.0" y="700.0"/>
      <point x="419.0" y="700.0"/>
      <point x="551.0" y="700.0" type="curve"/>
      <point x="551.0" y="722.0"/>
      <point x="551.0" y="700.0"/>
    </contour>
    <contour>
      <point x="172.0" y="22.0" type="curve"/>
      <point x="40.0" y="22.0"/>
      <point x="172.0" y="22.0"/>
      <point x="40.0" y="22.0" type="curve"/>
      <point x="40.0" y="0.0"/>
      <point x="40.0" y="22.0"/>
      <point x="40.0" y="0.0" type="curve"/>
      <point x="84.0" y="0.0"/>
      <point x="128.0" y="0.0"/>
      <point x="172.0" y="0.0" type="curve"/>
      <point x="172.0" y="22.0"/>
      <point x="172.0" y="0.0"/>
    </contour>
    <contour>
      <point x="172.0" y="0.0" type="curve"/>
      <point x="216.0" y="0.0"/>
      <point x="172.0" y="0.0"/>
      <point x="304.0" y="0.0" type="curve"/>
      <point x="304.0" y="22.0"/>
      <point x="304.0" y="0.0"/>
      <point x="304.0" y="22.0" type="curve"/>
      <point x="172.0" y="22.0"/>
      <point x="304.0" y="22.0"/>
      <point x="172.0" y="22.0" type="curve"/>
      <point x="172.0" y="0.0"/>
      <point x="172.0" y="22.0"/>
    </contour>
    <contour>
      <point x="562.0" y="0.0" type="curve"/>
      <point x="437.0" y="241.0"/>
      <point x="312.0" y="481.0"/>
      <point x="187.0" y="722.0" type="curve"/>
      <point x="158.0" y="722.0"/>
      <point x="188.0" y="722.0"/>
      <point x="159.0" y="722.0" type="curve"/>
      <point x="284.0" y="481.0"/>
      <point x="409.0" y="241.0"/>
      <point x="534.0" y="0.0" type="curve"/>
      <point x="563.0" y="0.0"/>
      <point x="533.0" y="0.0"/>
    </contour>
    <contour>
      <point x="538.0" y="722.0" type="curve"/>
      <point x="538.0" y="481.0"/>
      <point x="538.0" y="241.0"/>
      <point x="538.0" y="0.0" type="curve"/>
      <point x="562.0" y="0.0"/>
      <point x="538.0" y="0.0"/>
      <point x="562.0" y="0.0" type="curve"/>
      <point x="562.0" y="241.0"/>
      <point x="562.0" y="481.0"/>
      <point x="562.0" y="722.0" type="curve"/>
      <point x="538.0" y="722.0"/>
      <point x="562.0" y="722.0"/>
    </contour>
    <contour>
      <point x="184.0" y="0.0" type="curve"/>
      <point x="184.0" y="241.0"/>
      <point x="184.0" y="481.0"/>
      <point x="184.0" y="722.0" type="curve"/>
      <point x="160.0" y="722.0"/>
      <point x="184.0" y="722.0"/>
      <point x="160.0" y="722.0" type="curve"/>
      <point x="160.0" y="481.0"/>
      <point x="160.0" y="241.0"/>
      <point x="160.0" y="0.0" type="curve"/>
      <point x="184.0" y="0.0"/>
      <point x="160.0" y="0.0"/>
    </contour>
    <contour>
      <point x="373.0" y="839.0" type="move" name="top"/>
    </contour>
    <contour>
      <point x="360.0" y="15.0" type="move" name="bottom"/>
    </contour>
  </outline>
</glyph>
<glyph name="P" format="1">
  <advance width="495.0"/>
  <unicode hex="0050"/>
  <outline>
    <contour>
      <point x="173.0" y="722.0" type="curve"/>
      <point x="129.0" y="722.0"/>
      <point x="85.0" y="722.0"/>
      <point x="41.0" y="722.0" type="curve"/>
      <point x="41.0" y="700.0"/>
      <point x="41.0" y="722.0"/>
      <point x="41.0" y="700.0" type="curve"/>
      <point x="173.0" y="700.0"/>
      <point x="41.0" y="700.0"/>
      <point x="173.0" y="700.0" type="curve"/>
      <point x="173.0" y="722.0"/>
      <point x="173.0" y="700.0"/>
    </contour>
    <contour>
      <point x="173.0" y="22.0" type="curve"/>
      <point x="41.0" y="22.0"/>
      <point x="173.0" y="22.0"/>
      <point x="41.0" y="22.0" type="curve"/>
      <point x="41.0" y="0.0"/>
      <point x="41.0" y="22.0"/>
      <point x="41.0" y="0.0" type="curve"/>
      <point x="85.0" y="0.0"/>
      <point x="129.0" y="0.0"/>
      <point x="173.0" y="0.0" type="curve"/>
      <point x="173.0" y="22.0"/>
      <point x="173.0" y="0.0"/>
    </contour>
    <contour>
      <point x="173.0" y="0.0" type="curve"/>
      <point x="217.0" y="0.0"/>
      <point x="173.0" y="0.0"/>
      <point x="305.0" y="0.0" type="curve"/>
      <point x="305.0" y="22.0"/>
      <point x="305.0" y="0.0"/>
      <point x="305.0" y="22.0" type="curve"/>
      <point x="173.0" y="22.0"/>
      <point x="305.0" y="22.0"/>
      <point x="173.0" y="22.0" type="curve"/>
      <point x="173.0" y="0.0"/>
      <point x="173.0" y="22.0"/>
    </contour>
    <contour>
      <point x="170.0" y="325.0" type="curve"/>
      <point x="202.0" y="300.0"/>
      <point x="238.0" y="280.0"/>
      <point x="281.0" y="280.0" type="curve"/>
      <point x="389.0" y="282.0"/>
      <point x="438.0" y="369.0"/>
      <point x="438.0" y="494.0" type="curve"/>
      <point x="438.0" y="621.0"/>
      <point x="382.0" y="722.0"/>
      <point x="265.0" y="722.0" type="curve"/>
      <point x="235.0" y="722.0"/>
      <point x="205.0" y="722.0"/>
      <point x="175.0" y="722.0" type="curve"/>
      <point x="175.0" y="700.0"/>
      <point x="175.0" y="722.0"/>
      <point x="175.0" y="700.0" type="curve"/>
      <point x="204.0" y="700.0"/>
      <point x="233.0" y="700.0"/>
      <point x="262.0" y="700.0" type="curve"/>
      <point x="367.0" y="700.0"/>
      <point x="414.0" y="608.0"/>
      <point x="414.0" y="493.0" type="curve"/>
      <point x="414.0" y="388.0"/>
      <point x="375.0" y="303.0"/>
      <point x="282.0" y="303.0" type="curve"/>
      <point x="239.0" y="303.0"/>
      <point x="212.0" y="320.0"/>
      <point x="178.0" y="346.0" type="curve"/>
      <point x="170.0" y="326.0"/>
      <point x="178.0" y="345.0"/>
    </contour>
    <contour>
      <point x="184.0" y="0.0" type="curve"/>
      <point x="184.0" y="241.0"/>
      <point x="184.0" y="481.0"/>
      <point x="184.0" y="722.0" type="curve"/>
      <point x="160.0" y="722.0"/>
      <point x="184.0" y="722.0"/>
      <point x="160.0" y="722.0" type="curve"/>
      <point x="160.0" y="481.0"/>
      <point x="160.0" y="241.0"/>
      <point x="160.0" y="0.0" type="curve"/>
      <point x="184.0" y="0.0"/>
      <point x="160.0" y="0.0"/>
    </contour>
  </outline>
</glyph>
<glyph name="R" format="1">
  <advance width="599.0"/>
  <unicode hex="0052"/>
  <outline>
    <contour>
      <point x="486.0" y="0.0" type="curve"/>
      <point x="530.0" y="0.0"/>
      <point x="574.0" y="0.0"/>
      <point x="619.0" y="0.0" type="curve"/>
      <point x="619.0" y="22.0"/>
      <point x="619.0" y="0.0"/>
      <point x="619.0" y="22.0" type="curve"/>
      <point x="486.0" y="22.0"/>
      <point x="619.0" y="22.0"/>
      <point x="486.0" y="22.0" type="curve"/>
      <point x="486.0" y="0.0"/>
      <point x="486.0" y="22.0"/>
    </contour>
    <contour>
      <point x="171.0" y="722.0" type="curve"/>
      <point x="127.0" y="722.0"/>
      <point x="83.0" y="722.0"/>
      <point x="39.0" y="722.0" type="curve"/>
      <point x="39.0" y="700.0"/>
      <point x="39.0" y="722.0"/>
      <point x="39.0" y="700.0" type="curve"/>
      <point x="171.0" y="700.0"/>
      <point x="39.0" y="700.0"/>
      <point x="171.0" y="700.0" type="curve"/>
      <point x="171.0" y="722.0"/>
      <point x="171.0" y="700.0"/>
    </contour>
    <contour>
      <point x="171.0" y="22.0" type="curve"/>
      <point x="39.0" y="22.0"/>
      <point x="171.0" y="22.0"/>
      <point x="39.0" y="22.0" type="curve"/>
      <point x="39.0" y="0.0"/>
      <point x="39.0" y="22.0"/>
      <point x="39.0" y="0.0" type="curve"/>
      <point x="83.0" y="0.0"/>
      <point x="127.0" y="0.0"/>
      <point x="171.0" y="0.0" type="curve"/>
      <point x="171.0" y="22.0"/>
      <point x="171.0" y="0.0"/>
    </contour>
    <contour>
      <point x="171.0" y="0.0" type="curve"/>
      <point x="215.0" y="0.0"/>
      <point x="171.0" y="0.0"/>
      <point x="304.0" y="0.0" type="curve"/>
      <point x="304.0" y="22.0"/>
      <point x="304.0" y="0.0"/>
      <point x="304.0" y="22.0" type="curve"/>
      <point x="171.0" y="22.0"/>
      <point x="304.0" y="22.0"/>
      <point x="171.0" y="22.0" type="curve"/>
      <point x="171.0" y="0.0"/>
      <point x="171.0" y="22.0"/>
    </contour>
    <contour>
      <point x="302.0" y="354.0" type="curve"/>
      <point x="362.0" y="236.0"/>
      <point x="422.0" y="118.0"/>
      <point x="481.0" y="0.0" type="curve"/>
      <point x="510.0" y="0.0"/>
      <point x="479" y="0"/>
      <point x="508" y="0" type="curve"/>
      <point x="449" y="118"/>
      <point x="389" y="236"/>
      <point x="329" y="354" type="curve"/>
      <point x="300" y="354"/>
      <point x="331.0" y="354.0"/>
    </contour>
    <contour>
      <point x="184.0" y="0.0" type="curve"/>
      <point x="184.0" y="241.0"/>
      <point x="184.0" y="481.0"/>
      <point x="184.0" y="722.0" type="curve"/>
      <point x="160.0" y="722.0"/>
      <point x="184.0" y="722.0"/>
      <point x="160.0" y="722.0" type="curve"/>
      <point x="160.0" y="481.0"/>
      <point x="160.0" y="241.0"/>
      <point x="160.0" y="0.0" type="curve"/>
      <point x="184.0" y="0.0"/>
      <point x="160.0" y="0.0"/>
    </contour>
    <contour>
      <point x="174.0" y="340.0" type="curve"/>
      <point x="213.0" y="340.0"/>
      <point x="252.0" y="340.0"/>
      <point x="292.0" y="340.0" type="curve"/>
      <point x="400.0" y="340.0"/>
      <point x="450.0" y="420.0"/>
      <point x="450.0" y="537.0" type="curve"/>
      <point x="450.0" y="650.0"/>
      <point x="397.0" y="722.0"/>
      <point x="289.0" y="722.0" type="curve"/>
      <point x="247.0" y="722.0"/>
      <point x="215.0" y="722.0"/>
      <point x="174.0" y="722.0" type="curve"/>
      <point x="174.0" y="700.0"/>
      <point x="174.0" y="722.0"/>
      <point x="174.0" y="700.0" type="curve"/>
      <point x="214.0" y="700.0"/>
      <point x="244.0" y="700.0"/>
      <point x="285.0" y="700.0" type="curve"/>
      <point x="380.0" y="700.0"/>
      <point x="425.0" y="635.0"/>
      <point x="425.0" y="535.0" type="curve"/>
      <point x="425.0" y="434.0"/>
      <point x="387.0" y="362.0"/>
      <point x="295.0" y="362.0" type="curve"/>
      <point x="255.0" y="362.0"/>
      <point x="214.0" y="362.0"/>
      <point x="174.0" y="362.0" type="curve"/>
      <point x="174.0" y="340.0"/>
      <point x="174.0" y="362.0"/>
    </contour>
    <contour>
      <point x="256.0" y="837.0" type="move" name="top"/>
    </contour>
    <contour>
      <point x="331.0" y="15.0" type="move" name="bottom"/>
    </contour>
  </outline>
</glyph>
<glyph name="T" format="1">
  <advance width="530.0"/>
  <unicode hex="0054"/>
  <outline>
    <contour>
      <point x="48.2" y="710.222222222" type="curve"/>
      <point x="48.2" y="590.222222222"/>
      <point x="48.2" y="710.222222222"/>
      <point x="48.2" y="590.222222222" type="curve"/>
      <point x="69.98" y="590.222222222"/>
      <point x="48.2" y="590.222222222"/>
      <point x="69.98" y="590.222222222" type="curve"/>
      <point x="69.98" y="710.222222222"/>
      <point x="69.98" y="590.222222222"/>
      <point x="69.98" y="710.222222222" type="curve"/>
      <point x="48.2" y="710.222222222"/>
      <point x="69.98" y="710.222222222"/>
    </contour>
    <contour>
      <point x="460.42" y="710.222222222" type="curve"/>
      <point x="460.42" y="590.222222222"/>
      <point x="460.42" y="710.222222222"/>
      <point x="460.42" y="590.222222222" type="curve"/>
      <point x="482.2" y="590.222222222"/>
      <point x="460.42" y="590.222222222"/>
      <point x="482.2" y="590.222222222" type="curve"/>
      <point x="482.2" y="710.222222222"/>
      <point x="482.2" y="590.222222222"/>
      <point x="482.2" y="710.222222222" type="curve"/>
      <point x="460.42" y="710.222222222"/>
      <point x="482.2" y="710.222222222"/>
    </contour>
    <contour>
      <point x="264.5" y="0.0" type="curve"/>
      <point x="308.532893" y="0.0"/>
      <point x="352.567107" y="0.0"/>
      <point x="396.6" y="0.0" type="curve"/>
      <point x="396.6" y="21.56"/>
      <point x="396.6" y="0.0"/>
      <point x="396.6" y="21.56" type="curve"/>
      <point x="264.5" y="21.56"/>
      <point x="396.6" y="21.56"/>
      <point x="264.5" y="21.56" type="curve"/>
      <point x="264.5" y="0.0"/>
      <point x="264.5" y="21.56"/>
    </contour>
    <contour>
      <point x="264.5" y="21.56" type="curve"/>
      <point x="132.4" y="21.56"/>
      <point x="264.5" y="21.56"/>
      <point x="132.4" y="21.56" type="curve"/>
      <point x="132.4" y="0.0"/>
      <point x="132.4" y="21.56"/>
      <point x="132.4" y="0.0" type="curve"/>
      <point x="176.432893" y="-5.3922960545e-15"/>
      <point x="220.467107" y="5.3922960545e-15"/>
      <point x="264.5" y="0.0" type="curve"/>
      <point x="264.5" y="21.56"/>
      <point x="264.5" y="0.0"/>
    </contour>
    <contour>
      <point x="277.3" y="0.0" type="curve"/>
      <point x="277.3" y="236.6643"/>
      <point x="277.3" y="473.3357"/>
      <point x="277.3" y="710.0" type="curve"/>
      <point x="253.1" y="710.0"/>
      <point x="277.3" y="710.0"/>
      <point x="253.1" y="710.0" type="curve"/>
      <point x="253.1" y="473.3357"/>
      <point x="253.1" y="236.6643"/>
      <point x="253.1" y="1.45213821436e-15" type="curve"/>
      <point x="277.3" y="0.0"/>
      <point x="253.1" y="1.45213821436e-15"/>
    </contour>
    <contour>
      <point x="48.2" y="698.364222222" type="curve"/>
      <point x="192.86522" y="698.364222222"/>
      <point x="337.53478" y="698.364222222"/>
      <point x="482.2" y="698.364222222" type="curve"/>
      <point x="482.2" y="722.080222222"/>
      <point x="482.2" y="698.364222222"/>
      <point x="482.2" y="722.080222222" type="curve"/>
      <point x="337.53478" y="722.080222222"/>
      <point x="192.86522" y="722.080222222"/>
      <point x="48.2" y="722.080222222" type="curve"/>
      <point x="48.2" y="698.364222222"/>
      <point x="48.2" y="722.080222222"/>
    </contour>
    <contour>
      <point x="263.0" y="839.0" type="move" name="top"/>
    </contour>
    <contour>
      <point x="277.0" y="15.0" type="move" name="bottom"/>
    </contour>
  </outline>
</glyph>
<glyph name="V" format="1">
  <advance width="607.0"/>
  <unicode hex="0056"/>
  <outline>
    <contour>
      <point x="492.0" y="722.0" type="curve"/>
      <point x="447.0" y="722.0"/>
      <point x="401.0" y="722.0"/>
      <point x="355.0" y="722.0" type="curve"/>
      <point x="355.0" y="700.0"/>
      <point x="355.0" y="722.0"/>
      <point x="355.0" y="700.0" type="curve"/>
      <point x="492.0" y="700.0"/>
      <point x="355.0" y="700.0"/>
      <point x="492.0" y="700.0" type="curve"/>
      <point x="492.0" y="722.0"/>
      <point x="492.0" y="700.0"/>
    </contour>
    <contour>
      <point x="113.0" y="722.0" type="curve"/>
      <point x="69.0" y="722.0"/>
      <point x="25.0" y="722.0"/>
      <point x="-19.0" y="722.0" type="curve"/>
      <point x="-19.0" y="700.0"/>
      <point x="-19.0" y="722.0"/>
      <point x="-19.0" y="700.0" type="curve"/>
      <point x="113.0" y="700.0"/>
      <point x="-19.0" y="700.0"/>
      <point x="113.0" y="700.0" type="curve"/>
      <point x="113.0" y="722.0"/>
      <point x="113.0" y="700.0"/>
    </contour>
    <contour>
      <point x="492.0" y="700.0" type="curve"/>
      <point x="625.0" y="700.0"/>
      <point x="492.0" y="700.0"/>
      <point x="625.0" y="700.0" type="curve"/>
      <point x="625.0" y="722.0"/>
      <point x="625.0" y="700.0"/>
      <point x="625.0" y="722.0" type="curve"/>
      <point x="580.0" y="722.0"/>
      <point x="536.0" y="722.0"/>
      <point x="492.0" y="722.0" type="curve"/>
      <point x="492.0" y="700.0"/>
      <point x="492.0" y="722.0"/>
    </contour>
    <contour>
      <point x="113.0" y="700.0" type="curve"/>
      <point x="251.0" y="700.0"/>
      <point x="113.0" y="700.0"/>
      <point x="251.0" y="700.0" type="curve"/>
      <point x="251.0" y="722.0"/>
      <point x="251.0" y="700.0"/>
      <point x="251.0" y="722.0" type="curve"/>
      <point x="205.0" y="722.0"/>
      <point x="159.0" y="722.0"/>
      <point x="113.0" y="722.0" type="curve"/>
      <point x="113.0" y="700.0"/>
      <point x="113.0" y="722.0"/>
    </contour>
    <contour>
      <point x="488.0" y="722.0" type="curve"/>
      <point x="423.0" y="481.0"/>
      <point x="358.0" y="241.0"/>
      <point x="293.0" y="0.0" type="curve"/>
      <point x="320.0" y="0.0"/>
      <point x="293.0" y="0.0"/>
      <point x="320.0" y="0.0" type="curve"/>
      <point x="385.0" y="241.0"/>
      <point x="449.0" y="481.0"/>
      <point x="514.0" y="722.0" type="curve"/>
      <point x="488.0" y="722.0"/>
      <point x="514.0" y="722.0"/>
    </contour>
    <contour>
      <point x="91.0" y="722.0" type="curve"/>
      <point x="157.0" y="481.0"/>
      <point x="223.0" y="241.0"/>
      <point x="289.0" y="0.0" type="curve"/>
      <point x="316.0" y="0.0"/>
      <point x="289.0" y="0.0"/>
      <point x="316.0" y="0.0" type="curve"/>
      <point x="250.0" y="241.0"/>
      <point x="184.0" y="481.0"/>
      <point x="119.0" y="722.0" type="curve"/>
      <point x="91.0" y="722.0"/>
      <point x="119.0" y="722.0"/>
    </contour>
  </outline>
</glyph>
<glyph name="W" format="1">
  <advance width="759.0"/>
  <unicode hex="0057"/>
  <outline>
    <contour>
      <point x="124.0" y="700.0" type="curve"/>
      <point x="257.0" y="700.0"/>
      <point x="124.0" y="700.0"/>
      <point x="257.0" y="700.0" type="curve"/>
      <point x="257.0" y="722.0"/>
      <point x="257.0" y="700.0"/>
      <point x="257.0" y="722.0" type="curve"/>
      <point x="212.0" y="722.0"/>
      <point x="168.0" y="722.0"/>
      <point x="124.0" y="722.0" type="curve"/>
      <point x="124.0" y="700.0"/>
      <point x="124.0" y="722.0"/>
    </contour>
    <contour>
      <point x="124.0" y="722.0" type="curve"/>
      <point x="80.0" y="722.0"/>
      <point x="36.0" y="722.0"/>
      <point x="-8.0" y="722.0" type="curve"/>
      <point x="-8.0" y="700.0"/>
      <point x="-8.0" y="722.0"/>
      <point x="-8.0" y="700.0" type="curve"/>
      <point x="124.0" y="700.0"/>
      <point x="-8.0" y="700.0"/>
      <point x="124.0" y="700.0" type="curve"/>
      <point x="124.0" y="722.0"/>
      <point x="124.0" y="700.0"/>
    </contour>
    <contour>
      <point x="640.0" y="722.0" type="curve"/>
      <point x="596.0" y="722.0"/>
      <point x="552.0" y="722.0"/>
      <point x="508.0" y="722.0" type="curve"/>
      <point x="508.0" y="700.0"/>
      <point x="508.0" y="722.0"/>
      <point x="508.0" y="700.0" type="curve"/>
      <point x="640.0" y="700.0"/>
      <point x="508.0" y="700.0"/>
      <point x="640.0" y="700.0" type="curve"/>
      <point x="640.0" y="722.0"/>
      <point x="640.0" y="700.0"/>
    </contour>
    <contour>
      <point x="640.0" y="700.0" type="curve"/>
      <point x="772.0" y="700.0"/>
      <point x="640.0" y="700.0"/>
      <point x="772.0" y="700.0" type="curve"/>
      <point x="772.0" y="722.0"/>
      <point x="772.0" y="700.0"/>
      <point x="772.0" y="722.0" type="curve"/>
      <point x="728.0" y="722.0"/>
      <point x="684.0" y="722.0"/>
      <point x="640.0" y="722.0" type="curve"/>
      <point x="640.0" y="700.0"/>
      <point x="640.0" y="722.0"/>
    </contour>
    <contour>
      <point x="254.0" y="0.0" type="curve"/>
      <point x="301.0" y="241.0"/>
      <point x="347.0" y="481.0"/>
      <point x="394.0" y="722.0" type="curve"/>
      <point x="371.0" y="722.0"/>
      <point x="395.0" y="722.0"/>
      <point x="372.0" y="722.0" type="curve"/>
      <point x="327.0" y="481.0"/>
      <point x="280.0" y="241.0"/>
      <point x="235.0" y="0.0" type="curve"/>
      <point x="253.0" y="0.0"/>
      <point x="236.0" y="0.0"/>
    </contour>
    <contour>
      <point x="378.0" y="722.0" type="curve"/>
      <point x="421.0" y="481.0"/>
      <point x="462.0" y="241.0"/>
      <point x="505.0" y="0.0" type="curve"/>
      <point x="523.0" y="0.0"/>
      <point x="506.0" y="0.0"/>
      <point x="524.0" y="0.0" type="curve"/>
      <point x="483.0" y="241.0"/>
      <point x="441.0" y="481.0"/>
      <point x="400.0" y="722.0" type="curve"/>
      <point x="377.0" y="722.0"/>
      <point x="401.0" y="722.0"/>
    </contour>
    <contour>
      <point x="103.0" y="722.0" type="curve"/>
      <point x="146.0" y="481.0"/>
      <point x="189.0" y="241.0"/>
      <point x="232.0" y="0.0" type="curve"/>
      <point x="250.0" y="0.0"/>
      <point x="233.0" y="0.0"/>
      <point x="251.0" y="0.0" type="curve"/>
      <point x="210.0" y="241.0"/>
      <point x="169.0" y="481.0"/>
      <point x="128.0" y="722.0" type="curve"/>
      <point x="103.0" y="722.0"/>
      <point x="128.0" y="722.0"/>
    </contour>
    <contour>
      <point x="636.0" y="722.0" type="curve"/>
      <point x="593.0" y="481.0"/>
      <point x="550.0" y="241.0"/>
      <point x="508.0" y="0.0" type="curve"/>
      <point x="526.0" y="0.0"/>
      <point x="509.0" y="0.0"/>
      <point x="527.0" y="0.0" type="curve"/>
      <point x="572.0" y="241.0"/>
      <point x="616.0" y="481.0"/>
      <point x="661.0" y="722.0" type="curve"/>
      <point x="636.0" y="722.0"/>
      <point x="661.0" y="722.0"/>
    </contour>
  </outline>
</glyph>
<glyph name="X" format="1">
  <advance width="610.0"/>
  <unicode hex="0058"/>
  <outline>
    <contour>
      <point x="130.0" y="0.0" type="curve"/>
      <point x="174.0" y="0.0"/>
      <point x="130.0" y="0.0"/>
      <point x="262.0" y="0.0" type="curve"/>
      <point x="262.0" y="22.0"/>
      <point x="262.0" y="0.0"/>
      <point x="262.0" y="22.0" type="curve"/>
      <point x="130.0" y="22.0"/>
      <point x="262.0" y="22.0"/>
      <point x="130.0" y="22.0" type="curve"/>
      <point x="130.0" y="0.0"/>
      <point x="130.0" y="22.0"/>
    </contour>
    <contour>
      <point x="130.0" y="22.0" type="curve"/>
      <point x="-2.0" y="22.0"/>
      <point x="130.0" y="22.0"/>
      <point x="-2.0" y="22.0" type="curve"/>
      <point x="-2.0" y="0.0"/>
      <point x="-2.0" y="22.0"/>
      <point x="-2.0" y="0.0" type="curve"/>
      <point x="42.0" y="0.0"/>
      <point x="86.0" y="0.0"/>
      <point x="130.0" y="0.0" type="curve"/>
      <point x="130.0" y="22.0"/>
      <point x="130.0" y="0.0"/>
    </contour>
    <contour>
      <point x="479.0" y="0.0" type="curve"/>
      <point x="523.0" y="0.0"/>
      <point x="567.0" y="0.0"/>
      <point x="611.0" y="0.0" type="curve"/>
      <point x="611.0" y="22.0"/>
      <point x="611.0" y="0.0"/>
      <point x="611.0" y="22.0" type="curve"/>
      <point x="479.0" y="22.0"/>
      <point x="611.0" y="22.0"/>
      <point x="479.0" y="22.0" type="curve"/>
      <point x="479.0" y="0.0"/>
      <point x="479.0" y="22.0"/>
    </contour>
    <contour>
      <point x="479.0" y="22.0" type="curve"/>
      <point x="347.0" y="22.0"/>
      <point x="479.0" y="22.0"/>
      <point x="347.0" y="22.0" type="curve"/>
      <point x="347.0" y="0.0"/>
      <point x="347.0" y="22.0"/>
      <point x="347.0" y="0.0" type="curve"/>
      <point x="391.0" y="0.0"/>
      <point x="435.0" y="0.0"/>
      <point x="479.0" y="0.0" type="curve"/>
      <point x="479.0" y="22.0"/>
      <point x="479.0" y="0.0"/>
    </contour>
    <contour>
      <point x="461.0" y="700.0" type="curve"/>
      <point x="593.0" y="700.0"/>
      <point x="461.0" y="700.0"/>
      <point x="593.0" y="700.0" type="curve"/>
      <point x="593.0" y="722.0"/>
      <point x="593.0" y="700.0"/>
      <point x="593.0" y="722.0" type="curve"/>
      <point x="549.0" y="722.0"/>
      <point x="505.0" y="722.0"/>
      <point x="461.0" y="722.0" type="curve"/>
      <point x="461.0" y="700.0"/>
      <point x="461.0" y="722.0"/>
    </contour>
    <contour>
      <point x="461.0" y="722.0" type="curve"/>
      <point x="417.0" y="722.0"/>
      <point x="373.0" y="722.0"/>
      <point x="329.0" y="722.0" type="curve"/>
      <point x="329.0" y="700.0"/>
      <point x="329.0" y="722.0"/>
      <point x="329.0" y="700.0" type="curve"/>
      <point x="461.0" y="700.0"/>
      <point x="329.0" y="700.0"/>
      <point x="461.0" y="700.0" type="curve"/>
      <point x="461.0" y="722.0"/>
      <point x="461.0" y="700.0"/>
    </contour>
    <contour>
      <point x="151.0" y="722.0" type="curve"/>
      <point x="107.0" y="722.0"/>
      <point x="63.0" y="722.0"/>
      <point x="19.0" y="722.0" type="curve"/>
      <point x="19.0" y="700.0"/>
      <point x="19.0" y="722.0"/>
      <point x="19.0" y="700.0" type="curve"/>
      <point x="151.0" y="700.0"/>
      <point x="19.0" y="700.0"/>
      <point x="151.0" y="700.0" type="curve"/>
      <point x="151.0" y="722.0"/>
      <point x="151.0" y="700.0"/>
    </contour>
    <contour>
      <point x="151.0" y="700.0" type="curve"/>
      <point x="283.0" y="700.0"/>
      <point x="151.0" y="700.0"/>
      <point x="283.0" y="700.0" type="curve"/>
      <point x="283.0" y="722.0"/>
      <point x="283.0" y="700.0"/>
      <point x="283.0" y="722.0" type="curve"/>
      <point x="239.0" y="722.0"/>
      <point x="195.0" y="722.0"/>
      <point x="151.0" y="722.0" type="curve"/>
      <point x="151.0" y="700.0"/>
      <point x="151.0" y="722.0"/>
    </contour>
    <contour>
      <point x="456.0" y="722.0" type="curve"/>
      <point x="339.0" y="481.0"/>
      <point x="223.0" y="241.0"/>
      <point x="106.0" y="0.0" type="curve"/>
      <point x="137.0" y="0.0"/>
      <point x="106.0" y="0.0"/>
      <point x="137.0" y="0.0" type="curve"/>
      <point x="253.0" y="241.0"/>
      <point x="368.0" y="481.0"/>
      <point x="484.0" y="722.0" type="curve"/>
      <point x="456.0" y="722.0"/>
      <point x="484.0" y="722.0"/>
    </contour>
    <contour>
      <point x="130.0" y="722.0" type="curve"/>
      <point x="244.0" y="481.0"/>
      <point x="359.0" y="241.0"/>
      <point x="474.0" y="0.0" type="curve"/>
      <point x="504.0" y="0.0"/>
      <point x="474.0" y="0.0"/>
      <point x="504.0" y="0.0" type="curve"/>
      <point x="389.0" y="241.0"/>
      <point x="273.0" y="481.0"/>
      <point x="158.0" y="722.0" type="curve"/>
      <point x="130.0" y="722.0"/>
      <point x="158.0" y="722.0"/>
    </contour>
  </outline>
</glyph>
<glyph name="Y" format="1">
  <advance width="560.0"/>
  <unicode hex="0059"/>
  <outline>
    <contour>
      <point x="279.0" y="22.0" type="curve"/>
      <point x="147.0" y="22.0"/>
      <point x="279.0" y="22.0"/>
      <point x="147.0" y="22.0" type="curve"/>
      <point x="147.0" y="0.0"/>
      <point x="147.0" y="22.0"/>
      <point x="147.0" y="0.0" type="curve"/>
      <point x="191.0" y="0.0"/>
      <point x="235.0" y="0.0"/>
      <point x="279.0" y="0.0" type="curve"/>
      <point x="279.0" y="22.0"/>
      <point x="279.0" y="0.0"/>
    </contour>
    <contour>
      <point x="279.0" y="0.0" type="curve"/>
      <point x="323.0" y="0.0"/>
      <point x="367.0" y="0.0"/>
      <point x="411.0" y="0.0" type="curve"/>
      <point x="411.0" y="22.0"/>
      <point x="411.0" y="0.0"/>
      <point x="411.0" y="22.0" type="curve"/>
      <point x="279.0" y="22.0"/>
      <point x="411.0" y="22.0"/>
      <point x="279.0" y="22.0" type="curve"/>
      <point x="279.0" y="0.0"/>
      <point x="279.0" y="22.0"/>
    </contour>
    <contour>
      <point x="444.0" y="722.0" type="curve"/>
      <point x="400.0" y="722.0"/>
      <point x="356.0" y="722.0"/>
      <point x="312.0" y="722.0" type="curve"/>
      <point x="312.0" y="700.0"/>
      <point x="312.0" y="722.0"/>
      <point x="312.0" y="700.0" type="curve"/>
      <point x="444.0" y="700.0"/>
      <point x="312.0" y="700.0"/>
      <point x="444.0" y="700.0" type="curve"/>
      <point x="444.0" y="722.0"/>
      <point x="444.0" y="700.0"/>
    </contour>
    <contour>
      <point x="123.0" y="722.0" type="curve"/>
      <point x="79.0" y="722.0"/>
      <point x="35.0" y="722.0"/>
      <point x="-9.0" y="722.0" type="curve"/>
      <point x="-9.0" y="700.0"/>
      <point x="-9.0" y="722.0"/>
      <point x="-9.0" y="700.0" type="curve"/>
      <point x="123.0" y="700.0"/>
      <point x="-9.0" y="700.0"/>
      <point x="123.0" y="700.0" type="curve"/>
      <point x="123.0" y="722.0"/>
      <point x="123.0" y="700.0"/>
    </contour>
    <contour>
      <point x="123.0" y="700.0" type="curve"/>
      <point x="255.0" y="700.0"/>
      <point x="123.0" y="700.0"/>
      <point x="255.0" y="700.0" type="curve"/>
      <point x="255.0" y="722.0"/>
      <point x="255.0" y="700.0"/>
      <point x="255.0" y="722.0" type="curve"/>
      <point x="211.0" y="722.0"/>
      <point x="167.0" y="722.0"/>
      <point x="123.0" y="722.0" type="curve"/>
      <point x="123.0" y="700.0"/>
      <point x="123.0" y="722.0"/>
    </contour>
    <contour>
      <point x="444.0" y="700.0" type="curve"/>
      <point x="576.0" y="700.0"/>
      <point x="444.0" y="700.0"/>
      <point x="576.0" y="700.0" type="curve"/>
      <point x="576.0" y="722.0"/>
      <point x="576.0" y="700.0"/>
      <point x="576.0" y="722.0" type="curve"/>
      <point x="532.0" y="722.0"/>
      <point x="488.0" y="722.0"/>
      <point x="444.0" y="722.0" type="curve"/>
      <point x="444.0" y="700.0"/>
      <point x="444.0" y="722.0"/>
    </contour>
    <contour>
      <point x="101.0" y="722.0" type="curve"/>
      <point x="156.0" y="594.0"/>
      <point x="211.0" y="465.0"/>
      <point x="266.0" y="337.0" type="curve"/>
      <point x="292.0" y="337.0"/>
      <point x="266.0" y="337.0"/>
      <point x="292.0" y="337.0" type="curve"/>
      <point x="237.0" y="465.0"/>
      <point x="182.0" y="594.0"/>
      <point x="128.0" y="722.0" type="curve"/>
      <point x="101.0" y="722.0"/>
      <point x="128.0" y="722.0"/>
    </contour>
    <contour>
      <point x="439.0" y="722.0" type="curve"/>
      <point x="382.0" y="594.0"/>
      <point x="324.0" y="465.0"/>
      <point x="266.0" y="337.0" type="curve"/>
      <point x="292.0" y="337.0"/>
      <point x="266.0" y="337.0"/>
      <point x="292.0" y="337.0" type="curve"/>
      <point x="350.0" y="465.0"/>
      <point x="408.0" y="594.0"/>
      <point x="466.0" y="722.0" type="curve"/>
      <point x="439.0" y="722.0"/>
      <point x="466.0" y="722.0"/>
    </contour>
    <contour>
      <point x="292.0" y="0.0" type="curve"/>
      <point x="292.0" y="115.0"/>
      <point x="292.0" y="231.0"/>
      <point x="292.0" y="346.0" type="curve"/>
      <point x="266.0" y="346.0"/>
      <point x="292.0" y="346.0"/>
      <point x="266.0" y="346.0" type="curve"/>
      <point x="266.0" y="231.0"/>
      <point x="266.0" y="115.0"/>
      <point x="266.0" y="0.0" type="curve"/>
      <point x="292.0" y="0.0"/>
      <point x="266.0" y="0.0"/>
    </contour>
    <contour>
      <point x="278.0" y="839.0" type="move" name="top"/>
    </contour>
  </outline>
</glyph>
<glyph name="bracketleft" format="1">
  <advance width="234.0"/>
  <unicode hex="005B"/>
  <outline>
    <contour>
      <point x="195.0" y="771.0" type="curve"/>
      <point x="160.0" y="771.0"/>
      <point x="124.0" y="771.0"/>
      <point x="88.0" y="771.0" type="curve"/>
      <point x="86.0" y="771.0"/>
      <point x="83.0" y="771.0"/>
      <point x="81.0" y="771.0" type="curve"/>
      <point x="81.0" y="769.0"/>
      <point x="81.0" y="767.0"/>
      <point x="81.0" y="765.0" type="curve"/>
      <point x="81.0" y="470.0"/>
      <point x="81.0" y="175.0"/>
      <point x="81.0" y="-120.0" type="curve"/>
      <point x="81.0" y="-121.0"/>
      <point x="81.0" y="-123.0"/>
      <point x="81.0" y="-124.0" type="curve"/>
      <point x="83.0" y="-124.0"/>
      <point x="86.0" y="-124.0"/>
      <point x="87.0" y="-124.0" type="curve"/>
      <point x="123.0" y="-124.0"/>
      <point x="159.0" y="-124.0"/>
      <point x="195.0" y="-124.0" type="curve"/>
      <point x="195.0" y="-100.0"/>
      <point x="195.0" y="-124.0"/>
      <point x="195.0" y="-100.0" type="curve"/>
      <point x="159.0" y="-100.0"/>
      <point x="123.0" y="-100.0"/>
      <point x="87.0" y="-100.0" type="curve"/>
      <point x="105.0" y="-100.0"/>
      <point x="87.0" y="-100.0"/>
      <point x="105.0" y="-100.0" type="curve"/>
      <point x="105.0" y="-120.0"/>
      <point x="105.0" y="-100.0"/>
      <point x="105.0" y="-120.0" type="curve"/>
      <point x="105.0" y="175.0"/>
      <point x="105.0" y="470.0"/>
      <point x="105.0" y="765.0" type="curve"/>
      <point x="105.0" y="747.0"/>
      <point x="105.0" y="765.0"/>
      <point x="105.0" y="747.0" type="curve"/>
      <point x="88.0" y="747.0"/>
      <point x="105.0" y="747.0"/>
      <point x="88.0" y="747.0" type="curve"/>
      <point x="124.0" y="747.0"/>
      <point x="160.0" y="747.0"/>
      <point x="195.0" y="747.0" type="curve"/>
      <point x="195.0" y="771.0"/>
      <point x="195.0" y="747.0"/>
    </contour>
  </outline>
</glyph>
<glyph name="backslash" format="1">
  <advance width="382.0"/>
  <unicode hex="005C"/>
  <outline>
    <contour>
      <point x="341.0" y="-68.0" type="curve"/>
      <point x="249.534248" y="235.99696"/>
      <point x="158.065752" y="540.00304"/>
      <point x="66.6" y="844.0" type="curve"/>
      <point x="41.3" y="844.0"/>
      <point x="66.6" y="844.0"/>
      <point x="41.3" y="844.0" type="curve"/>
      <point x="132.765752" y="540.00304"/>
      <point x="224.234248" y="235.99696"/>
      <point x="315.7" y="-68.0" type="curve"/>
      <point x="341.0" y="-68.0"/>
      <point x="315.7" y="-68.0"/>
    </contour>
  </outline>
</glyph>
<glyph name="underscore" format="1">
  <advance width="477.0"/>
  <unicode hex="005F"/>
  <outline>
    <contour>
      <point x="-0.5" y="-209.533333333" type="curve"/>
      <point x="158.631742" y="-209.533333333"/>
      <point x="317.768258" y="-209.533333333"/>
      <point x="476.9" y="-209.533333333" type="curve"/>
      <point x="476.9" y="-187.973333333"/>
      <point x="476.9" y="-209.533333333"/>
      <point x="476.9" y="-187.973333333" type="curve"/>
      <point x="317.768258" y="-187.973333333"/>
      <point x="158.631742" y="-187.973333333"/>
      <point x="-0.5" y="-187.973333333" type="curve"/>
      <point x="-0.5" y="-209.533333333"/>
      <point x="-0.5" y="-187.973333333"/>
    </contour>
  </outline>
</glyph>
<glyph name="b" format="1">
  <advance width="507.0"/>
  <unicode hex="0062"/>
  <outline>
    <contour>
      <point x="139.0" y="800.0" type="curve"/>
      <point x="95.0" y="800.0"/>
      <point x="51.0" y="800.0"/>
      <point x="7.0" y="800.0" type="curve"/>
      <point x="7.0" y="778.0"/>
      <point x="7.0" y="800.0"/>
      <point x="7.0" y="778.0" type="curve"/>
      <point x="139.0" y="778.0"/>
      <point x="7.0" y="778.0"/>
      <point x="139.0" y="778.0" type="curve"/>
      <point x="139.0" y="800.0"/>
      <point x="139.0" y="778.0"/>
    </contour>
    <contour>
      <point x="144.0" y="408.0" type="curve"/>
      <point x="169.901590049" y="451.514671282"/>
      <point x="216.0" y="516.0"/>
      <point x="286" y="516" type="curve"/>
      <point x="397.0" y="516.0"/>
      <point x="419.0" y="396.641129032"/>
      <point x="419.0" y="263.0" type="curve"/>
      <point x="419.0" y="140.510373444"/>
      <point x="396.000190549" y="15.9999982677"/>
      <point x="286" y="17" type="curve"/>
      <point x="222.0" y="17.0"/>
      <point x="183.411760974" y="54.9215741217"/>
      <point x="146.0" y="110.0" type="curve"/>
      <point x="131.0" y="97.0"/>
      <point x="146.0" y="110.0"/>
      <point x="131.0" y="97.0" type="curve"/>
      <point x="169.40356671" y="33.6860116411"/>
      <point x="216.0" y="-5.0"/>
      <point x="287" y="-5" type="curve"/>
      <point x="409.0" y="-5.0"/>
      <point x="443.0" y="120.329545455"/>
      <point x="443.0" y="264.0" type="curve"/>
      <point x="443.0" y="409.657992565"/>
      <point x="412.0" y="538.0"/>
      <point x="288" y="538" type="curve"/>
      <point x="212.0" y="538.0"/>
      <point x="158.917942579" y="472.659357739"/>
      <point x="132.0" y="424.0" type="curve"/>
      <point x="144.0" y="408.0"/>
      <point x="132.0" y="424.0"/>
    </contour>
    <contour>
      <point x="149.0" y="0.0" type="curve"/>
      <point x="149.0" y="267.0"/>
      <point x="149.0" y="533.0"/>
      <point x="149.0" y="800.0" type="curve"/>
      <point x="125.0" y="800.0"/>
      <point x="149.0" y="800.0"/>
      <point x="125.0" y="800.0" type="curve"/>
      <point x="125.0" y="533.0"/>
      <point x="125.0" y="267.0"/>
      <point x="125.0" y="0.0" type="curve"/>
      <point x="149.0" y="0.0"/>
      <point x="125.0" y="0.0"/>
    </contour>
    <contour>
      <point x="139.0" y="22.0" type="curve"/>
      <point x="7.0" y="22.0"/>
      <point x="139.0" y="22.0"/>
      <point x="7.0" y="22.0" type="curve"/>
      <point x="7.0" y="0.0"/>
      <point x="7.0" y="22.0"/>
      <point x="7.0" y="0.0" type="curve"/>
      <point x="51.0" y="0.0"/>
      <point x="95.0" y="0.0"/>
      <point x="139.0" y="0.0" type="curve"/>
      <point x="139.0" y="22.0"/>
      <point x="139.0" y="0.0"/>
    </contour>
  </outline>
</glyph>
<glyph name="c" format="1">
  <advance width="410.0"/>
  <unicode hex="0063"/>
  <outline>
    <contour>
      <point x="326.12" y="472.939333333" type="curve"/>
      <point x="326.12" y="352.939333333"/>
      <point x="326.12" y="472.939333333"/>
      <point x="326.12" y="352.939333333" type="curve"/>
      <point x="347.9" y="352.939333333"/>
      <point x="326.12" y="352.939333333"/>
      <point x="347.9" y="352.939333333" type="curve"/>
      <point x="347.9" y="472.939333333"/>
      <point x="347.9" y="352.939333333"/>
      <point x="347.9" y="472.939333333" type="curve"/>
      <point x="326.12" y="472.939333333"/>
      <point x="347.9" y="472.939333333"/>
    </contour>
    <contour>
      <point x="347.9" y="472.939333333" type="curve"/>
      <point x="318.786507679" y="506.862024746"/>
      <point x="278.935657601" y="538.0"/>
      <point x="232.8" y="538.0" type="curve"/>
      <point x="99.3710562525" y="538.0"/>
      <point x="63.7" y="422.369442517"/>
      <point x="63.7" y="266.998479532" type="curve"/>
      <point x="63.7" y="111.501603282"/>
      <point x="97" y="-5"/>
      <point x="231" y="-5" type="curve"/>
      <point x="285" y="-5"/>
      <point x="329" y="35"/>
      <point x="356" y="88" type="curve"/>
      <point x="338" y="99"/>
      <point x="356" y="88"/>
      <point x="338" y="99" type="curve"/>
      <point x="318" y="62"/>
      <point x="279" y="17"/>
      <point x="232" y="17" type="curve"/>
      <point x="114" y="17"/>
      <point x="87.9" y="127.770025343"/>
      <point x="87.9" y="266.998479532" type="curve"/>
      <point x="87.9" y="406.108610395"/>
      <point x="118.0" y="516.0"/>
      <point x="232.0" y="516.0" type="curve"/>
      <point x="272.0" y="516.0"/>
      <point x="307.965689833" y="487.235823303"/>
      <point x="333.6" y="457.847333333" type="curve"/>
      <point x="347.9" y="472.939333333"/>
      <point x="333.6" y="457.847333333"/>
    </contour>
    <contour>
      <point x="232.0" y="669.0" type="move" name="top"/>
    </contour>
    <contour>
      <point x="224.0" y="11.0" type="move" name="bottom"/>
    </contour>
  </outline>
</glyph>
<glyph name="f" format="1">
  <advance width="350.0"/>
  <unicode hex="0066"/>
  <outline>
    <contour>
      <point x="321" y="777" type="curve"/>
      <point x="321" y="657"/>
      <point x="321" y="777"/>
      <point x="321" y="657" type="curve"/>
      <point x="342" y="657"/>
      <point x="321" y="657"/>
      <point x="342" y="657" type="curve"/>
      <point x="342" y="777"/>
      <point x="342" y="657"/>
      <point x="342" y="777" type="curve"/>
      <point x="321" y="777"/>
      <point x="342" y="777"/>
    </contour>
    <contour>
      <point x="170" y="0" type="curve"/>
      <point x="214" y="0"/>
      <point x="258" y="0"/>
      <point x="302" y="0" type="curve"/>
      <point x="302" y="22"/>
      <point x="302" y="0"/>
      <point x="302" y="22" type="curve"/>
      <point x="170" y="22"/>
      <point x="302" y="22"/>
      <point x="170" y="22" type="curve"/>
      <point x="170" y="0"/>
      <point x="170" y="22"/>
    </contour>
    <contour>
      <point x="170" y="22" type="curve"/>
      <point x="38" y="22"/>
      <point x="170" y="22"/>
      <point x="38" y="22" type="curve"/>
      <point x="38" y="0"/>
      <point x="38" y="22"/>
      <point x="38" y="0" type="curve"/>
      <point x="82" y="0"/>
      <point x="126" y="0"/>
      <point x="170" y="0" type="curve"/>
      <point x="170" y="22"/>
      <point x="170" y="0"/>
    </contour>
    <contour>
      <point x="40" y="487" type="curve"/>
      <point x="40" y="487"/>
      <point x="315" y="487"/>
      <point x="315" y="487" type="curve"/>
      <point x="315" y="509"/>
      <point x="315" y="487"/>
      <point x="315" y="509" type="curve"/>
      <point x="315" y="509"/>
      <point x="40" y="509"/>
      <point x="40" y="509" type="curve"/>
      <point x="40" y="487"/>
      <point x="40" y="509"/>
    </contour>
    <contour>
      <point x="182" y="0" type="curve"/>
      <point x="182" y="0"/>
      <point x="182" y="640"/>
      <point x="182" y="640" type="curve"/>
      <point x="182" y="718"/>
      <point x="202" y="784"/>
      <point x="266" y="784" type="curve"/>
      <point x="291" y="784"/>
      <point x="313" y="774"/>
      <point x="333" y="760" type="curve"/>
      <point x="342" y="777"/>
      <point x="333" y="760"/>
      <point x="342" y="777" type="curve"/>
      <point x="320" y="793"/>
      <point x="293" y="805"/>
      <point x="266" y="805" type="curve"/>
      <point x="187" y="805"/>
      <point x="157" y="729"/>
      <point x="158" y="640" type="curve"/>
      <point x="158" y="640"/>
      <point x="158" y="0"/>
      <point x="158" y="0" type="curve"/>
      <point x="182" y="0"/>
      <point x="158" y="0"/>
    </contour>
  </outline>
</glyph>
<glyph name="h" format="1">
  <advance width="535.0"/>
  <unicode hex="0068"/>
  <outline>
    <contour>
      <point x="399" y="0" type="curve"/>
      <point x="443" y="0"/>
      <point x="487" y="0"/>
      <point x="531" y="0" type="curve"/>
      <point x="531" y="22"/>
      <point x="531" y="0"/>
      <point x="531" y="22" type="curve"/>
      <point x="399" y="22"/>
      <point x="531" y="22"/>
      <point x="399" y="22" type="curve"/>
      <point x="399" y="0"/>
      <point x="399" y="22"/>
    </contour>
    <contour>
      <point x="139" y="0" type="curve"/>
      <point x="177" y="0"/>
      <point x="130" y="0"/>
      <point x="244" y="0" type="curve"/>
      <point x="244" y="22"/>
      <point x="244" y="0"/>
      <point x="244" y="22" type="curve"/>
      <point x="130" y="22"/>
      <point x="253" y="22"/>
      <point x="139" y="22" type="curve"/>
      <point x="139" y="0"/>
      <point x="139" y="22"/>
    </contour>
    <contour>
      <point x="139" y="800" type="curve"/>
      <point x="95" y="800"/>
      <point x="51" y="800"/>
      <point x="7" y="800" type="curve"/>
      <point x="7" y="778"/>
      <point x="7" y="800"/>
      <point x="7" y="778" type="curve"/>
      <point x="139" y="778"/>
      <point x="7" y="778"/>
      <point x="139" y="778" type="curve"/>
      <point x="139" y="800"/>
      <point x="139" y="778"/>
    </contour>
    <contour>
      <point x="139" y="22" type="curve"/>
      <point x="7" y="22"/>
      <point x="139" y="22"/>
      <point x="7" y="22" type="curve"/>
      <point x="7" y="0"/>
      <point x="7" y="22"/>
      <point x="7" y="0" type="curve"/>
      <point x="51" y="0"/>
      <point x="95" y="0"/>
      <point x="139" y="0" type="curve"/>
      <point x="139" y="22"/>
      <point x="139" y="0"/>
    </contour>
    <contour>
      <point x="399" y="22" type="curve"/>
      <point x="284.869565217" y="22.0"/>
      <point x="408.130434783" y="22.0"/>
      <point x="294" y="22" type="curve"/>
      <point x="294" y="0"/>
      <point x="294" y="22"/>
      <point x="294" y="0" type="curve"/>
      <point x="332.347826087" y="0.0"/>
      <point x="360.652173913" y="0.0"/>
      <point x="399" y="0" type="curve"/>
      <point x="399" y="22"/>
      <point x="399" y="0"/>
    </contour>
    <contour>
      <point x="145" y="353" type="curve"/>
      <point x="166" y="430"/>
      <point x="210" y="516"/>
      <point x="286" y="516" type="curve"/>
      <point x="371" y="516"/>
      <point x="388" y="438"/>
      <point x="388" y="341" type="curve"/>
      <point x="388" y="228"/>
      <point x="388" y="114"/>
      <point x="388" y="0" type="curve"/>
      <point x="412" y="0"/>
      <point x="388" y="0"/>
      <point x="412" y="0" type="curve"/>
      <point x="412" y="115"/>
      <point x="412" y="229"/>
      <point x="412" y="344" type="curve"/>
      <point x="412" y="454"/>
      <point x="386" y="538"/>
      <point x="289" y="538" type="curve"/>
      <point x="205" y="538"/>
      <point x="150" y="452"/>
      <point x="134" y="365" type="curve"/>
      <point x="146" y="354"/>
      <point x="133" y="364"/>
    </contour>
    <contour>
      <point x="151" y="0" type="curve"/>
      <point x="151" y="267"/>
      <point x="151" y="533"/>
      <point x="151" y="800" type="curve"/>
      <point x="127" y="800"/>
      <point x="151" y="800"/>
      <point x="127" y="800" type="curve"/>
      <point x="127" y="533"/>
      <point x="127" y="267"/>
      <point x="127" y="0" type="curve"/>
      <point x="151" y="0"/>
      <point x="127" y="0"/>
    </contour>
  </outline>
</glyph>
<glyph name="i" format="1">
  <advance width="300.0"/>
  <unicode hex="0069"/>
  <outline>
    <contour>
      <point x="166.0" y="22.0" type="curve"/>
      <point x="34.0" y="22.0"/>
      <point x="166.0" y="22.0"/>
      <point x="34.0" y="22.0" type="curve"/>
      <point x="34.0" y="0.0"/>
      <point x="34.0" y="22.0"/>
      <point x="34.0" y="0.0" type="curve"/>
      <point x="78.0" y="0.0"/>
      <point x="122.0" y="0.0"/>
      <point x="166.0" y="0.0" type="curve"/>
      <point x="166.0" y="22.0"/>
      <point x="166.0" y="0.0"/>
    </contour>
    <contour>
      <point x="166.0" y="0.0" type="curve"/>
      <point x="207.0" y="0.0"/>
      <point x="249.0" y="0.0"/>
      <point x="291.0" y="0.0" type="curve"/>
      <point x="291.0" y="22.0"/>
      <point x="291.0" y="0.0"/>
      <point x="291.0" y="22.0" type="curve"/>
      <point x="166.0" y="22.0"/>
      <point x="291.0" y="22.0"/>
      <point x="166.0" y="22.0" type="curve"/>
      <point x="166.0" y="0.0"/>
      <point x="166.0" y="22.0"/>
    </contour>
    <contour>
      <point x="166.0" y="533.0" type="curve"/>
      <point x="122.0" y="533.0"/>
      <point x="78.0" y="533.0"/>
      <point x="34.0" y="533.0" type="curve"/>
      <point x="34.0" y="511.0"/>
      <point x="34.0" y="533.0"/>
      <point x="34.0" y="511.0" type="curve"/>
      <point x="166.0" y="511.0"/>
      <point x="34.0" y="511.0"/>
      <point x="166.0" y="511.0" type="curve"/>
      <point x="166.0" y="533.0"/>
      <point x="166.0" y="511.0"/>
    </contour>
    <contour>
      <point x="180.0" y="670.0" type="curve"/>
      <point x="180.0" y="679.0"/>
      <point x="174.0" y="684.0"/>
      <point x="165.0" y="684.0" type="curve"/>
      <point x="157.0" y="684.0"/>
      <point x="151.0" y="678.0"/>
      <point x="151.0" y="670.0" type="curve"/>
      <point x="180.0" y="670.0"/>
      <point x="151.0" y="670.0"/>
      <point x="180.0" y="670.0" type="curve"/>
      <point x="180.0" y="661.0"/>
      <point x="174.0" y="657.0"/>
      <point x="165.0" y="657.0" type="curve"/>
      <point x="157.0" y="657.0"/>
      <point x="151.0" y="662.0"/>
      <point x="151.0" y="670.0" type="curve"/>
      <point x="180.0" y="670.0"/>
      <point x="151.0" y="670.0"/>
    </contour>
    <contour>
      <point x="179.0" y="0.0" type="curve"/>
      <point x="179.0" y="178.0"/>
      <point x="179.0" y="355.0"/>
      <point x="179.0" y="533.0" type="curve"/>
      <point x="153.0" y="533.0"/>
      <point x="179.0" y="533.0"/>
      <point x="153.0" y="533.0" type="curve"/>
      <point x="153.0" y="355.0"/>
      <point x="153.0" y="178.0"/>
      <point x="153.0" y="0.0" type="curve"/>
      <point x="179.0" y="0.0"/>
      <point x="153.0" y="0.0"/>
    </contour>
    <contour>
      <point x="166.0" y="669.0" type="move" name="top"/>
    </contour>
    <contour>
      <point x="175.0" y="10.0" type="move" name="bottom"/>
    </contour>
  </outline>
</glyph>
<glyph name="j" format="1">
  <advance width="250.0"/>
  <unicode hex="006A"/>
  <outline>
    <contour>
      <point x="140.0" y="533.0" type="curve"/>
      <point x="95.0" y="533.0"/>
      <point x="51.0" y="533.0"/>
      <point x="7.0" y="533.0" type="curve"/>
      <point x="7.0" y="511.0"/>
      <point x="7.0" y="533.0"/>
      <point x="7.0" y="511.0" type="curve"/>
      <point x="140.0" y="511.0"/>
      <point x="7.0" y="511.0"/>
      <point x="140.0" y="511.0" type="curve"/>
      <point x="140.0" y="533.0"/>
      <point x="140.0" y="511.0"/>
    </contour>
    <contour>
      <point x="155.0" y="670.0" type="curve"/>
      <point x="155.0" y="679.0"/>
      <point x="150.0" y="684.0"/>
      <point x="141.0" y="684.0" type="curve"/>
      <point x="133.0" y="684.0"/>
      <point x="127.0" y="678.0"/>
      <point x="127.0" y="670.0" type="curve"/>
      <point x="155.0" y="670.0"/>
      <point x="127.0" y="670.0"/>
      <point x="155.0" y="670.0" type="curve"/>
      <point x="155.0" y="661.0"/>
      <point x="150.0" y="657.0"/>
      <point x="141.0" y="657.0" type="curve"/>
      <point x="133.0" y="657.0"/>
      <point x="127.0" y="662.0"/>
      <point x="127.0" y="670.0" type="curve"/>
      <point x="155.0" y="670.0"/>
      <point x="127.0" y="670.0"/>
    </contour>
    <contour>
      <point x="15.0" y="-301.0" type="curve"/>
      <point x="21.0" y="-302.0"/>
      <point x="29.0" y="-304.0"/>
      <point x="37.0" y="-304.0" type="curve"/>
      <point x="114.0" y="-304.0"/>
      <point x="152.0" y="-227.0"/>
      <point x="152.0" y="-142.0" type="curve"/>
      <point x="152.0" y="83.0"/>
      <point x="152.0" y="308.0"/>
      <point x="152.0" y="533.0" type="curve"/>
      <point x="128.0" y="533.0"/>
      <point x="152.0" y="533.0"/>
      <point x="128.0" y="533.0" type="curve"/>
      <point x="128.0" y="308.0"/>
      <point x="128.0" y="83.0"/>
      <point x="128.0" y="-142.0" type="curve"/>
      <point x="128" y="-207"/>
      <point x="98" y="-278"/>
      <point x="38.0" y="-278.0" type="curve"/>
      <point x="32.0" y="-278.0"/>
      <point x="24.0" y="-277.0"/>
      <point x="20.0" y="-276.0" type="curve"/>
      <point x="16.0" y="-297.0"/>
      <point x="19.0" y="-280.0"/>
    </contour>
  </outline>
</glyph>
<glyph name="k" format="1">
  <advance width="524.0"/>
  <unicode hex="006B"/>
  <outline>
    <contour>
      <point x="139" y="22" type="curve"/>
      <point x="7" y="22"/>
      <point x="139" y="22"/>
      <point x="7" y="22" type="curve"/>
      <point x="7" y="0"/>
      <point x="7" y="22"/>
      <point x="7" y="0" type="curve"/>
      <point x="51" y="0"/>
      <point x="95" y="0"/>
      <point x="139" y="0" type="curve"/>
      <point x="139" y="22"/>
      <point x="139" y="0"/>
    </contour>
    <contour>
      <point x="407" y="0" type="curve"/>
      <point x="451" y="0"/>
      <point x="495" y="0"/>
      <point x="539" y="0" type="curve"/>
      <point x="539" y="22"/>
      <point x="539" y="0"/>
      <point x="539" y="22" type="curve"/>
      <point x="407" y="22"/>
      <point x="539" y="22"/>
      <point x="407" y="22" type="curve"/>
      <point x="407" y="0"/>
      <point x="407" y="22"/>
    </contour>
    <contour>
      <point x="389" y="511" type="curve"/>
      <point x="512" y="511"/>
      <point x="389" y="511"/>
      <point x="512" y="511" type="curve"/>
      <point x="512" y="533"/>
      <point x="512" y="511"/>
      <point x="512" y="533" type="curve"/>
      <point x="471" y="533"/>
      <point x="429" y="533"/>
      <point x="389" y="533" type="curve"/>
      <point x="389" y="511"/>
      <point x="389" y="533"/>
    </contour>
    <contour>
      <point x="139" y="0" type="curve"/>
      <point x="180" y="0"/>
      <point x="139" y="0"/>
      <point x="262" y="0" type="curve"/>
      <point x="262" y="22"/>
      <point x="262" y="0"/>
      <point x="262" y="22" type="curve"/>
      <point x="139" y="22"/>
      <point x="262" y="22"/>
      <point x="139" y="22" type="curve"/>
      <point x="139" y="0"/>
      <point x="139" y="22"/>
    </contour>
    <contour>
      <point x="389" y="533" type="curve"/>
      <point x="347" y="533"/>
      <point x="305" y="533"/>
      <point x="263" y="533" type="curve"/>
      <point x="263" y="511"/>
      <point x="263" y="533"/>
      <point x="263" y="511" type="curve"/>
      <point x="389" y="511"/>
      <point x="263" y="511"/>
      <point x="389" y="511" type="curve"/>
      <point x="389" y="533"/>
      <point x="389" y="511"/>
    </contour>
    <contour>
      <point x="140" y="800" type="curve"/>
      <point x="96" y="800"/>
      <point x="52" y="800"/>
      <point x="8" y="800" type="curve"/>
      <point x="8" y="778"/>
      <point x="8" y="800"/>
      <point x="8" y="778" type="curve"/>
      <point x="140" y="778"/>
      <point x="8" y="778"/>
      <point x="140" y="778" type="curve"/>
      <point x="140" y="800"/>
      <point x="140" y="778"/>
    </contour>
    <contour>
      <point x="151" y="0" type="curve"/>
      <point x="151" y="0"/>
      <point x="151" y="800"/>
      <point x="151" y="800" type="curve"/>
      <point x="127" y="800"/>
      <point x="151" y="800"/>
      <point x="127" y="800" type="curve"/>
      <point x="127" y="533"/>
      <point x="127" y="267"/>
      <point x="127" y="0" type="curve"/>
      <point x="151" y="0"/>
      <point x="127" y="0"/>
    </contour>
    <contour>
      <point x="382" y="533" type="curve"/>
      <point x="300" y="447"/>
      <point x="218" y="361"/>
      <point x="137" y="275" type="curve"/>
      <point x="173" y="275"/>
      <point x="133" y="275"/>
      <point x="169" y="275" type="curve"/>
      <point x="251" y="361"/>
      <point x="333" y="447"/>
      <point x="415" y="533" type="curve"/>
      <point x="378" y="533"/>
      <point x="419" y="533"/>
    </contour>
    <contour>
      <point x="433" y="0" type="curve"/>
      <point x="345" y="92"/>
      <point x="257" y="183"/>
      <point x="169" y="275" type="curve"/>
      <point x="133" y="275"/>
      <point x="173" y="275"/>
      <point x="137" y="275" type="curve"/>
      <point x="225" y="183"/>
      <point x="313" y="92"/>
      <point x="400" y="0" type="curve"/>
      <point x="437" y="0"/>
      <point x="396" y="0"/>
    </contour>
    <contour>
      <point x="290.0" y="15.0" type="move" name="bottom"/>
    </contour>
  </outline>
</glyph>
<glyph name="m" format="1">
  <advance width="768.0"/>
  <unicode hex="006D"/>
  <outline>
    <contour>
      <point x="399" y="0" type="curve"/>
      <point x="504.981481481" y="0.0"/>
      <point x="390.018518519" y="0.0"/>
      <point x="496" y="0" type="curve"/>
      <point x="496" y="22"/>
      <point x="496" y="0"/>
      <point x="496" y="22" type="curve"/>
      <point x="390.018518519" y="22.0"/>
      <point x="504.981481481" y="22.0"/>
      <point x="399" y="22" type="curve"/>
      <point x="399" y="0"/>
      <point x="399" y="22"/>
    </contour>
    <contour>
      <point x="399" y="22" type="curve"/>
      <point x="292" y="22"/>
      <point x="408" y="22"/>
      <point x="301" y="22" type="curve"/>
      <point x="301" y="0"/>
      <point x="301" y="22"/>
      <point x="301" y="0" type="curve"/>
      <point x="408" y="0"/>
      <point x="292" y="0"/>
      <point x="399" y="0" type="curve"/>
      <point x="399" y="22"/>
      <point x="399" y="0"/>
    </contour>
    <contour>
      <point x="632" y="0" type="curve"/>
      <point x="676" y="0"/>
      <point x="720" y="0"/>
      <point x="764" y="0" type="curve"/>
      <point x="764" y="22"/>
      <point x="764" y="0"/>
      <point x="764" y="22" type="curve"/>
      <point x="632" y="22"/>
      <point x="764" y="22"/>
      <point x="632" y="22" type="curve"/>
      <point x="632" y="0"/>
      <point x="632" y="22"/>
    </contour>
    <contour>
      <point x="166" y="22" type="curve"/>
      <point x="34" y="22"/>
      <point x="166" y="22"/>
      <point x="34" y="22" type="curve"/>
      <point x="34" y="0"/>
      <point x="34" y="22"/>
      <point x="34" y="0" type="curve"/>
      <point x="78" y="0"/>
      <point x="122" y="0"/>
      <point x="166" y="0" type="curve"/>
      <point x="166" y="22"/>
      <point x="166" y="0"/>
    </contour>
    <contour>
      <point x="166" y="0" type="curve"/>
      <point x="202" y="0"/>
      <point x="157" y="0"/>
      <point x="264" y="0" type="curve"/>
      <point x="264" y="22"/>
      <point x="264" y="0"/>
      <point x="264" y="22" type="curve"/>
      <point x="157" y="22"/>
      <point x="273" y="22"/>
      <point x="166" y="22" type="curve"/>
      <point x="166" y="0"/>
      <point x="166" y="22"/>
    </contour>
    <contour>
      <point x="166" y="533" type="curve"/>
      <point x="122" y="533"/>
      <point x="78" y="533"/>
      <point x="34" y="533" type="curve"/>
      <point x="34" y="511"/>
      <point x="34" y="533"/>
      <point x="34" y="511" type="curve"/>
      <point x="166" y="511"/>
      <point x="34" y="511"/>
      <point x="166" y="511" type="curve"/>
      <point x="166" y="533"/>
      <point x="166" y="511"/>
    </contour>
    <contour>
      <point x="632" y="22" type="curve"/>
      <point x="525" y="22"/>
      <point x="641" y="22"/>
      <point x="534" y="22" type="curve"/>
      <point x="534" y="0"/>
      <point x="534" y="22"/>
      <point x="534" y="0" type="curve"/>
      <point x="569" y="0"/>
      <point x="596" y="0"/>
      <point x="632" y="0" type="curve"/>
      <point x="632" y="22"/>
      <point x="632" y="0"/>
    </contour>
    <contour>
      <point x="405" y="354" type="curve"/>
      <point x="427" y="434"/>
      <point x="462" y="517"/>
      <point x="531" y="517" type="curve"/>
      <point x="618" y="517"/>
      <point x="619" y="443"/>
      <point x="619" y="341" type="curve"/>
      <point x="619" y="228"/>
      <point x="619" y="114"/>
      <point x="619" y="0" type="curve"/>
      <point x="643" y="0"/>
      <point x="619" y="0"/>
      <point x="643" y="0" type="curve"/>
      <point x="643" y="115"/>
      <point x="643" y="229"/>
      <point x="643" y="344" type="curve"/>
      <point x="643" y="458"/>
      <point x="634" y="538"/>
      <point x="535" y="538" type="curve"/>
      <point x="450" y="538"/>
      <point x="410" y="455"/>
      <point x="393" y="365" type="curve"/>
      <point x="405" y="354"/>
      <point x="393" y="365"/>
    </contour>
    <contour>
      <point x="173" y="354" type="curve"/>
      <point x="195" y="435"/>
      <point x="226" y="518"/>
      <point x="298" y="518" type="curve"/>
      <point x="385" y="518"/>
      <point x="387" y="443"/>
      <point x="387" y="341" type="curve"/>
      <point x="387" y="228"/>
      <point x="387" y="114"/>
      <point x="387" y="0" type="curve"/>
      <point x="411" y="0"/>
      <point x="387" y="0"/>
      <point x="411" y="0" type="curve"/>
      <point x="411" y="115"/>
      <point x="411" y="229"/>
      <point x="411" y="344" type="curve"/>
      <point x="411" y="458"/>
      <point x="402" y="539"/>
      <point x="303" y="539" type="curve"/>
      <point x="217" y="539"/>
      <point x="178" y="456"/>
      <point x="161" y="365" type="curve"/>
      <point x="173" y="354"/>
      <point x="161" y="365"/>
    </contour>
    <contour>
      <point x="178" y="0" type="curve"/>
      <point x="178" y="178"/>
      <point x="178" y="355"/>
      <point x="178" y="533" type="curve"/>
      <point x="154" y="533"/>
      <point x="178" y="533"/>
      <point x="154" y="533" type="curve"/>
      <point x="154" y="355"/>
      <point x="154" y="178"/>
      <point x="154" y="0" type="curve"/>
      <point x="178" y="0"/>
      <point x="154" y="0"/>
    </contour>
  </outline>
</glyph>
<glyph name="p" format="1">
  <advance width="508.0"/>
  <unicode hex="0070"/>
  <outline>
    <contour>
      <point x="138" y="-278" type="curve"/>
      <point x="6" y="-278"/>
      <point x="138" y="-278"/>
      <point x="6" y="-278" type="curve"/>
      <point x="6" y="-300"/>
      <point x="6" y="-278"/>
      <point x="6" y="-300" type="curve"/>
      <point x="50" y="-300"/>
      <point x="94" y="-300"/>
      <point x="138" y="-300" type="curve"/>
      <point x="138" y="-278"/>
      <point x="138" y="-300"/>
    </contour>
    <contour>
      <point x="138" y="-300" type="curve"/>
      <point x="180" y="-300"/>
      <point x="221" y="-300"/>
      <point x="263" y="-300" type="curve"/>
      <point x="263" y="-278"/>
      <point x="263" y="-300"/>
      <point x="263" y="-278" type="curve"/>
      <point x="138" y="-278"/>
      <point x="263" y="-278"/>
      <point x="138" y="-278" type="curve"/>
      <point x="138" y="-300"/>
      <point x="138" y="-278"/>
    </contour>
    <contour>
      <point x="139" y="533" type="curve"/>
      <point x="95" y="533"/>
      <point x="51" y="533"/>
      <point x="7" y="533" type="curve"/>
      <point x="7" y="511"/>
      <point x="7" y="533"/>
      <point x="7" y="511" type="curve"/>
      <point x="139" y="511"/>
      <point x="7" y="511"/>
      <point x="139" y="511" type="curve"/>
      <point x="139" y="533"/>
      <point x="139" y="511"/>
    </contour>
    <contour>
      <point x="144" y="423" type="curve"/>
      <point x="167" y="464"/>
      <point x="218" y="517"/>
      <point x="287" y="517" type="curve"/>
      <point x="394" y="517"/>
      <point x="420" y="404"/>
      <point x="420" y="276" type="curve"/>
      <point x="422" y="139"/>
      <point x="395" y="17"/>
      <point x="286" y="17" type="curve"/>
      <point x="219" y="17"/>
      <point x="184" y="65"/>
      <point x="146" y="122" type="curve"/>
      <point x="130" y="110"/>
      <point x="146" y="122"/>
      <point x="130" y="110" type="curve"/>
      <point x="170" y="46"/>
      <point x="211" y="-5"/>
      <point x="286" y="-5" type="curve"/>
      <point x="415" y="-5"/>
      <point x="444" y="128"/>
      <point x="444" y="278" type="curve"/>
      <point x="444" y="417"/>
      <point x="409" y="538"/>
      <point x="288" y="538" type="curve"/>
      <point x="213" y="538"/>
      <point x="157" y="484"/>
      <point x="132" y="438" type="curve"/>
      <point x="144" y="423"/>
      <point x="132" y="438"/>
    </contour>
    <contour>
      <point x="150" y="-300" type="curve"/>
      <point x="150" y="-22"/>
      <point x="150" y="255"/>
      <point x="150" y="533" type="curve"/>
      <point x="126" y="533"/>
      <point x="150" y="533"/>
      <point x="126" y="533" type="curve"/>
      <point x="126" y="255"/>
      <point x="126" y="-22"/>
      <point x="126" y="-300" type="curve"/>
      <point x="150" y="-300"/>
      <point x="126" y="-300"/>
    </contour>
  </outline>
</glyph>
<glyph name="q" format="1">
  <advance width="505.0"/>
  <unicode hex="0071"/>
  <outline>
    <contour>
      <point x="373" y="511" type="curve"/>
      <point x="498" y="511"/>
      <point x="373" y="511"/>
      <point x="498" y="511" type="curve"/>
      <point x="498" y="533"/>
      <point x="498" y="511"/>
      <point x="498" y="533" type="curve"/>
      <point x="456" y="533"/>
      <point x="414" y="533"/>
      <point x="373" y="533" type="curve"/>
      <point x="373" y="511"/>
      <point x="373" y="533"/>
    </contour>
    <contour>
      <point x="373" y="-278" type="curve"/>
      <point x="241" y="-278"/>
      <point x="373.0" y="-278.0"/>
      <point x="241" y="-278" type="curve"/>
      <point x="241" y="-300"/>
      <point x="241" y="-278"/>
      <point x="241" y="-300" type="curve"/>
      <point x="285.0" y="-300.0"/>
      <point x="329" y="-300"/>
      <point x="373" y="-300" type="curve"/>
      <point x="373" y="-278"/>
      <point x="373" y="-300"/>
    </contour>
    <contour>
      <point x="373" y="-300" type="curve"/>
      <point x="414" y="-300"/>
      <point x="456" y="-300"/>
      <point x="498" y="-300" type="curve"/>
      <point x="498" y="-278"/>
      <point x="498" y="-300"/>
      <point x="498" y="-278" type="curve"/>
      <point x="373" y="-278"/>
      <point x="498" y="-278"/>
      <point x="373" y="-278" type="curve"/>
      <point x="373" y="-300"/>
      <point x="373.0" y="-278.0"/>
    </contour>
    <contour>
      <point x="378" y="444" type="curve"/>
      <point x="341" y="496"/>
      <point x="285" y="538"/>
      <point x="222" y="538" type="curve"/>
      <point x="95" y="538"/>
      <point x="62" y="409"/>
      <point x="62" y="264" type="curve"/>
      <point x="63" y="120"/>
      <point x="99" y="-6"/>
      <point x="224" y="-6" type="curve"/>
      <point x="296" y="-6"/>
      <point x="348" y="58"/>
      <point x="378" y="121" type="curve"/>
      <point x="365" y="133"/>
      <point x="378" y="124"/>
      <point x="365" y="136" type="curve"/>
      <point x="336" y="77"/>
      <point x="289" y="16"/>
      <point x="224" y="16" type="curve"/>
      <point x="116" y="16"/>
      <point x="87" y="134"/>
      <point x="87" y="265" type="curve"/>
      <point x="87" y="396"/>
      <point x="114" y="516"/>
      <point x="223" y="516" type="curve"/>
      <point x="281" y="516"/>
      <point x="332" y="474"/>
      <point x="367" y="427" type="curve"/>
      <point x="378" y="440"/>
      <point x="367" y="431"/>
    </contour>
    <contour>
      <point x="384" y="-300" type="curve"/>
      <point x="384" y="-22"/>
      <point x="384" y="255"/>
      <point x="384" y="533" type="curve"/>
      <point x="359" y="533"/>
      <point x="384" y="533"/>
      <point x="359" y="533" type="curve"/>
      <point x="359" y="255"/>
      <point x="359" y="-22"/>
      <point x="359" y="-300" type="curve"/>
      <point x="384" y="-300"/>
      <point x="359" y="-300"/>
    </contour>
  </outline>
</glyph>
<glyph name="r" format="1">
  <advance width="371.0"/>
  <unicode hex="0072"/>
  <outline>
    <contour>
      <point x="166" y="0" type="curve"/>
      <point x="208" y="0"/>
      <point x="250" y="0"/>
      <point x="291" y="0" type="curve"/>
      <point x="291" y="22"/>
      <point x="291" y="0"/>
      <point x="291" y="22" type="curve"/>
      <point x="166" y="22"/>
      <point x="291" y="22"/>
      <point x="166" y="22" type="curve"/>
      <point x="166" y="0"/>
      <point x="166" y="22"/>
    </contour>
    <contour>
      <point x="166" y="22" type="curve"/>
      <point x="34" y="22"/>
      <point x="166" y="22"/>
      <point x="34" y="22" type="curve"/>
      <point x="34" y="0"/>
      <point x="34" y="22"/>
      <point x="34" y="0" type="curve"/>
      <point x="78" y="0"/>
      <point x="122" y="0"/>
      <point x="166" y="0" type="curve"/>
      <point x="166" y="22"/>
      <point x="166" y="0"/>
    </contour>
    <contour>
      <point x="166" y="533" type="curve"/>
      <point x="122" y="533"/>
      <point x="78" y="533"/>
      <point x="34" y="533" type="curve"/>
      <point x="34" y="511"/>
      <point x="34" y="533"/>
      <point x="34" y="511" type="curve"/>
      <point x="166" y="511"/>
      <point x="34" y="511"/>
      <point x="166" y="511" type="curve"/>
      <point x="166" y="533"/>
      <point x="166" y="511"/>
    </contour>
    <contour>
      <point x="178" y="0" type="curve"/>
      <point x="178" y="178"/>
      <point x="178" y="355"/>
      <point x="178" y="533" type="curve"/>
      <point x="154" y="533"/>
      <point x="178" y="533"/>
      <point x="154" y="533" type="curve"/>
      <point x="154" y="355"/>
      <point x="154" y="178"/>
      <point x="154" y="0" type="curve"/>
      <point x="178" y="0"/>
      <point x="154" y="0"/>
    </contour>
    <contour>
      <point x="172" y="394" type="curve"/>
      <point x="201" y="467"/>
      <point x="262" y="516"/>
      <point x="341" y="516" type="curve"/>
      <point x="341" y="543"/>
      <point x="341" y="511"/>
      <point x="341" y="538" type="curve"/>
      <point x="255" y="538"/>
      <point x="193" y="492"/>
      <point x="160" y="414" type="curve"/>
      <point x="172" y="402"/>
      <point x="165" y="403"/>
    </contour>
    <contour>
      <point x="165.0" y="669.0" type="move" name="top"/>
    </contour>
    <contour>
      <point x="177.0" y="15.0" type="move" name="bottom"/>
    </contour>
  </outline>
</glyph>
<glyph name="s" format="1">
  <advance width="382.0"/>
  <unicode hex="0073"/>
  <outline>
    <contour>
      <point x="62" y="49" type="curve"/>
      <point x="104" y="17"/>
      <point x="149" y="-5"/>
      <point x="200" y="-5" type="curve"/>
      <point x="280.0" y="-5.0"/>
      <point x="319" y="52"/>
      <point x="319" y="131" type="curve"/>
      <point x="318" y="214"/>
      <point x="270.816524281" y="252.61970102"/>
      <point x="197" y="287" type="curve"/>
      <point x="138.452919764" y="313.245242864"/>
      <point x="108" y="353"/>
      <point x="108" y="421" type="curve"/>
      <point x="108" y="474"/>
      <point x="135.0" y="516.0"/>
      <point x="188" y="516" type="curve"/>
      <point x="229" y="516"/>
      <point x="260" y="501"/>
      <point x="290" y="473" type="curve"/>
      <point x="294" y="480"/>
      <point x="297" y="485"/>
      <point x="301" y="492" type="curve"/>
      <point x="268" y="522"/>
      <point x="234" y="538"/>
      <point x="189" y="538" type="curve"/>
      <point x="123.0" y="538.0"/>
      <point x="86" y="487"/>
      <point x="86" y="421" type="curve"/>
      <point x="86" y="344"/>
      <point x="121.435844858" y="297.257188374"/>
      <point x="190" y="266" type="curve"/>
      <point x="252.817964789" y="236.617403566"/>
      <point x="296" y="204"/>
      <point x="295" y="131" type="curve"/>
      <point x="295" y="67"/>
      <point x="263.0" y="17.0"/>
      <point x="204" y="17" type="curve"/>
      <point x="155" y="17"/>
      <point x="114" y="38"/>
      <point x="74" y="68" type="curve"/>
      <point x="62" y="49"/>
      <point x="74" y="68"/>
    </contour>
    <contour>
      <point x="279" y="492" type="curve"/>
      <point x="279" y="372"/>
      <point x="279" y="492"/>
      <point x="279" y="372" type="curve"/>
      <point x="301" y="372"/>
      <point x="279" y="372"/>
      <point x="301" y="372" type="curve"/>
      <point x="301" y="492"/>
      <point x="301" y="372"/>
      <point x="301" y="492" type="curve"/>
      <point x="293" y="492"/>
      <point x="287" y="492"/>
    </contour>
    <contour>
      <point x="84" y="49" type="curve"/>
      <point x="84" y="169"/>
      <point x="84" y="49"/>
      <point x="84" y="169" type="curve"/>
      <point x="62" y="169"/>
      <point x="84" y="169"/>
      <point x="62" y="169" type="curve"/>
      <point x="62" y="49"/>
      <point x="62" y="169"/>
      <point x="62" y="49" type="curve"/>
      <point x="84" y="49"/>
      <point x="62" y="49"/>
    </contour>
    <contour>
      <point x="183.0" y="669.0" type="move" name="top"/>
    </contour>
    <contour>
      <point x="182.0" y="5.0" type="move" name="bottom"/>
    </contour>
  </outline>
</glyph>
<glyph name="t" format="1">
  <advance width="314.0"/>
  <unicode hex="0074"/>
  <outline>
    <contour>
      <point x="20.1" y="476.035873418" type="curve"/>
      <point x="20.1" y="476.035873418"/>
      <point x="293.8" y="476.035873418"/>
      <point x="293.8" y="476.035873418" type="curve"/>
      <point x="293.8" y="497.595873418"/>
      <point x="293.8" y="476.035873418"/>
      <point x="293.8" y="497.595873418" type="curve"/>
      <point x="293.8" y="497.595873418"/>
      <point x="20.1" y="497.595873418"/>
      <point x="20.1" y="497.595873418" type="curve"/>
      <point x="20.1" y="476.035873418"/>
      <point x="20.1" y="497.595873418"/>
    </contour>
    <contour>
      <point x="275.0" y="46.0" type="curve"/>
      <point x="254.0" y="30.0"/>
      <point x="235.918429003" y="19.0"/>
      <point x="209.0" y="19.0" type="curve"/>
      <point x="151" y="19"/>
      <point x="140.0" y="71.9577424936"/>
      <point x="140.0" y="144.541873418" type="curve"/>
      <point x="140.0" y="144.541873418"/>
      <point x="140.0" y="651.007873418"/>
      <point x="140.0" y="651.007873418" type="curve"/>
      <point x="115.8" y="636.993873418"/>
      <point x="140.0" y="651.007873418"/>
      <point x="115.8" y="636.993873418" type="curve"/>
      <point x="115.8" y="636.993873418"/>
      <point x="115.8" y="143.463873418"/>
      <point x="115.8" y="143.463873418" type="curve"/>
      <point x="115.8" y="56.4291230195"/>
      <point x="132.981804526" y="-5.01012658228"/>
      <point x="206.6" y="-5.01012658228" type="curve"/>
      <point x="238.798877191" y="-5.01012658228"/>
      <point x="261.0" y="5.0"/>
      <point x="287.0" y="24.0" type="curve"/>
      <point x="275.0" y="46.0"/>
      <point x="287.0" y="24.0"/>
    </contour>
    <contour>
      <point x="195.0" y="7.0" type="move" name="bottom"/>
    </contour>
  </outline>
</glyph>
<glyph name="u" format="1">
  <advance width="527.0"/>
  <unicode hex="0075"/>
  <outline>
    <contour>
      <point x="394" y="533" type="curve"/>
      <point x="350" y="533"/>
      <point x="306" y="533"/>
      <point x="262" y="533" type="curve"/>
      <point x="262" y="511"/>
      <point x="262" y="533"/>
      <point x="262" y="511" type="curve"/>
      <point x="394" y="511"/>
      <point x="262" y="511"/>
      <point x="394" y="511" type="curve"/>
      <point x="394" y="533"/>
      <point x="394" y="511"/>
    </contour>
    <contour>
      <point x="138" y="533" type="curve"/>
      <point x="94" y="533"/>
      <point x="50" y="533"/>
      <point x="6" y="533" type="curve"/>
      <point x="6" y="511"/>
      <point x="6" y="533"/>
      <point x="6" y="511" type="curve"/>
      <point x="138" y="511"/>
      <point x="6" y="511"/>
      <point x="138" y="511" type="curve"/>
      <point x="138" y="533"/>
      <point x="138" y="511"/>
    </contour>
    <contour>
      <point x="394" y="0" type="curve"/>
      <point x="436" y="0"/>
      <point x="477" y="0"/>
      <point x="519" y="0" type="curve"/>
      <point x="519" y="22"/>
      <point x="519" y="0"/>
      <point x="519" y="22" type="curve"/>
      <point x="394" y="22"/>
      <point x="519" y="22"/>
      <point x="394" y="22" type="curve"/>
      <point x="394" y="0"/>
      <point x="394" y="22"/>
    </contour>
    <contour>
      <point x="406" y="0" type="curve"/>
      <point x="406" y="178"/>
      <point x="406" y="355"/>
      <point x="406" y="533" type="curve"/>
      <point x="382" y="533"/>
      <point x="406" y="533"/>
      <point x="382" y="533" type="curve"/>
      <point x="382" y="355"/>
      <point x="382" y="178"/>
      <point x="382" y="0" type="curve"/>
      <point x="406" y="0"/>
      <point x="382" y="0"/>
    </contour>
    <contour>
      <point x="385" y="161" type="curve"/>
      <point x="365" y="100"/>
      <point x="318.054263566" y="17.0"/>
      <point x="258" y="17" type="curve"/>
      <point x="173" y="17"/>
      <point x="150" y="91"/>
      <point x="150" y="187" type="curve"/>
      <point x="150" y="302"/>
      <point x="150" y="418"/>
      <point x="150" y="533" type="curve"/>
      <point x="126" y="533"/>
      <point x="150" y="533"/>
      <point x="126" y="533" type="curve"/>
      <point x="126" y="417"/>
      <point x="126" y="301"/>
      <point x="126" y="185" type="curve"/>
      <point x="126" y="76"/>
      <point x="157" y="-5"/>
      <point x="255" y="-5" type="curve"/>
      <point x="331" y="-5"/>
      <point x="378" y="80"/>
      <point x="401" y="151" type="curve"/>
      <point x="385.234981609" y="161.51001226"/>
      <point x="401" y="151"/>
    </contour>
    <contour>
      <point x="256.0" y="669.0" type="move" name="top"/>
    </contour>
    <contour>
      <point x="407.0" y="11.0" type="move" name="bottom"/>
    </contour>
  </outline>
</glyph>
<glyph name="v" format="1">
  <advance width="550.0"/>
  <unicode hex="0076"/>
  <outline>
    <contour>
      <point x="133" y="533" type="curve"/>
      <point x="89" y="533"/>
      <point x="45" y="533"/>
      <point x="1" y="533" type="curve"/>
      <point x="1" y="511"/>
      <point x="1" y="533"/>
      <point x="1" y="511" type="curve"/>
      <point x="133" y="511"/>
      <point x="1" y="511"/>
      <point x="133" y="511" type="curve"/>
      <point x="133" y="533"/>
      <point x="133" y="511"/>
    </contour>
    <contour>
      <point x="133" y="511" type="curve"/>
      <point x="246.0" y="511.0"/>
      <point x="133.0" y="511.0"/>
      <point x="246" y="511" type="curve"/>
      <point x="246" y="533"/>
      <point x="246" y="511"/>
      <point x="246" y="533" type="curve"/>
      <point x="207.766917293" y="533.0"/>
      <point x="170.383458647" y="533.0"/>
      <point x="133" y="533" type="curve"/>
      <point x="133" y="511"/>
      <point x="133" y="533"/>
    </contour>
    <contour>
      <point x="420" y="533" type="curve"/>
      <point x="383" y="533"/>
      <point x="345" y="533"/>
      <point x="308" y="533" type="curve"/>
      <point x="308" y="511"/>
      <point x="308" y="533"/>
      <point x="308" y="511" type="curve"/>
      <point x="420" y="511"/>
      <point x="308" y="511"/>
      <point x="420" y="511" type="curve"/>
      <point x="420" y="533"/>
      <point x="420" y="511"/>
    </contour>
    <contour>
      <point x="420" y="511" type="curve"/>
      <point x="552" y="511"/>
      <point x="420" y="511"/>
      <point x="552" y="511" type="curve"/>
      <point x="552" y="533"/>
      <point x="552" y="511"/>
      <point x="552" y="533" type="curve"/>
      <point x="508" y="533"/>
      <point x="464" y="533"/>
      <point x="420" y="533" type="curve"/>
      <point x="420" y="511"/>
      <point x="420" y="533"/>
    </contour>
    <contour>
      <point x="113" y="533" type="curve"/>
      <point x="162" y="355"/>
      <point x="211" y="178"/>
      <point x="259" y="0" type="curve"/>
      <point x="283" y="0"/>
      <point x="259" y="0"/>
      <point x="283" y="0" type="curve"/>
      <point x="235" y="178"/>
      <point x="187" y="355"/>
      <point x="140" y="533" type="curve"/>
      <point x="113" y="533"/>
      <point x="140" y="533"/>
    </contour>
    <contour>
      <point x="414" y="533" type="curve"/>
      <point x="414" y="533"/>
      <point x="262" y="0"/>
      <point x="262" y="0" type="curve"/>
      <point x="287" y="0"/>
      <point x="262" y="0"/>
      <point x="287" y="0" type="curve"/>
      <point x="338" y="178"/>
      <point x="389" y="355"/>
      <point x="440" y="533" type="curve"/>
      <point x="414" y="533"/>
      <point x="440" y="533"/>
    </contour>
  </outline>
</glyph>
<glyph name="w" format="1">
  <advance width="777.0"/>
  <unicode hex="0077"/>
  <outline>
    <contour>
      <point x="647.0" y="511.0" type="curve"/>
      <point x="779.0" y="511.0"/>
      <point x="647.0" y="511.0"/>
      <point x="779.0" y="511.0" type="curve"/>
      <point x="779.0" y="533.0"/>
      <point x="779.0" y="511.0"/>
      <point x="779.0" y="533.0" type="curve"/>
      <point x="735.0" y="533.0"/>
      <point x="691.0" y="533.0"/>
      <point x="647.0" y="533.0" type="curve"/>
      <point x="647.0" y="511.0"/>
      <point x="647.0" y="533.0"/>
    </contour>
    <contour>
      <point x="647.0" y="533.0" type="curve"/>
      <point x="603.0" y="533.0"/>
      <point x="579.0" y="533.0"/>
      <point x="535.0" y="533.0" type="curve"/>
      <point x="535.0" y="511.0"/>
      <point x="535.0" y="533.0"/>
      <point x="535.0" y="511.0" type="curve"/>
      <point x="667.0" y="511.0"/>
      <point x="515.0" y="511.0"/>
      <point x="647.0" y="511.0" type="curve"/>
      <point x="647.0" y="533.0"/>
      <point x="647.0" y="511.0"/>
    </contour>
    <contour>
      <point x="133.0" y="533.0" type="curve"/>
      <point x="89.0" y="533.0"/>
      <point x="45.0" y="533.0"/>
      <point x="1.0" y="533.0" type="curve"/>
      <point x="1.0" y="511.0"/>
      <point x="1.0" y="533.0"/>
      <point x="1.0" y="511.0" type="curve"/>
      <point x="133.0" y="511.0"/>
      <point x="1.0" y="511.0"/>
      <point x="133.0" y="511.0" type="curve"/>
      <point x="133.0" y="533.0"/>
      <point x="133.0" y="511.0"/>
    </contour>
    <contour>
      <point x="133.0" y="511.0" type="curve"/>
      <point x="265.0" y="511.0"/>
      <point x="123.0" y="511.0"/>
      <point x="255.0" y="511.0" type="curve"/>
      <point x="255.0" y="533.0"/>
      <point x="255.0" y="511.0"/>
      <point x="255.0" y="533.0" type="curve"/>
      <point x="211.0" y="533.0"/>
      <point x="177.0" y="533.0"/>
      <point x="133.0" y="533.0" type="curve"/>
      <point x="133.0" y="511.0"/>
      <point x="133.0" y="533.0"/>
    </contour>
    <contour>
      <point x="263.0" y="0.0" type="curve"/>
      <point x="311.0" y="178.0"/>
      <point x="358.0" y="355.0"/>
      <point x="406.0" y="533.0" type="curve"/>
      <point x="379.0" y="533.0"/>
      <point x="406.0" y="533.0"/>
      <point x="379.0" y="533.0" type="curve"/>
      <point x="333.0" y="355.0"/>
      <point x="286.0" y="178.0"/>
      <point x="240.0" y="0.0" type="curve"/>
      <point x="263.0" y="0.0"/>
      <point x="240.0" y="0.0"/>
    </contour>
    <contour>
      <point x="643.0" y="533.0" type="curve"/>
      <point x="600.0" y="355.0"/>
      <point x="556.0" y="178.0"/>
      <point x="513.0" y="0.0" type="curve"/>
      <point x="536.0" y="0.0"/>
      <point x="513.0" y="0.0"/>
      <point x="536.0" y="0.0" type="curve"/>
      <point x="581.0" y="178.0"/>
      <point x="625.0" y="355.0"/>
      <point x="670.0" y="533.0" type="curve"/>
      <point x="643.0" y="533.0"/>
      <point x="670.0" y="533.0"/>
    </contour>
    <contour>
      <point x="384.0" y="533.0" type="curve"/>
      <point x="427.0" y="355.0"/>
      <point x="469.0" y="178.0"/>
      <point x="512.0" y="0.0" type="curve"/>
      <point x="535.0" y="0.0"/>
      <point x="512.0" y="0.0"/>
      <point x="535.0" y="0.0" type="curve"/>
      <point x="493.0" y="178.0"/>
      <point x="451.0" y="355.0"/>
      <point x="409.0" y="533.0" type="curve"/>
      <point x="384.0" y="533.0"/>
      <point x="409.0" y="533.0"/>
    </contour>
    <contour>
      <point x="111.0" y="533.0" type="curve"/>
      <point x="154.0" y="355.0"/>
      <point x="197.0" y="178.0"/>
      <point x="239.0" y="0.0" type="curve"/>
      <point x="262.0" y="0.0"/>
      <point x="239.0" y="0.0"/>
      <point x="262.0" y="0.0" type="curve"/>
      <point x="220.0" y="178.0"/>
      <point x="179.0" y="355.0"/>
      <point x="137.0" y="533.0" type="curve"/>
      <point x="111.0" y="533.0"/>
      <point x="137.0" y="533.0"/>
    </contour>
  </outline>
</glyph>
<glyph name="x" format="1">
  <advance width="564.0"/>
  <unicode hex="0078"/>
  <outline>
    <contour>
      <point x="137.0" y="22.0" type="curve"/>
      <point x="5.0" y="22.0"/>
      <point x="137.0" y="22.0"/>
      <point x="5.0" y="22.0" type="curve"/>
      <point x="5.0" y="0.0"/>
      <point x="5.0" y="22.0"/>
      <point x="5.0" y="0.0" type="curve"/>
      <point x="49.0" y="0.0"/>
      <point x="93.0" y="0.0"/>
      <point x="137.0" y="0.0" type="curve"/>
      <point x="137.0" y="22.0"/>
      <point x="137.0" y="0.0"/>
    </contour>
    <contour>
      <point x="426.0" y="22.0" type="curve"/>
      <point x="304.819672131" y="22.0"/>
      <point x="435.180327869" y="22.0"/>
      <point x="314" y="22" type="curve"/>
      <point x="314" y="0"/>
      <point x="314" y="22"/>
      <point x="314" y="0" type="curve"/>
      <point x="354.393442623" y="0.0"/>
      <point x="385.606557377" y="0.0"/>
      <point x="426.0" y="0.0" type="curve"/>
      <point x="426.0" y="22.0"/>
      <point x="426.0" y="0.0"/>
    </contour>
    <contour>
      <point x="426.0" y="0.0" type="curve"/>
      <point x="470.0" y="0.0"/>
      <point x="514.0" y="0.0"/>
      <point x="558.0" y="0.0" type="curve"/>
      <point x="558.0" y="22.0"/>
      <point x="558.0" y="0.0"/>
      <point x="558.0" y="22.0" type="curve"/>
      <point x="426.0" y="22.0"/>
      <point x="558.0" y="22.0"/>
      <point x="426.0" y="22.0" type="curve"/>
      <point x="426.0" y="0.0"/>
      <point x="426.0" y="22.0"/>
    </contour>
    <contour>
      <point x="137.0" y="0.0" type="curve"/>
      <point x="177.393442623" y="0.0"/>
      <point x="127.819672131" y="0.0"/>
      <point x="249" y="0" type="curve"/>
      <point x="249" y="22"/>
      <point x="249" y="0"/>
      <point x="249" y="22" type="curve"/>
      <point x="127.819672131" y="22.0"/>
      <point x="258.180327869" y="22.0"/>
      <point x="137.0" y="22.0" type="curve"/>
      <point x="137.0" y="0.0"/>
      <point x="137.0" y="22.0"/>
    </contour>
    <contour>
      <point x="414.0" y="511.0" type="curve"/>
      <point x="547.0" y="511.0"/>
      <point x="414.0" y="511.0"/>
      <point x="547.0" y="511.0" type="curve"/>
      <point x="547.0" y="533.0"/>
      <point x="547.0" y="511.0"/>
      <point x="547.0" y="533.0" type="curve"/>
      <point x="502.0" y="533.0"/>
      <point x="458.0" y="533.0"/>
      <point x="414.0" y="533.0" type="curve"/>
      <point x="414.0" y="511.0"/>
      <point x="414.0" y="533.0"/>
    </contour>
    <contour>
      <point x="151.0" y="533.0" type="curve"/>
      <point x="107.0" y="533.0"/>
      <point x="63.0" y="533.0"/>
      <point x="19.0" y="533.0" type="curve"/>
      <point x="19.0" y="511.0"/>
      <point x="19.0" y="533.0"/>
      <point x="19.0" y="511.0" type="curve"/>
      <point x="151.0" y="511.0"/>
      <point x="19.0" y="511.0"/>
      <point x="151.0" y="511.0" type="curve"/>
      <point x="151.0" y="533.0"/>
      <point x="151.0" y="511.0"/>
    </contour>
    <contour>
      <point x="151.0" y="511.0" type="curve"/>
      <point x="271.214285714" y="511.0"/>
      <point x="132.785714286" y="511.0"/>
      <point x="253" y="511" type="curve"/>
      <point x="253" y="533"/>
      <point x="253" y="511"/>
      <point x="253" y="533" type="curve"/>
      <point x="212.928571429" y="533.0"/>
      <point x="191.071428571" y="533.0"/>
      <point x="151.0" y="533.0" type="curve"/>
      <point x="151.0" y="511.0"/>
      <point x="151.0" y="533.0"/>
    </contour>
    <contour>
      <point x="414.0" y="533.0" type="curve"/>
      <point x="373.928571429" y="533.0"/>
      <point x="352.071428571" y="533.0"/>
      <point x="312" y="533" type="curve"/>
      <point x="312" y="511"/>
      <point x="312" y="533"/>
      <point x="312" y="511" type="curve"/>
      <point x="432.214285714" y="511.0"/>
      <point x="293.785714286" y="511.0"/>
      <point x="414.0" y="511.0" type="curve"/>
      <point x="414.0" y="533.0"/>
      <point x="414.0" y="511.0"/>
    </contour>
    <contour>
      <point x="450.0" y="0.0" type="curve"/>
      <point x="352.0" y="178.0"/>
      <point x="255.0" y="355.0"/>
      <point x="157.0" y="533.0" type="curve"/>
      <point x="130.0" y="533.0"/>
      <point x="157.0" y="533.0"/>
      <point x="130.0" y="533.0" type="curve"/>
      <point x="227.0" y="355.0"/>
      <point x="324.0" y="178.0"/>
      <point x="420.0" y="0.0" type="curve"/>
      <point x="450.0" y="0.0"/>
      <point x="420.0" y="0.0"/>
    </contour>
    <contour>
      <point x="410.0" y="533.0" type="curve"/>
      <point x="311.0" y="355.0"/>
      <point x="212.0" y="178.0"/>
      <point x="114.0" y="0.0" type="curve"/>
      <point x="144.0" y="0.0"/>
      <point x="114.0" y="0.0"/>
      <point x="144.0" y="0.0" type="curve"/>
      <point x="242.0" y="178.0"/>
      <point x="339.0" y="355.0"/>
      <point x="437.0" y="533.0" type="curve"/>
      <point x="410.0" y="533.0"/>
      <point x="437.0" y="533.0"/>
    </contour>
  </outline>
</glyph>
<glyph name="exclamdown" format="1">
  <advance width="209.0"/>
  <unicode hex="00A1"/>
  <outline>
    <contour>
      <point x="89.0" y="703.0" type="curve"/>
      <point x="89.0" y="694.0"/>
      <point x="95.0" y="689.0"/>
      <point x="104.0" y="689.0" type="curve"/>
      <point x="113.0" y="689.0"/>
      <point x="118.0" y="695.0"/>
      <point x="118.0" y="703.0" type="curve"/>
      <point x="89.0" y="703.0"/>
      <point x="118.0" y="703.0"/>
      <point x="89.0" y="703.0" type="curve"/>
      <point x="89.0" y="712.0"/>
      <point x="95.0" y="717.0"/>
      <point x="104.0" y="717.0" type="curve"/>
      <point x="113.0" y="717.0"/>
      <point x="118.0" y="712.0"/>
      <point x="118.0" y="703.0" type="curve"/>
      <point x="89.0" y="703.0"/>
      <point x="118.0" y="703.0"/>
    </contour>
    <contour>
      <point x="92.0" y="493.0" type="curve"/>
      <point x="92.0" y="329.0"/>
      <point x="92.0" y="164.0"/>
      <point x="92.0" y="0.0" type="curve"/>
      <point x="117.0" y="0.0"/>
      <point x="92.0" y="0.0"/>
      <point x="117.0" y="0.0" type="curve"/>
      <point x="117.0" y="164.0"/>
      <point x="117.0" y="329.0"/>
      <point x="117.0" y="493.0" type="curve"/>
      <point x="92.0" y="493.0"/>
      <point x="117.0" y="493.0"/>
    </contour>
  </outline>
</glyph>
<glyph name="cent" format="1">
  <advance width="478.0"/>
  <unicode hex="00A2"/>
  <outline>
    <contour>
      <point x="260.0" y="-53.0" type="curve"/>
      <point x="260.0" y="-13.0"/>
      <point x="260.0" y="27.0"/>
      <point x="260.0" y="67.0" type="curve"/>
      <point x="235.0" y="67.0"/>
      <point x="260.0" y="67.0"/>
      <point x="235.0" y="67.0" type="curve"/>
      <point x="235.0" y="27.0"/>
      <point x="235.0" y="-13.0"/>
      <point x="235.0" y="-53.0" type="curve"/>
      <point x="260.0" y="-53.0"/>
      <point x="235.0" y="-53.0"/>
    </contour>
    <contour>
      <point x="250.0" y="778.0" type="curve"/>
      <point x="250.0" y="742.0"/>
      <point x="250.0" y="706.0"/>
      <point x="250.0" y="670.0" type="curve"/>
      <point x="274.0" y="670.0"/>
      <point x="250.0" y="670.0"/>
      <point x="274.0" y="670.0" type="curve"/>
      <point x="274.0" y="706.0"/>
      <point x="274.0" y="742.0"/>
      <point x="274.0" y="778.0" type="curve"/>
      <point x="250.0" y="778.0"/>
      <point x="274.0" y="778.0"/>
    </contour>
    <contour>
      <point x="417.0" y="603.0" type="curve"/>
      <point x="371.996234422" y="655.004351335"/>
      <point x="329.0" y="679.0"/>
      <point x="265.0" y="679.0" type="curve"/>
      <point x="112.0" y="679.0"/>
      <point x="60.0" y="540.0"/>
      <point x="60.0" y="366.0" type="curve"/>
      <point x="60.0" y="196.0"/>
      <point x="97.0" y="54.0"/>
      <point x="246.0" y="54.0" type="curve"/>
      <point x="320.0" y="54.0"/>
      <point x="367.0" y="89.0"/>
      <point x="417.0" y="149.0" type="curve"/>
      <point x="400.0" y="164.0"/>
      <point x="417.0" y="149.0"/>
      <point x="400.0" y="164.0" type="curve"/>
      <point x="357.0" y="111.0"/>
      <point x="316.0" y="76.0"/>
      <point x="248.0" y="76.0" type="curve"/>
      <point x="116.0" y="76.0"/>
      <point x="84.0" y="210.0"/>
      <point x="84.0" y="367.0" type="curve"/>
      <point x="84.0" y="526.0"/>
      <point x="129.0" y="656.0"/>
      <point x="263.0" y="656.0" type="curve"/>
      <point x="323.0" y="656.0"/>
      <point x="362.0" y="633.0"/>
      <point x="401.0" y="590.0" type="curve"/>
      <point x="417.0" y="603.0"/>
      <point x="401.0" y="590.0"/>
    </contour>
  </outline>
</glyph>
<glyph name="currency" format="1">
  <advance width="439.0"/>
  <unicode hex="00A4"/>
  <outline>
    <contour>
      <point x="302.0" y="416.0" type="curve"/>
      <point x="324.0" y="448.0"/>
      <point x="347.0" y="479.0"/>
      <point x="369.0" y="511.0" type="curve"/>
      <point x="352.0" y="528.0"/>
      <point x="369.0" y="511.0"/>
      <point x="352.0" y="528.0" type="curve"/>
      <point x="330.0" y="497.0"/>
      <point x="308.0" y="465.0"/>
      <point x="285.0" y="433.0" type="curve"/>
      <point x="302.0" y="416.0"/>
      <point x="285.0" y="433.0"/>
    </contour>
    <contour>
      <point x="82.0" y="94.0" type="curve"/>
      <point x="104.0" y="125.0"/>
      <point x="126.0" y="156.0"/>
      <point x="148.0" y="188.0" type="curve"/>
      <point x="133.0" y="206.0"/>
      <point x="148.0" y="188.0"/>
      <point x="133.0" y="206.0" type="curve"/>
      <point x="110.0" y="174.0"/>
      <point x="88.0" y="143.0"/>
      <point x="65.0" y="111.0" type="curve"/>
      <point x="82.0" y="94.0"/>
      <point x="65.0" y="111.0"/>
    </contour>
    <contour>
      <point x="289.0" y="189.0" type="curve"/>
      <point x="312.0" y="157.0"/>
      <point x="334.0" y="126.0"/>
      <point x="356.0" y="94.0" type="curve"/>
      <point x="373.0" y="110.0"/>
      <point x="356.0" y="94.0"/>
      <point x="373.0" y="110.0" type="curve"/>
      <point x="351.0" y="142.0"/>
      <point x="328.0" y="174.0"/>
      <point x="306.0" y="206.0" type="curve"/>
      <point x="289.0" y="189.0"/>
      <point x="306.0" y="206.0"/>
    </contour>
    <contour>
      <point x="70.0" y="510.0" type="curve"/>
      <point x="92.0" y="478.0"/>
      <point x="114.0" y="447.0"/>
      <point x="137.0" y="415.0" type="curve"/>
      <point x="154.0" y="431.0"/>
      <point x="137.0" y="415.0"/>
      <point x="154.0" y="431.0" type="curve"/>
      <point x="132.0" y="463.0"/>
      <point x="109.0" y="495.0"/>
      <point x="87.0" y="527.0" type="curve"/>
      <point x="70.0" y="510.0"/>
      <point x="87.0" y="527.0"/>
    </contour>
    <contour>
      <point x="129.0" y="310.0" type="curve"/>
      <point x="129.0" y="390.0"/>
      <point x="150.0" y="458.0"/>
      <point x="221.0" y="458.0" type="curve"/>
      <point x="292.0" y="458.0"/>
      <point x="310.0" y="391.0"/>
      <point x="310.0" y="310.0" type="curve"/>
      <point x="310.0" y="227.0"/>
      <point x="295.0" y="156.0"/>
      <point x="223.0" y="156.0" type="curve"/>
      <point x="149.0" y="156.0"/>
      <point x="129.0" y="226.0"/>
      <point x="129.0" y="310.0" type="curve"/>
      <point x="105.0" y="310.0"/>
      <point x="129.0" y="310.0"/>
      <point x="105.0" y="310.0" type="curve"/>
      <point x="105.0" y="212.0"/>
      <point x="135.0" y="135.0"/>
      <point x="222.0" y="135.0" type="curve"/>
      <point x="308.0" y="135.0"/>
      <point x="335.0" y="215.0"/>
      <point x="335.0" y="311.0" type="curve"/>
      <point x="335.0" y="404.0"/>
      <point x="305.0" y="480.0"/>
      <point x="223.0" y="480.0" type="curve"/>
      <point x="137.0" y="480.0"/>
      <point x="105.0" y="405.0"/>
      <point x="105.0" y="310.0" type="curve"/>
      <point x="129.0" y="310.0"/>
      <point x="105.0" y="310.0"/>
    </contour>
  </outline>
</glyph>
<glyph name="yen" format="1">
  <advance width="653.0"/>
  <unicode hex="00A5"/>
  <outline>
    <contour>
      <point x="480.0" y="371.0" type="curve"/>
      <point x="430.0" y="371.0"/>
      <point x="381.0" y="371.0"/>
      <point x="332.0" y="371.0" type="curve"/>
      <point x="332.0" y="347.0"/>
      <point x="332.0" y="371.0"/>
      <point x="332.0" y="347.0" type="curve"/>
      <point x="381.0" y="347.0"/>
      <point x="430.0" y="347.0"/>
      <point x="480.0" y="347.0" type="curve"/>
      <point x="480.0" y="371.0"/>
      <point x="480.0" y="347.0"/>
    </contour>
    <contour>
      <point x="312.0" y="371.0" type="curve"/>
      <point x="263.0" y="371.0"/>
      <point x="215.0" y="371.0"/>
      <point x="167.0" y="371.0" type="curve"/>
      <point x="167.0" y="347.0"/>
      <point x="167.0" y="371.0"/>
      <point x="167.0" y="347.0" type="curve"/>
      <point x="215.0" y="347.0"/>
      <point x="263.0" y="347.0"/>
      <point x="312.0" y="347.0" type="curve"/>
      <point x="312.0" y="371.0"/>
      <point x="312.0" y="347.0"/>
    </contour>
    <contour>
      <point x="480.0" y="252.0" type="curve"/>
      <point x="375.0" y="252.0"/>
      <point x="271.0" y="252.0"/>
      <point x="167.0" y="252.0" type="curve"/>
      <point x="167.0" y="228.0"/>
      <point x="167.0" y="252.0"/>
      <point x="167.0" y="228.0" type="curve"/>
      <point x="271.0" y="228.0"/>
      <point x="375.0" y="228.0"/>
      <point x="480.0" y="228.0" type="curve"/>
      <point x="480.0" y="252.0"/>
      <point x="480.0" y="228.0"/>
    </contour>
    <contour>
      <point x="322.0" y="22.0" type="curve"/>
      <point x="190.0" y="22.0"/>
      <point x="322.0" y="22.0"/>
      <point x="190.0" y="22.0" type="curve"/>
      <point x="190.0" y="0.0"/>
      <point x="190.0" y="22.0"/>
      <point x="190.0" y="0.0" type="curve"/>
      <point x="234.0" y="0.0"/>
      <point x="278.0" y="0.0"/>
      <point x="322.0" y="0.0" type="curve"/>
      <point x="322.0" y="22.0"/>
      <point x="322.0" y="0.0"/>
    </contour>
    <contour>
      <point x="322.0" y="0.0" type="curve"/>
      <point x="366.0" y="0.0"/>
      <point x="410.0" y="0.0"/>
      <point x="454.0" y="0.0" type="curve"/>
      <point x="454.0" y="22.0"/>
      <point x="454.0" y="0.0"/>
      <point x="454.0" y="22.0" type="curve"/>
      <point x="322.0" y="22.0"/>
      <point x="454.0" y="22.0"/>
      <point x="322.0" y="22.0" type="curve"/>
      <point x="322.0" y="0.0"/>
      <point x="322.0" y="22.0"/>
    </contour>
    <contour>
      <point x="487.0" y="722.0" type="curve"/>
      <point x="446.333333333" y="722.0"/>
      <point x="405.666666667" y="722.0"/>
      <point x="365" y="722" type="curve"/>
      <point x="365" y="700"/>
      <point x="365" y="722"/>
      <point x="365" y="700" type="curve"/>
      <point x="487.0" y="700.0"/>
      <point x="365.0" y="700.0"/>
      <point x="487.0" y="700.0" type="curve"/>
      <point x="487.0" y="722.0"/>
      <point x="487.0" y="700.0"/>
    </contour>
    <contour>
      <point x="166.0" y="722.0" type="curve"/>
      <point x="122.0" y="722.0"/>
      <point x="78.0" y="722.0"/>
      <point x="34.0" y="722.0" type="curve"/>
      <point x="34.0" y="700.0"/>
      <point x="34.0" y="722.0"/>
      <point x="34.0" y="700.0" type="curve"/>
      <point x="166.0" y="700.0"/>
      <point x="34.0" y="700.0"/>
      <point x="166.0" y="700.0" type="curve"/>
      <point x="166.0" y="722.0"/>
      <point x="166.0" y="700.0"/>
    </contour>
    <contour>
      <point x="166.0" y="700.0" type="curve"/>
      <point x="288.0" y="700.0"/>
      <point x="166.0" y="700.0"/>
      <point x="288" y="700" type="curve"/>
      <point x="288" y="722"/>
      <point x="288" y="700"/>
      <point x="288" y="722" type="curve"/>
      <point x="247.333333333" y="722.0"/>
      <point x="206.666666667" y="722.0"/>
      <point x="166.0" y="722.0" type="curve"/>
      <point x="166.0" y="700.0"/>
      <point x="166.0" y="722.0"/>
    </contour>
    <contour>
      <point x="487.0" y="700.0" type="curve"/>
      <point x="619.0" y="700.0"/>
      <point x="487.0" y="700.0"/>
      <point x="619.0" y="700.0" type="curve"/>
      <point x="619.0" y="722.0"/>
      <point x="619.0" y="700.0"/>
      <point x="619.0" y="722.0" type="curve"/>
      <point x="575.0" y="722.0"/>
      <point x="531.0" y="722.0"/>
      <point x="487.0" y="722.0" type="curve"/>
      <point x="487.0" y="700.0"/>
      <point x="487.0" y="722.0"/>
    </contour>
    <contour>
      <point x="144.0" y="722.0" type="curve"/>
      <point x="200.0" y="593.0"/>
      <point x="255.0" y="464.0"/>
      <point x="310.0" y="335.0" type="curve"/>
      <point x="334.0" y="335.0"/>
      <point x="310.0" y="335.0"/>
      <point x="334.0" y="335.0" type="curve"/>
      <point x="280.0" y="464.0"/>
      <point x="225.0" y="593.0"/>
      <point x="171.0" y="722.0" type="curve"/>
      <point x="144.0" y="722.0"/>
      <point x="171.0" y="722.0"/>
    </contour>
    <contour>
      <point x="483.0" y="721.0" type="curve"/>
      <point x="425.0" y="593.0"/>
      <point x="368.0" y="464.0"/>
      <point x="310.0" y="335.0" type="curve"/>
      <point x="334.0" y="335.0"/>
      <point x="310.0" y="335.0"/>
      <point x="334.0" y="335.0" type="curve"/>
      <point x="392.0" y="464.0"/>
      <point x="451.0" y="592.0"/>
      <point x="509.0" y="721.0" type="curve"/>
      <point x="483.0" y="721.0"/>
      <point x="509.0" y="721.0"/>
    </contour>
    <contour>
      <point x="334.0" y="0.0" type="curve"/>
      <point x="334.0" y="112.0"/>
      <point x="334.0" y="223.0"/>
      <point x="334.0" y="335.0" type="curve"/>
      <point x="310.0" y="335.0"/>
      <point x="334.0" y="335.0"/>
      <point x="310.0" y="335.0" type="curve"/>
      <point x="310.0" y="223.0"/>
      <point x="310.0" y="112.0"/>
      <point x="310.0" y="0.0" type="curve"/>
      <point x="334.0" y="0.0"/>
      <point x="310.0" y="0.0"/>
    </contour>
  </outline>
</glyph>
<glyph name="brokenbar" format="1">
  <advance width="210.0"/>
  <unicode hex="00A6"/>
  <outline>
    <contour>
      <point x="117.1" y="-300.0" type="curve"/>
      <point x="117.1" y="-176.00124"/>
      <point x="117.1" y="-51.99876"/>
      <point x="117.1" y="72.0" type="curve"/>
      <point x="92.9" y="72.0"/>
      <point x="117.1" y="72.0"/>
      <point x="92.9" y="72.0" type="curve"/>
      <point x="92.9" y="-51.99876"/>
      <point x="92.9" y="-176.00124"/>
      <point x="92.9" y="-300.0" type="curve"/>
      <point x="117.1" y="-300.0"/>
      <point x="92.9" y="-300.0"/>
    </contour>
    <contour>
      <point x="117.1" y="428.0" type="curve"/>
      <point x="117.1" y="551.99876"/>
      <point x="117.1" y="676.00124"/>
      <point x="117.1" y="800.0" type="curve"/>
      <point x="92.9" y="800.0"/>
      <point x="117.1" y="800.0"/>
      <point x="92.9" y="800.0" type="curve"/>
      <point x="92.9" y="676.00124"/>
      <point x="92.9" y="551.99876"/>
      <point x="92.9" y="428.0" type="curve"/>
      <point x="117.1" y="428.0"/>
      <point x="92.9" y="428.0"/>
    </contour>
  </outline>
</glyph>
<glyph name="section" format="1">
  <advance width="384.0"/>
  <unicode hex="00A7"/>
  <outline>
    <contour>
      <point x="298" y="709" type="curve"/>
      <point x="264" y="736"/>
      <point x="237" y="752"/>
      <point x="194" y="752" type="curve"/>
      <point x="125" y="752"/>
      <point x="92" y="698"/>
      <point x="92" y="627" type="curve"/>
      <point x="92" y="561"/>
      <point x="121" y="515"/>
      <point x="180" y="485" type="curve"/>
      <point x="243" y="454"/>
      <point x="297" y="429"/>
      <point x="297" y="361" type="curve"/>
      <point x="297" y="295"/>
      <point x="274" y="246"/>
      <point x="212" y="228" type="curve"/>
      <point x="226" y="211"/>
      <point x="212" y="228"/>
      <point x="226" y="211" type="curve"/>
      <point x="295" y="234"/>
      <point x="321" y="288"/>
      <point x="321" y="361" type="curve"/>
      <point x="320" y="438"/>
      <point x="264" y="472"/>
      <point x="192" y="505" type="curve"/>
      <point x="141" y="530"/>
      <point x="116" y="570"/>
      <point x="116" y="627" type="curve"/>
      <point x="116" y="684"/>
      <point x="137" y="730"/>
      <point x="192" y="730" type="curve"/>
      <point x="231" y="730"/>
      <point x="256" y="715"/>
      <point x="285" y="693" type="curve"/>
      <point x="298" y="709"/>
      <point x="285" y="693"/>
    </contour>
    <contour>
      <point x="158" y="513" type="curve"/>
      <point x="95" y="485"/>
      <point x="68" y="436"/>
      <point x="68" y="367" type="curve"/>
      <point x="68" y="292"/>
      <point x="116" y="252"/>
      <point x="186" y="220" type="curve"/>
      <point x="240" y="193"/>
      <point x="277" y="160"/>
      <point x="277" y="100" type="curve"/>
      <point x="277" y="38"/>
      <point x="252" y="-8"/>
      <point x="195" y="-8" type="curve"/>
      <point x="149" y="-8"/>
      <point x="122" y="12"/>
      <point x="90" y="44" type="curve"/>
      <point x="74" y="28"/>
      <point x="90" y="44"/>
      <point x="74" y="28" type="curve"/>
      <point x="111" y="-9"/>
      <point x="144" y="-30"/>
      <point x="194" y="-30" type="curve"/>
      <point x="264" y="-30"/>
      <point x="301" y="24"/>
      <point x="301" y="100" type="curve"/>
      <point x="300" y="168"/>
      <point x="264" y="211"/>
      <point x="201" y="240" type="curve"/>
      <point x="140" y="270"/>
      <point x="92" y="301"/>
      <point x="92" y="367" type="curve"/>
      <point x="92" y="428"/>
      <point x="114" y="472"/>
      <point x="170" y="497" type="curve"/>
      <point x="158" y="513"/>
      <point x="170" y="497"/>
    </contour>
    <contour>
      <point x="96" y="28" type="curve"/>
      <point x="96" y="148"/>
      <point x="96" y="28"/>
      <point x="96" y="148" type="curve"/>
      <point x="74" y="148"/>
      <point x="96" y="148"/>
      <point x="74" y="148" type="curve"/>
      <point x="74" y="28"/>
      <point x="74" y="148"/>
      <point x="74" y="28" type="curve"/>
      <point x="96" y="28"/>
      <point x="74" y="28"/>
    </contour>
    <contour>
      <point x="298" y="589" type="curve"/>
      <point x="298" y="709"/>
      <point x="298" y="589"/>
      <point x="298" y="709" type="curve"/>
      <point x="276" y="709"/>
      <point x="298" y="709"/>
      <point x="276" y="709" type="curve"/>
      <point x="276" y="589"/>
      <point x="276" y="709"/>
      <point x="276" y="589" type="curve"/>
      <point x="298" y="589"/>
      <point x="276" y="589"/>
    </contour>
  </outline>
</glyph>
<glyph name="dieresis" format="1">
  <advance width="318.0"/>
  <unicode hex="00A8"/>
  <outline>
    <contour>
      <point x="82.0" y="669.0" type="curve"/>
      <point x="82.0" y="678.0"/>
      <point x="76.0" y="683.0"/>
      <point x="67.0" y="683.0" type="curve"/>
      <point x="58.0" y="683.0"/>
      <point x="53.0" y="677.0"/>
      <point x="53.0" y="669.0" type="curve"/>
      <point x="82.0" y="669.0"/>
      <point x="53.0" y="669.0"/>
      <point x="82.0" y="669.0" type="curve"/>
      <point x="82.0" y="660.0"/>
      <point x="76.0" y="655.0"/>
      <point x="67.0" y="655.0" type="curve"/>
      <point x="58.0" y="655.0"/>
      <point x="53.0" y="660.0"/>
      <point x="53.0" y="669.0" type="curve"/>
      <point x="82.0" y="669.0"/>
      <point x="53.0" y="669.0"/>
    </contour>
    <contour>
      <point x="166.0" y="669.0" type="curve"/>
      <point x="166.0" y="678.0"/>
      <point x="160.0" y="683.0"/>
      <point x="151.0" y="683.0" type="curve"/>
      <point x="142.0" y="683.0"/>
      <point x="137.0" y="677.0"/>
      <point x="137.0" y="669.0" type="curve"/>
      <point x="166.0" y="669.0"/>
      <point x="137.0" y="669.0"/>
      <point x="166.0" y="669.0" type="curve"/>
      <point x="166.0" y="660.0"/>
      <point x="160.0" y="655.0"/>
      <point x="151.0" y="655.0" type="curve"/>
      <point x="142.0" y="655.0"/>
      <point x="137.0" y="660.0"/>
      <point x="137.0" y="669.0" type="curve"/>
      <point x="166.0" y="669.0"/>
      <point x="137.0" y="669.0"/>
    </contour>
    <contour>
      <point x="110.0" y="669.0" type="move" name="_top"/>
    </contour>
  </outline>
</glyph>
<glyph name="ordfeminine" format="1">
  <advance width="373.0"/>
  <unicode hex="00AA"/>
  <outline>
    <contour>
      <point x="92.0" y="718.0" type="curve"/>
      <point x="92.0" y="698.0"/>
      <point x="92.0" y="683.0"/>
      <point x="92.0" y="663.0" type="curve"/>
      <point x="100.0" y="663.0"/>
      <point x="105.0" y="663.0"/>
      <point x="113.0" y="663.0" type="curve"/>
      <point x="113.0" y="683.0"/>
      <point x="113.0" y="698.0"/>
      <point x="113.0" y="718.0" type="curve"/>
      <point x="105.0" y="718.0"/>
      <point x="100.0" y="718.0"/>
    </contour>
    <contour>
      <point x="260.0" y="430.0" type="curve"/>
      <point x="260.0" y="523.0"/>
      <point x="260.0" y="589.0"/>
      <point x="260.0" y="682.0" type="curve"/>
      <point x="260.0" y="733.0"/>
      <point x="228.0" y="766.0"/>
      <point x="177.0" y="766.0" type="curve"/>
      <point x="139.0" y="766.0"/>
      <point x="116.0" y="747.0"/>
      <point x="92.0" y="718.0" type="curve"/>
      <point x="97" y="712"/>
      <point x="101" y="707"/>
      <point x="107" y="700" type="curve"/>
      <point x="123" y="721"/>
      <point x="141.0" y="744.0"/>
      <point x="174.0" y="744.0" type="curve"/>
      <point x="213.0" y="744.0"/>
      <point x="236.0" y="716.0"/>
      <point x="236.0" y="675.0" type="curve"/>
      <point x="236.0" y="584.0"/>
      <point x="236.0" y="521.0"/>
      <point x="236.0" y="430.0" type="curve"/>
      <point x="245.0" y="430.0"/>
      <point x="251.0" y="430.0"/>
    </contour>
    <contour>
      <point x="249.0" y="430.0" type="curve"/>
      <point x="266.25" y="430.0"/>
      <point x="277.75" y="430.0"/>
      <point x="295.0" y="430.0" type="curve"/>
      <point x="295.0" y="438.0"/>
      <point x="295.0" y="444.0"/>
      <point x="295.0" y="452.0" type="curve"/>
      <point x="277.75" y="452.0"/>
      <point x="266.25" y="452.0"/>
      <point x="249.0" y="452.0" type="curve"/>
      <point x="249.0" y="444.0"/>
      <point x="249.0" y="438.0"/>
    </contour>
    <contour>
      <point x="247.0" y="632.0" type="curve"/>
      <point x="216.0" y="626.0"/>
      <point x="195.0" y="623.0"/>
      <point x="164.0" y="617.0" type="curve"/>
      <point x="112.845827184" y="605.96674704"/>
      <point x="79" y="574"/>
      <point x="79" y="520" type="curve"/>
      <point x="79" y="467"/>
      <point x="108.0" y="429.0"/>
      <point x="162.0" y="429.0" type="curve"/>
      <point x="210.0" y="429.0"/>
      <point x="232.0" y="464.0"/>
      <point x="254.0" y="508.0" type="curve"/>
      <point x="250.0" y="512.0"/>
      <point x="246.0" y="516.0"/>
      <point x="242.0" y="520.0" type="curve"/>
      <point x="223.0" y="483.0"/>
      <point x="207.0" y="451.0"/>
      <point x="167.0" y="451.0" type="curve"/>
      <point x="125.0" y="451.0"/>
      <point x="103" y="481"/>
      <point x="103" y="522" type="curve"/>
      <point x="103" y="563"/>
      <point x="125.85036136" y="588.967645699"/>
      <point x="163.0" y="597.0" type="curve"/>
      <point x="194.0" y="603.0"/>
      <point x="217.0" y="607.0"/>
      <point x="248.0" y="613.0" type="curve"/>
      <point x="248.0" y="620.0"/>
      <point x="247.0" y="625.0"/>
    </contour>
  </outline>
</glyph>
<glyph name="guillemotleft" format="1">
  <advance width="513.0"/>
  <unicode hex="00AB"/>
  <outline>
    <contour>
      <point x="258" y="400" type="curve"/>
      <point x="75" y="288" type="line"/>
      <point x="75" y="264"/>
      <point x="75" y="288"/>
      <point x="75" y="264" type="curve"/>
      <point x="258" y="376" type="line"/>
      <point x="258" y="400"/>
      <point x="258" y="376"/>
    </contour>
    <contour>
      <point x="259" y="176" type="curve"/>
      <point x="75" y="288" type="line"/>
      <point x="75" y="264"/>
      <point x="75" y="288"/>
      <point x="75" y="264" type="curve"/>
      <point x="259" y="153" type="line"/>
      <point x="259" y="176"/>
      <point x="259" y="153"/>
    </contour>
    <contour>
      <point x="417.0" y="400" type="curve"/>
      <point x="234.0" y="288" type="line"/>
      <point x="234.0" y="264"/>
      <point x="234.0" y="288"/>
      <point x="234.0" y="264" type="curve"/>
      <point x="417.0" y="376" type="line"/>
      <point x="417.0" y="400"/>
      <point x="417.0" y="376"/>
    </contour>
    <contour>
      <point x="418.0" y="176" type="curve"/>
      <point x="234.0" y="288" type="line"/>
      <point x="234.0" y="264"/>
      <point x="234.0" y="288"/>
      <point x="234.0" y="264" type="curve"/>
      <point x="418.0" y="153" type="line"/>
      <point x="418.0" y="176"/>
      <point x="418.0" y="153"/>
    </contour>
  </outline>
</glyph>
